SplineFontDB: 3.0
FontName: LetterGothicCode-I
FullName: Letter Gothic Code Italic
FamilyName: Letter Gothic Code
Weight: Regular
Copyright: (URW)++,Copyright 2014 by (URW)++ Design & Development
Version: 1.00
ItalicAngle: 0
UnderlinePosition: -425
UnderlineWidth: 143
Ascent: 1626
Descent: 422
InvalidEm: 0
sfntRevision: 0x00010000
LayerCount: 2
Layer: 0 1 "Back" 1
Layer: 1 1 "Fore" 0
XUID: [1021 754 1859939275 22777]
StyleMap: 0x0001
FSType: 0
OS2Version: 1
OS2_WeightWidthSlopeOnly: 0
OS2_UseTypoMetrics: 0
CreationTime: 1456764359
ModificationTime: 1511560088
PfmFamily: 49
TTFWeight: 400
TTFWidth: 5
LineGap: 307
VLineGap: 0
Panose: 2 11 8 9 6 1 1 1 1 1
OS2TypoAscent: 1626
OS2TypoAOffset: 0
OS2TypoDescent: -422
OS2TypoDOffset: 0
OS2TypoLinegap: 0
OS2WinAscent: 1974
OS2WinAOffset: 0
OS2WinDescent: 440
OS2WinDOffset: 0
HheadAscent: 1626
HheadAOffset: 0
HheadDescent: -422
HheadDOffset: 0
OS2SubXSize: 938
OS2SubYSize: 1161
OS2SubXOff: 0
OS2SubYOff: 307
OS2SupXSize: 938
OS2SupYSize: 1161
OS2SupXOff: 0
OS2SupYOff: -521
OS2StrikeYSize: 131
OS2StrikeYPos: 799
OS2FamilyClass: 2057
OS2Vendor: 'URW '
OS2CodePages: 2000009d.00000000
OS2UnicodeRanges: 800002ef.100178ef.00000000.00000000
MarkAttachClasses: 1
DEI: 91125
TtTable: prep
PUSHW_1
 511
SCANCTRL
PUSHB_1
 1
SCANTYPE
SVTCA[y-axis]
MPPEM
PUSHB_1
 8
LT
IF
PUSHB_2
 1
 1
INSTCTRL
EIF
PUSHB_2
 70
 6
CALL
IF
POP
PUSHB_1
 16
EIF
MPPEM
PUSHB_1
 20
GT
IF
POP
PUSHB_1
 128
EIF
SCVTCI
PUSHB_1
 6
CALL
NOT
IF
SVTCA[y-axis]
PUSHB_1
 4
DUP
RCVT
PUSHB_1
 3
CALL
WCVTP
PUSHB_1
 5
DUP
RCVT
PUSHB_3
 4
 148
 2
CALL
PUSHB_1
 3
CALL
WCVTP
SVTCA[x-axis]
PUSHB_1
 6
DUP
RCVT
PUSHB_1
 3
CALL
WCVTP
PUSHB_1
 7
DUP
RCVT
PUSHW_3
 6
 32767
 2
CALL
PUSHB_2
 3
 70
SROUND
CALL
WCVTP
PUSHB_1
 8
DUP
RCVT
PUSHB_3
 7
 97
 2
CALL
PUSHB_2
 3
 70
SROUND
CALL
WCVTP
PUSHB_1
 9
DUP
RCVT
PUSHB_3
 8
 32
 2
CALL
PUSHB_2
 3
 70
SROUND
CALL
WCVTP
PUSHB_1
 10
DUP
RCVT
PUSHB_3
 9
 30
 2
CALL
PUSHB_2
 3
 70
SROUND
CALL
WCVTP
EIF
PUSHB_1
 20
CALL
EndTTInstrs
TtTable: fpgm

StartChar: .notdef
Encoding: 65536 -1 0
Width: 1120
Flags: W
HStem: 0 102<252 868> 1373 102<252 868>
VStem: 150 102<102 1373> 868 102<102 1373>
LayerCount: 2
Fore
SplineSet
150 0 m 1,0,-1
 150 1475 l 1,1,-1
 970 1475 l 1,2,-1
 970 0 l 1,3,-1
 150 0 l 1,0,-1
252 102 m 1,4,-1
 868 102 l 1,5,-1
 868 1373 l 1,6,-1
 252 1373 l 1,7,-1
 252 102 l 1,4,-1
EndSplineSet
EndChar

StartChar: exclam
Encoding: 33 33 2
Width: 1120
GlyphClass: 2
Flags: W
HStem: -29 330<384.809 567.105> 1455 20G<609.091 811.898>
VStem: 308.102 335.593<44.9052 226.563>
LayerCount: 2
Fore
SplineSet
446.8984375 -29 m 256,0,1
 377.8984375 -29 377.8984375 -29 343 13.408203125 c 128,-1,2
 308.1015625 55.8154296875 308.1015625 55.8154296875 308.1015625 87.869140625 c 0,3,4
 308.1015625 192.540039062 308.1015625 192.540039062 372.5 246.770507812 c 128,-1,5
 436.8984375 301 436.8984375 301 505.3984375 301 c 128,-1,6
 573.8984375 301 573.8984375 301 608.795898438 258.150390625 c 128,-1,7
 643.694335938 215.30078125 643.694335938 215.30078125 643.694335938 166.336914062 c 0,8,9
 643.694335938 79.5703125 643.694335938 79.5703125 579.795898438 25.28515625 c 128,-1,10
 515.8984375 -29 515.8984375 -29 446.8984375 -29 c 256,0,1
467.8984375 449 m 1,11,-1
 611.8984375 1475 l 1,12,-1
 811.8984375 1475 l 1,13,-1
 602.8984375 449 l 1,14,-1
 467.8984375 449 l 1,11,-1
EndSplineSet
EndChar

StartChar: quotedbl
Encoding: 34 34 3
Width: 1120
GlyphClass: 2
Flags: W
HStem: 913 595
LayerCount: 2
Fore
SplineSet
135 935 m 1,0,-1
 326 1508 l 1,1,-1
 554 1480 l 1,2,-1
 297 913 l 1,3,-1
 135 935 l 1,0,-1
566 935 m 1,4,-1
 757 1508 l 1,5,-1
 985 1480 l 1,6,-1
 728 913 l 1,7,-1
 566 935 l 1,4,-1
EndSplineSet
EndChar

StartChar: numbersign
Encoding: 35 35 4
Width: 1120
GlyphClass: 2
Flags: W
HStem: 469 131<84 250 736 905> 865 143<227 394 882 1047>
DStem2: 9 -191 157 -191 0.341332 0.939943<50.5171 702.623 841.798 1123.99 1275.47 1951.18> 299 -191 445 -191 0.341332 0.939943<49.8344 753.14 892.657 1174.51 1325.99 1951.18>
LayerCount: 2
Fore
SplineSet
9 -191 m 1,0,-1
 250 469 l 1,1,-1
 30 469 l 1,2,-1
 84 600 l 1,3,-1
 297 600 l 1,4,-1
 394 865 l 1,5,-1
 175 865 l 1,6,-1
 227 1008 l 1,7,-1
 444 1008 l 1,8,-1
 675 1643 l 1,9,-1
 822 1643 l 1,10,-1
 157 -191 l 1,11,-1
 9 -191 l 1,0,-1
299 -191 m 1,12,-1
 965 1643 l 1,13,-1
 1111 1643 l 1,14,-1
 882 1008 l 1,15,-1
 1101 1008 l 1,16,-1
 1047 865 l 1,17,-1
 832 865 l 1,18,-1
 736 600 l 1,19,-1
 955 600 l 1,20,-1
 905 469 l 1,21,-1
 688 469 l 1,22,-1
 445 -191 l 1,23,-1
 299 -191 l 1,12,-1
EndSplineSet
EndChar

StartChar: dollar
Encoding: 36 36 5
Width: 1120
GlyphClass: 2
Flags: W
HStem: 129 139<298.021 391 560 651.94> 1113 21G<915 940.123> 1233 138<498.296 584 755 839.015>
VStem: 260.612 154.61<924.233 1146.06> 357 145<-62 83> 636 145<1377 1522> 748.408 156.356<359.94 632.194>
DStem2: 357 -62 502 -62 0.173466 0.98484<25.1526 194.002 360.211 784.71 950.432 1308.84 1480.32 1608.38>
LayerCount: 2
Fore
SplineSet
90 295 m 1,0,-1
 202 404 l 1,1,2
 274 327 274 327 319 297.5 c 128,-1,3
 364 268 364 268 408 268 c 2,4,-1
 415 268 l 1,5,-1
 496 727 l 1,6,7
 260.612179487 816.46474359 260.612179487 816.46474359 260.612179487 1002.49884944 c 0,8,9
 260.612179487 1177.87750401 260.612179487 1177.87750401 418 1291 c 0,10,11
 463 1324 463 1324 517.5 1347.5 c 128,-1,12
 572 1371 572 1371 603 1371 c 2,13,-1
 610 1371 l 1,14,-1
 636 1522 l 1,15,-1
 781 1522 l 1,16,-1
 755 1371 l 1,17,18
 909 1351 909 1351 1030 1227 c 1,19,-1
 921 1113 l 1,20,21
 909 1125 909 1125 891.5 1144.5 c 128,-1,22
 874 1164 874 1164 824.5 1198.5 c 128,-1,23
 775 1233 775 1233 742 1233 c 2,24,-1
 730 1233 l 1,25,-1
 660 833 l 1,26,27
 746 799 746 799 803 754 c 0,28,29
 904.763975155 672.111801242 904.763975155 672.111801242 904.763975155 538.393503337 c 0,30,31
 904.763975155 503.919254658 904.763975155 503.919254658 898 466 c 0,32,33
 848 183 848 183 536 129 c 1,34,-1
 502 -62 l 1,35,-1
 357 -62 l 1,36,-1
 391 129 l 1,37,38
 300 136 300 136 237.5 168.5 c 128,-1,39
 175 201 175 201 106 278 c 1,40,-1
 90 295 l 1,0,-1
522 874 m 1,41,-1
 584 1227 l 1,42,-1
 577 1227 l 2,43,44
 533 1227 533 1227 480.5 1172 c 0,45,46
 415.222222222 1103.61375661 415.222222222 1103.61375661 415.222222222 1021.09854497 c 128,-1,47
 415.222222222 938.583333333 415.222222222 938.583333333 522 874 c 1,41,-1
560 268 m 1,48,-1
 566 268 l 2,49,50
 583 268 583 268 617 286 c 0,51,52
 748.408450704 357.787949922 748.408450704 357.787949922 748.408450704 501.657607618 c 0,53,54
 748.408450704 545.126760563 748.408450704 545.126760563 727.704225352 594.563380282 c 128,-1,55
 707 644 707 644 652 675 c 1,56,-1
 634 686 l 1,57,-1
 560 268 l 1,48,-1
EndSplineSet
EndChar

StartChar: percent
Encoding: 37 37 6
Width: 1120
GlyphClass: 2
Flags: W
HStem: -27 21G<-34 127.613> -12 102<633.445 778.065> 560 102<699.409 843.441> 858 102<299.113 443.77> 1430 102<368.717 512.898> 1481 20G<988.44 1154>
VStem: -34 148<-27 121> 161.038 127.456<968.792 1313.25> 494.871 126.874<117.471 449.845> 523.938 126.865<1076.18 1421.55> 856.938 127.562<204.471 550.133> 1002 152<1349 1501>
DStem2: -34 -27 114 -27 0.562665 0.826685<83.2744 1846.1>
LayerCount: 2
Fore
SplineSet
-34 -27 m 1,0,-1
 1002 1501 l 1,1,-1
 1154 1501 l 1,2,-1
 114 -27 l 1,3,-1
 -34 -27 l 1,0,-1
341.5 858 m 0,4,5
 161.038461538 858 161.038461538 858 161.038461538 1063.43491124 c 0,6,7
 161.038461538 1122.73076923 161.038461538 1122.73076923 175 1201 c 0,8,9
 208 1386 208 1386 284 1459 c 128,-1,10
 360 1532 360 1532 470 1532 c 0,11,12
 650.803508772 1532 650.803508772 1532 650.803508772 1318.20778086 c 0,13,14
 650.803508772 1263.58245614 650.803508772 1263.58245614 639 1195 c 0,15,16
 606 1006 606 1006 528.5 932 c 128,-1,17
 451 858 451 858 341.5 858 c 0,4,5
523.93814433 1322.36656393 m 0,18,19
 523.93814433 1430 523.93814433 1430 442.5 1430 c 0,20,21
 343.496296296 1430 343.496296296 1430 300.5 1183 c 0,22,23
 288.494565217 1114.0326087 288.494565217 1114.0326087 288.494565217 1068.81509924 c 0,24,25
 288.494565217 960 288.494565217 960 370 960 c 0,26,27
 467 960 467 960 510 1195 c 0,28,29
 523.93814433 1273.26804124 523.93814433 1273.26804124 523.93814433 1322.36656393 c 0,18,19
675.5 -12 m 0,30,31
 494.870967742 -12 494.870967742 -12 494.870967742 195.223204995 c 0,32,33
 494.870967742 254.129032258 494.870967742 254.129032258 508.5 331.5 c 0,34,35
 541 516 541 516 617.5 589 c 128,-1,36
 694 662 694 662 804 662 c 0,37,38
 984.5 662 984.5 662 984.5 450.789930556 c 0,39,40
 984.5 395.208333333 984.5 395.208333333 969.25 308.604166667 c 0,41,42
 912.795285061 -12 912.795285061 -12 675.5 -12 c 0,30,31
639.872340426 347.031914894 m 0,43,44
 621.744680851 245.063829787 621.744680851 245.063829787 621.744680851 200.670212766 c 128,-1,45
 621.744680851 156.276595745 621.744680851 156.276595745 633 134.5 c 0,46,47
 656 90 656 90 704 90 c 0,48,49
 803 90 803 90 843 325 c 0,50,51
 856.93814433 403.268041237 856.93814433 403.268041237 856.93814433 449.06185567 c 0,52,53
 856.93814433 560 856.93814433 560 776 560 c 0,54,55
 677.733333333 560 677.733333333 560 639.872340426 347.031914894 c 0,43,44
EndSplineSet
EndChar

StartChar: ampersand
Encoding: 38 38 7
Width: 1120
GlyphClass: 2
Flags: W
HStem: -27 139<294.653 590.932> 1363 139<581.017 727.4>
VStem: 97.6064 156.556<154.743 428.651> 353.267 155.115<925.631 1280.23> 745.234 154.142<1103.17 1338.71>
DStem2: 556.394 918 436.394 805 0.43583 -0.900029<-201.813 0 192.184 556.063>
LayerCount: 2
Fore
SplineSet
436.393554688 805 m 1,0,1
 353.266601562 985.108398438 353.266601562 985.108398438 353.266601562 1086.0859375 c 0,2,3
 353.266601562 1127.30175781 353.266601562 1127.30175781 361.393554688 1172 c 0,4,5
 394.393554688 1359 394.393554688 1359 539.393554688 1451 c 0,6,7
 619.393554688 1502 619.393554688 1502 697.893554688 1502 c 128,-1,8
 776.393554688 1502 776.393554688 1502 837.884765625 1443.54882812 c 128,-1,9
 899.375976562 1385.09765625 899.375976562 1385.09765625 899.375976562 1279.70117188 c 0,10,11
 899.375976562 1145.8046875 899.375976562 1145.8046875 817.893554688 1022.5 c 0,12,13
 761.393554688 937 761.393554688 937 620.393554688 798 c 1,14,15
 648.393554688 711 648.393554688 711 664.393554688 674 c 128,-1,16
 680.393554688 637 680.393554688 637 789.393554688 413 c 1,17,18
 833.393554688 548 833.393554688 548 859.393554688 695 c 1,19,-1
 869.393554688 754 l 1,20,-1
 1022.39355469 754 l 1,21,22
 954.393554688 423 954.393554688 423 863.393554688 269 c 1,23,24
 948.393554688 146 948.393554688 146 1014.39355469 68 c 1,25,-1
 892.393554688 -38 l 1,26,27
 806.393554688 75 806.393554688 75 761.393554688 140 c 1,28,29
 708.393554688 81 708.393554688 81 649.393554688 47 c 0,30,31
 526.393554688 -27 526.393554688 -27 385.393554688 -27 c 128,-1,32
 244.393554688 -27 244.393554688 -27 161.393554688 60 c 0,33,34
 97.6064453125 126.861328125 97.6064453125 126.861328125 97.6064453125 226.501953125 c 0,35,36
 97.6064453125 256.513671875 97.6064453125 256.513671875 103.393554688 289.5 c 0,37,38
 128.393554688 432 128.393554688 432 197.393554688 536.5 c 128,-1,39
 266.393554688 641 266.393554688 641 436.393554688 805 c 1,0,1
410.393554688 588 m 1,40,41
 254.162109375 427.989257812 254.162109375 427.989257812 254.162109375 242.958984375 c 0,42,43
 254.162109375 202.248046875 254.162109375 202.248046875 292.77734375 157.124023438 c 128,-1,44
 331.393554688 112 331.393554688 112 418.393554688 112 c 0,45,46
 587.393554688 112 587.393554688 112 701.393554688 251 c 1,47,48
 558.393554688 535 558.393554688 535 495.393554688 676 c 1,49,-1
 410.393554688 588 l 1,40,41
556.393554688 918 m 1,50,51
 581.393554688 944 581.393554688 944 633.893554688 1010.5 c 128,-1,52
 686.393554688 1077 686.393554688 1077 708.893554688 1116 c 0,53,54
 745.234375 1178.99121094 745.234375 1178.99121094 745.234375 1234.41601562 c 128,-1,55
 745.234375 1289.84082031 745.234375 1289.84082031 726.314453125 1326.42089844 c 128,-1,56
 707.393554688 1363 707.393554688 1363 661.893554688 1363 c 128,-1,57
 616.393554688 1363 616.393554688 1363 571.893554688 1308.5 c 0,58,59
 508.381835938 1230.71679688 508.381835938 1230.71679688 508.381835938 1122.36914062 c 128,-1,60
 508.381835938 1014.02246094 508.381835938 1014.02246094 556.393554688 918 c 1,50,51
EndSplineSet
EndChar

StartChar: quotesingle
Encoding: 39 39 8
Width: 1120
GlyphClass: 2
Flags: W
HStem: 913 595
VStem: 370.5 379
LayerCount: 2
Fore
SplineSet
370.5 935 m 1,0,-1
 548.5 1508 l 1,1,-1
 749.5 1479 l 1,2,-1
 516.5 913 l 1,3,-1
 370.5 935 l 1,0,-1
EndSplineSet
EndChar

StartChar: parenleft
Encoding: 40 40 9
Width: 1120
GlyphClass: 2
Flags: W
VStem: 243.627 152.19<233.768 840.354>
LayerCount: 2
Fore
SplineSet
243.626953125 516.440429688 m 0,0,1
 243.626953125 619.044921875 243.626953125 619.044921875 263.373046875 730 c 0,2,3
 311.373046875 1003 311.373046875 1003 451.873046875 1212.5 c 128,-1,4
 592.373046875 1422 592.373046875 1422 768.373046875 1535 c 0,5,6
 783.373046875 1544 783.373046875 1544 819.373046875 1568 c 1,7,-1
 876.373046875 1468 l 1,8,9
 773.373046875 1394 773.373046875 1394 717.373046875 1341 c 0,10,11
 600.373046875 1230 600.373046875 1230 523.373046875 1070 c 0,12,13
 395.817382812 804.94921875 395.817382812 804.94921875 395.817382812 517.752929688 c 0,14,15
 395.817382812 276.869140625 395.817382812 276.869140625 489.873046875 134 c 0,16,17
 529.373046875 74 529.373046875 74 616.373046875 -7 c 1,18,-1
 524.373046875 -107 l 1,19,-1
 506.373046875 -92 l 1,20,21
 243.626953125 119.591796875 243.626953125 119.591796875 243.626953125 516.440429688 c 0,0,1
EndSplineSet
EndChar

StartChar: parenright
Encoding: 41 41 10
Width: 1120
GlyphClass: 2
Flags: W
VStem: 725.969 149.634<620.604 1215.47>
DStem2: 267.397 9 352.397 -75 0.847064 0.531491<-27.9863 255.725>
LayerCount: 2
Fore
SplineSet
244.397460938 -7 m 1,0,1
 259.397460938 4 259.397460938 4 267.397460938 9 c 0,2,3
 388.397460938 95 388.397460938 95 461.397460938 181 c 0,4,5
 646.397460938 399 646.397460938 399 705.397460938 730 c 0,6,7
 725.96875 847.142578125 725.96875 847.142578125 725.96875 949.591796875 c 0,8,9
 725.96875 1205.71386719 725.96875 1205.71386719 597.397460938 1370 c 0,10,11
 569.397460938 1405 569.397460938 1405 504.397460938 1468 c 1,12,-1
 596.397460938 1568 l 1,13,14
 691.397460938 1490 691.397460938 1490 737.397460938 1428 c 0,15,16
 875.602539062 1234.51367188 875.602539062 1234.51367188 875.602539062 935.952148438 c 0,17,18
 875.602539062 834.409179688 875.602539062 834.409179688 857.397460938 730 c 0,19,20
 809.397460938 457 809.397460938 457 666.897460938 246 c 128,-1,21
 524.397460938 35 524.397460938 35 352.397460938 -75 c 1,22,-1
 301.397460938 -107 l 1,23,-1
 244.397460938 -7 l 1,0,1
EndSplineSet
EndChar

StartChar: asterisk
Encoding: 42 42 11
Width: 1120
GlyphClass: 2
Flags: W
HStem: 1465 20G<556.474 705>
VStem: 560 145<1340 1485>
DStem2: 142 1213 77 1079 0.958852 -0.283906<0 349.081> 147 673 242 589 0.692532 0.721387<5.19399 413.24> 493 1105 638 1105 0.173637 0.98481<25.1774 385.861> 649 973 526 882 0.518681 -0.854968<14.0044 350.89> 638 1105 649 973 0.965663 0.259798<0 384.339>
LayerCount: 2
Fore
SplineSet
77 1079 m 1,0,-1
 142 1213 l 1,1,-1
 493 1105 l 1,2,-1
 560 1485 l 1,3,-1
 705 1485 l 1,4,-1
 638 1105 l 1,5,-1
 1027 1213 l 1,6,-1
 1043 1079 l 1,7,-1
 649 973 l 1,8,-1
 831 673 l 1,9,-1
 707 589 l 1,10,-1
 526 882 l 1,11,-1
 242 589 l 1,12,-1
 147 673 l 1,13,-1
 435 973 l 1,14,-1
 77 1079 l 1,0,-1
EndSplineSet
EndChar

StartChar: plus
Encoding: 43 43 12
Width: 1120
GlyphClass: 2
Flags: W
HStem: 664 143<72 476 644 1048>
VStem: 391 143<180 323> 587 143<1151 1294>
DStem2: 391 180 534 180 0.173281 0.984872<24.7792 491.407 661.355 1131.11>
LayerCount: 2
Fore
SplineSet
47 664 m 1,0,-1
 72 807 l 1,1,-1
 501 807 l 1,2,-1
 587 1294 l 1,3,-1
 730 1294 l 1,4,-1
 644 807 l 1,5,-1
 1073 807 l 1,6,-1
 1048 664 l 1,7,-1
 619 664 l 1,8,-1
 534 180 l 1,9,-1
 391 180 l 1,10,-1
 476 664 l 1,11,-1
 47 664 l 1,0,-1
EndSplineSet
EndChar

StartChar: comma
Encoding: 44 44 13
Width: 1120
GlyphClass: 2
Flags: W
HStem: -256 140<390.202 459.298>
VStem: 420.229 333.568<22.9998 235.2>
LayerCount: 2
Fore
SplineSet
366.202148438 -256 m 5,0,-1
 390.202148438 -116 l 5,1,2
 475.202148438 -72 475.202148438 -72 533.202148438 -2 c 1,3,4
 420.229492188 15.837890625 420.229492188 15.837890625 420.229492188 112.034179688 c 0,5,6
 420.229492188 207.805664062 420.229492188 207.805664062 486.715820312 254.403320312 c 128,-1,7
 553.202148438 301 553.202148438 301 618.202148438 301 c 128,-1,8
 683.202148438 301 683.202148438 301 718.5 254.37109375 c 128,-1,9
 753.797851562 207.743164062 753.797851562 207.743164062 753.797851562 171.518554688 c 0,10,11
 753.797851562 28.8115234375 753.797851562 28.8115234375 637.5 -88.59375 c 128,-1,12
 521.202148438 -206 521.202148438 -206 366.202148438 -256 c 5,0,-1
EndSplineSet
EndChar

StartChar: hyphen
Encoding: 45 45 14
Width: 1120
GlyphClass: 2
Flags: W
HStem: 668 131<305 815>
VStem: 282 556
LayerCount: 2
Fore
SplineSet
282 668 m 1,0,-1
 305 799 l 1,1,-1
 838 799 l 1,2,-1
 815 668 l 1,3,-1
 282 668 l 1,0,-1
EndSplineSet
EndChar

StartChar: period
Encoding: 46 46 15
Width: 1120
GlyphClass: 2
Flags: W
HStem: -29 330<468.91 651.207>
VStem: 392.204 335.592<44.9051 226.563>
LayerCount: 2
Fore
SplineSet
531 -29 m 256,0,1
 462 -29 462 -29 427.101941748 13.4077669903 c 128,-1,2
 392.203883495 55.8155339806 392.203883495 55.8155339806 392.203883495 87.8689320388 c 0,3,4
 392.203883495 192.540112417 392.203883495 192.540112417 456.601941748 246.770056208 c 128,-1,5
 521 301 521 301 589.5 301 c 128,-1,6
 658 301 658 301 692.898058252 258.150485437 c 128,-1,7
 727.796116505 215.300970874 727.796116505 215.300970874 727.796116505 166.33645961 c 0,8,9
 727.796116505 79.5701520749 727.796116505 79.5701520749 663.898058252 25.2850760375 c 128,-1,10
 600 -29 600 -29 531 -29 c 256,0,1
EndSplineSet
EndChar

StartChar: slash
Encoding: 47 47 16
Width: 1120
GlyphClass: 2
Flags: W
DStem2: 36 -53 186 -53 0.494302 0.86929<74.1453 1818.73>
LayerCount: 2
Fore
SplineSet
36 -53 m 1,0,-1
 935 1528 l 1,1,-1
 1084 1528 l 1,2,-1
 186 -53 l 1,3,-1
 36 -53 l 1,0,-1
EndSplineSet
EndChar

StartChar: zero
Encoding: 48 48 17
Width: 1120
GlyphClass: 2
Flags: W
HStem: -27 139<332.098 587.063> 618 277<489.278 658.362> 1364 139<533.168 789.16>
VStem: 92.7471 155.235<199.99 770.698> 433.422 280.949<672.818 840.98> 872.592 154.661<706.325 1274.23>
LayerCount: 2
Fore
SplineSet
92.7470703125 380 m 128,-1,1
 92.7470703125 517 92.7470703125 517 138.747070312 777.5 c 128,-1,2
 184.747070312 1038 184.747070312 1038 257.247070312 1187.5 c 128,-1,3
 329.747070312 1337 329.747070312 1337 444.247070312 1420 c 128,-1,4
 558.747070312 1503 558.747070312 1503 699.747070312 1503 c 0,5,6
 795.747070312 1503 795.747070312 1503 872.247070312 1454.5 c 0,7,8
 1027.25292969 1356.22851562 1027.25292969 1356.22851562 1027.25292969 1093.09179688 c 0,9,10
 1027.25292969 957.223632812 1027.25292969 957.223632812 981 697.611328125 c 128,-1,11
 934.747070312 438 934.747070312 438 862.747070312 289 c 128,-1,12
 790.747070312 140 790.747070312 140 676.247070312 56.5 c 128,-1,13
 561.747070312 -27 561.747070312 -27 443.747070312 -27 c 0,14,15
 216.747070312 -27 216.747070312 -27 132.747070312 157 c 0,16,0
 92.7470703125 243 92.7470703125 243 92.7470703125 380 c 128,-1,1
367.747070312 1080 m 128,-1,18
 322.747070312 957 322.747070312 957 285.365234375 745.970703125 c 128,-1,19
 247.982421875 534.94140625 247.982421875 534.94140625 247.982421875 438.186523438 c 128,-1,20
 247.982421875 341.431640625 247.982421875 341.431640625 262.365234375 273.215820312 c 128,-1,21
 276.747070312 205 276.747070312 205 327.747070312 158.5 c 128,-1,22
 378.747070312 112 378.747070312 112 448.747070312 112 c 0,23,24
 553.747070312 112 553.747070312 112 630.747070312 193.5 c 128,-1,25
 707.747070312 275 707.747070312 275 752.747070312 397 c 128,-1,26
 797.747070312 519 797.747070312 519 831.747070312 713 c 0,27,28
 872.591796875 946.053710938 872.591796875 946.053710938 872.591796875 1039.24316406 c 128,-1,29
 872.591796875 1132.43359375 872.591796875 1132.43359375 857.669921875 1202.21679688 c 128,-1,30
 842.747070312 1272 842.747070312 1272 791.747070312 1318 c 128,-1,31
 740.747070312 1364 740.747070312 1364 669.747070312 1364 c 0,32,33
 566.747070312 1364 566.747070312 1364 489.747070312 1283.5 c 128,-1,17
 412.747070312 1203 412.747070312 1203 367.747070312 1080 c 128,-1,18
548.747070312 618 m 132,-1,35
 491.747070312 618 491.747070312 618 462.584960938 654.232421875 c 132,-1,36
 433.421875 690.46484375 433.421875 690.46484375 433.421875 717.296875 c 0,37,38
 433.421875 804.728515625 433.421875 804.728515625 487.584960938 849.864257812 c 132,-1,39
 541.747070312 895 541.747070312 895 598.747070312 895 c 132,-1,40
 655.747070312 895 655.747070312 895 685.059570312 858.58203125 c 132,-1,41
 714.37109375 822.165039062 714.37109375 822.165039062 714.37109375 795.453125 c 0,42,43
 714.37109375 708.706054688 714.37109375 708.706054688 660.059570312 663.353515625 c 132,-1,34
 605.747070312 618 605.747070312 618 548.747070312 618 c 132,-1,35
EndSplineSet
EndChar

StartChar: one
Encoding: 49 49 18
Width: 1120
GlyphClass: 2
Flags: W
HStem: 0 131<225 506 652 895> 1463 20G<821.259 886.479>
DStem2: 426 1348 401 1206 0.960185 0.279364<0 260.365> 506 131 652 131 0.17337 0.984857<25.312 1184.06>
LayerCount: 2
Fore
SplineSet
202 0 m 1,0,-1
 225 131 l 1,1,-1
 506 131 l 1,2,-1
 712 1297 l 5,3,-1
 401 1206 l 5,4,-1
 426 1348 l 5,5,-1
 890 1483 l 5,6,-1
 652 131 l 1,7,-1
 918 131 l 1,8,-1
 895 0 l 1,9,-1
 202 0 l 1,0,-1
EndSplineSet
EndChar

StartChar: two
Encoding: 50 50 19
Width: 1120
GlyphClass: 2
Flags: W
HStem: 0 131<225.258 871.258> 1363 140<573.439 868.531>
VStem: 919.704 154.038<1036.94 1312.7>
DStem2: 531.258 719 459.258 494.5 0.779644 0.626224<-446.703 493.264>
LayerCount: 2
Fore
SplineSet
46.2578125 0 m 1,0,-1
 58.2578125 66 l 1,1,2
 106.2578125 337 106.2578125 337 271.2578125 500 c 0,3,4
 361.2578125 588 361.2578125 588 531.2578125 719 c 128,-1,5
 701.2578125 850 701.2578125 850 746.2578125 888 c 0,6,7
 919.704101562 1035.48828125 919.704101562 1035.48828125 919.704101562 1191.85546875 c 0,8,9
 919.704101562 1256.08496094 919.704101562 1256.08496094 877.981445312 1309.54199219 c 128,-1,10
 836.2578125 1363 836.2578125 1363 732.2578125 1363 c 0,11,12
 492.2578125 1363 492.2578125 1363 412.2578125 1065 c 1,13,-1
 261.2578125 1065 l 1,14,15
 300.2578125 1198 300.2578125 1198 353.7578125 1283 c 128,-1,16
 407.2578125 1368 407.2578125 1368 509.7578125 1435.5 c 128,-1,17
 612.2578125 1503 612.2578125 1503 774.2578125 1503 c 128,-1,18
 936.2578125 1503 936.2578125 1503 1015.7578125 1403 c 0,19,20
 1073.7421875 1330.06445312 1073.7421875 1330.06445312 1073.7421875 1221.48730469 c 0,21,22
 1073.7421875 1001.50097656 1073.7421875 1001.50097656 863.2578125 819 c 0,23,24
 805.2578125 768 805.2578125 768 653.7578125 649.5 c 128,-1,25
 502.2578125 531 502.2578125 531 459.2578125 494.5 c 128,-1,26
 416.2578125 458 416.2578125 458 364.2578125 402 c 128,-1,27
 312.2578125 346 312.2578125 346 281.7578125 286 c 128,-1,28
 251.2578125 226 251.2578125 226 225.2578125 131 c 1,29,-1
 894.2578125 131 l 1,30,-1
 871.2578125 0 l 1,31,-1
 46.2578125 0 l 1,0,-1
EndSplineSet
EndChar

StartChar: three
Encoding: 51 51 20
Width: 1120
GlyphClass: 2
Flags: W
HStem: -27 139<319.011 671.911> 721 135<534.591 729.103> 1364 139<527.753 831.681>
VStem: 849.613 154.062<300.985 614.436> 906.434 153.976<1015.89 1290.32>
LayerCount: 2
Fore
SplineSet
59.5908203125 255 m 1,0,-1
 206.590820312 332 l 1,1,2
 211.590820312 316 211.590820312 316 213.590820312 307 c 0,3,4
 276.590820312 112 276.590820312 112 481.590820312 112 c 0,5,6
 637.590820312 112 637.590820312 112 729.090820312 198 c 128,-1,7
 820.590820312 284 820.590820312 284 844.090820312 415 c 0,8,9
 849.61328125 445.78515625 849.61328125 445.78515625 849.61328125 474.16796875 c 0,10,11
 849.61328125 566.5625 849.61328125 566.5625 791.090820312 633.5 c 0,12,13
 714.590820312 721 714.590820312 721 558.590820312 721 c 2,14,-1
 510.590820312 721 l 1,15,-1
 534.590820312 856 l 1,16,17
 550.590820312 857 550.590820312 857 559.590820312 857 c 0,18,19
 656.590820312 859 656.590820312 859 738.590820312 905 c 0,20,21
 878.590820312 984 878.590820312 984 902.590820312 1122 c 0,22,23
 906.43359375 1143.9609375 906.43359375 1143.9609375 906.43359375 1181.62792969 c 128,-1,24
 906.43359375 1219.29394531 906.43359375 1219.29394531 879.590820312 1265 c 0,25,26
 822.590820312 1364 822.590820312 1364 680.090820312 1364 c 128,-1,27
 537.590820312 1364 537.590820312 1364 411.590820312 1220 c 0,28,29
 401.590820312 1209 401.590820312 1209 366.590820312 1162 c 1,30,-1
 253.590820312 1234 l 1,31,32
 302.590820312 1297 302.590820312 1297 325.590820312 1322 c 0,33,34
 390.590820312 1392 390.590820312 1392 493.590820312 1447.5 c 128,-1,35
 596.590820312 1503 596.590820312 1503 722.590820312 1503 c 0,36,37
 909.590820312 1503 909.590820312 1503 1003.59082031 1369 c 0,38,39
 1060.40917969 1289.45410156 1060.40917969 1289.45410156 1060.40917969 1188.67382812 c 0,40,41
 1060.40917969 1051.44628906 1060.40917969 1051.44628906 979.090820312 947.5 c 0,42,43
 921.590820312 874 921.590820312 874 806.590820312 803 c 1,44,45
 1003.67480469 705.705078125 1003.67480469 705.705078125 1003.67480469 499.841796875 c 0,46,47
 1003.67480469 267.922851562 1003.67480469 267.922851562 819.090820312 102.5 c 0,48,49
 674.590820312 -27 674.590820312 -27 448.090820312 -27 c 128,-1,50
 221.590820312 -27 221.590820312 -27 106.590820312 164 c 0,51,52
 89.5908203125 192 89.5908203125 192 59.5908203125 255 c 1,0,-1
EndSplineSet
EndChar

StartChar: four
Encoding: 52 52 21
Width: 1120
GlyphClass: 2
Flags: W
HStem: 0 21G<598 747.57> 381 131<268 666 834 1024> 1481 20G<803.697 1010>
VStem: 598 146<0 146>
DStem2: 90 483 268 512 0.581692 0.813409<127.13 1095.47> 598 0 744 0 0.174496 0.984658<25.4765 387.02 545.326 1322.16>
LayerCount: 2
Fore
SplineSet
72 381 m 1,0,-1
 90 483 l 1,1,-1
 818 1501 l 1,2,-1
 1010 1501 l 1,3,-1
 834 512 l 1,4,-1
 1048 512 l 1,5,-1
 1024 381 l 1,6,-1
 812 381 l 1,7,-1
 744 0 l 1,8,-1
 598 0 l 1,9,-1
 666 381 l 1,10,-1
 72 381 l 1,0,-1
268 512 m 1,11,-1
 688 512 l 1,12,-1
 828 1302 l 1,13,-1
 268 512 l 1,11,-1
EndSplineSet
EndChar

StartChar: five
Encoding: 53 53 22
Width: 1120
GlyphClass: 2
Flags: W
HStem: -27 139<321.154 609.365> 785 139<451.173 722.935> 1344 131<491 1017>
VStem: 805.257 154.639<327.148 699.828>
DStem2: 177 658 358 825 0.243374 0.969933<206.029 741.793>
LayerCount: 2
Fore
SplineSet
80 222 m 1,0,-1
 211 306 l 1,1,2
 239 247 239 247 257 221 c 0,3,4
 337 112 337 112 452 112 c 128,-1,5
 567 112 567 112 667.5 198 c 128,-1,6
 768 284 768 284 797 447 c 0,7,8
 805.256880734 495.990825688 805.256880734 495.990825688 805.256880734 538.467048228 c 0,9,10
 805.256880734 650.321100917 805.256880734 650.321100917 747.128440367 717.660550459 c 128,-1,11
 689 785 689 785 595 785 c 0,12,13
 458 785 458 785 324 628 c 1,14,-1
 177 658 l 1,15,-1
 382 1475 l 1,16,-1
 1040 1475 l 1,17,-1
 1017 1344 l 1,18,-1
 491 1344 l 1,19,-1
 358 825 l 1,20,-1
 378 840 l 1,21,22
 494 924 494 924 626 924 c 0,23,24
 799 924 799 924 893.5 797.5 c 0,25,26
 959.895910781 708.620817844 959.895910781 708.620817844 959.895910781 569.142521524 c 0,27,28
 959.895910781 252.719216631 959.895910781 252.719216631 729 76 c 0,29,30
 595 -27 595 -27 421.5 -27 c 128,-1,31
 248 -27 248 -27 129 138 c 0,32,33
 108 168 108 168 80 222 c 1,0,-1
EndSplineSet
EndChar

StartChar: six
Encoding: 54 54 23
Width: 1120
GlyphClass: 2
Flags: W
HStem: -27 139<286.221 561.209> 801 139<423.186 694.497> 1364 139<613.098 913.929>
VStem: 59.6562 150.127<193.969 569.681> 766.15 155.292<360.625 728.849>
LayerCount: 2
Fore
SplineSet
59.65625 391.001953125 m 0,0,1
 59.65625 495.09375 59.65625 495.09375 82.34375 624 c 0,2,3
 130.34375 894 130.34375 894 239.34375 1093 c 0,4,5
 380.34375 1351 380.34375 1351 587.34375 1452 c 0,6,7
 691.34375 1503 691.34375 1503 802.84375 1503 c 128,-1,8
 914.34375 1503 914.34375 1503 1019.34375 1439 c 1,9,-1
 1060.34375 1413 l 1,10,-1
 965.34375 1286 l 1,11,12
 894.34375 1335 894.34375 1335 857.84375 1349.5 c 128,-1,13
 821.34375 1364 821.34375 1364 770.34375 1364 c 0,14,15
 660.34375 1364 660.34375 1364 551.34375 1278 c 128,-1,16
 442.34375 1192 442.34375 1192 361.34375 1037.5 c 128,-1,17
 280.34375 883 280.34375 883 262.34375 783 c 1,18,-1
 277.34375 800 l 1,19,20
 320.34375 845 320.34375 845 407.84375 892.5 c 128,-1,21
 495.34375 940 495.34375 940 600.34375 940 c 0,22,23
 767.34375 940 767.34375 940 856.84375 815 c 0,24,25
 921.442382812 724.778320312 921.442382812 724.778320312 921.442382812 598.610351562 c 0,26,27
 921.442382812 549.975585938 921.442382812 549.975585938 911.84375 496 c 0,28,29
 877.34375 302 877.34375 302 781.34375 180 c 0,30,31
 618.34375 -26 618.34375 -26 390.34375 -27 c 0,32,33
 227.34375 -27 227.34375 -27 143.5 82.640625 c 128,-1,34
 59.65625 192.28125 59.65625 192.28125 59.65625 391.001953125 c 0,0,1
219.34375 459.5 m 0,35,36
 209.783203125 405.377929688 209.783203125 405.377929688 209.783203125 337.0546875 c 128,-1,37
 209.783203125 268.731445312 209.783203125 268.731445312 245.34375 206.5 c 0,38,39
 299.34375 112 299.34375 112 411.84375 112 c 128,-1,40
 524.34375 112 524.34375 112 624.34375 202 c 128,-1,41
 724.34375 292 724.34375 292 756.84375 475.5 c 0,42,43
 766.150390625 528.043945312 766.150390625 528.043945312 766.150390625 572.59375 c 0,44,45
 766.150390625 683.625976562 766.150390625 683.625976562 710.747070312 742.3125 c 128,-1,46
 655.34375 801 655.34375 801 563.34375 801 c 128,-1,47
 471.34375 801 471.34375 801 373.34375 721 c 0,48,49
 247.34375 618 247.34375 618 219.34375 459.5 c 0,35,36
EndSplineSet
EndChar

StartChar: seven
Encoding: 55 55 24
Width: 1120
GlyphClass: 2
Flags: W
HStem: 0 21G<60 231.39> 1344 131<233 839>
DStem2: 60 0 220 0 0.49487 0.868967<79.1791 1553.4>
LayerCount: 2
Fore
SplineSet
60 0 m 1,0,-1
 839 1344 l 1,1,-1
 210 1344 l 1,2,-1
 233 1475 l 1,3,-1
 1060 1475 l 1,4,-1
 220 0 l 1,5,-1
 60 0 l 1,0,-1
EndSplineSet
EndChar

StartChar: eight
Encoding: 56 56 25
Width: 1120
GlyphClass: 2
Flags: W
HStem: -27 139<292.477 663.469> 699 135<445.255 752.537> 1364 139<523.948 848.742>
VStem: 43.166 155.734<204.947 519.812> 219.61 151.091<905.514 1199.78> 848.896 154.179<296.067 608.233> 920.313 156.521<992.225 1293.87>
LayerCount: 2
Fore
SplineSet
43.166015625 306.259765625 m 0,0,1
 43.166015625 352.052734375 43.166015625 352.052734375 52.232421875 404 c 0,2,3
 96.232421875 653 96.232421875 653 319.232421875 763 c 1,4,-1
 340.232421875 773 l 1,5,6
 282.232421875 821 282.232421875 821 250.921875 876.603515625 c 128,-1,7
 219.610351562 932.20703125 219.610351562 932.20703125 219.610351562 996.95703125 c 0,8,9
 219.610351562 1263.74609375 219.610351562 1263.74609375 399.732421875 1399 c 0,10,11
 538.232421875 1503 538.232421875 1503 718.732421875 1503 c 128,-1,12
 899.232421875 1503 899.232421875 1503 999.732421875 1398 c 0,13,14
 1076.83398438 1317.44628906 1076.83398438 1317.44628906 1076.83398438 1197.16503906 c 0,15,16
 1076.83398438 1160.66210938 1076.83398438 1160.66210938 1069.73242188 1120.5 c 0,17,18
 1039.23242188 948 1039.23242188 948 932.232421875 845 c 0,19,20
 899.232421875 814 899.232421875 814 837.232421875 773 c 1,21,-1
 855.232421875 763 l 1,22,23
 1003.07519531 676.22265625 1003.07519531 676.22265625 1003.07519531 494.541992188 c 0,24,25
 1003.07519531 450.109375 1003.07519531 450.109375 994.232421875 400 c 0,26,27
 946.232421875 127 946.232421875 127 695.232421875 23 c 0,28,29
 574.232421875 -27 574.232421875 -27 449.232421875 -27 c 0,30,31
 243.232421875 -27 243.232421875 -27 129.232421875 82.5 c 0,32,33
 43.166015625 165.168945312 43.166015625 165.168945312 43.166015625 306.259765625 c 0,0,1
198.900390625 342.564453125 m 0,34,35
 198.900390625 240.704101562 198.900390625 240.704101562 267.56640625 176.3515625 c 128,-1,36
 336.232421875 112 336.232421875 112 472.232421875 112 c 256,37,38
 608.232421875 112 608.232421875 112 712.732421875 186 c 128,-1,39
 817.232421875 260 817.232421875 260 842.732421875 407.5 c 0,40,41
 848.896484375 443.151367188 848.896484375 443.151367188 848.896484375 474.392578125 c 0,42,43
 848.896484375 572.403320312 848.896484375 572.403320312 778.564453125 635.701171875 c 128,-1,44
 708.232421875 699 708.232421875 699 575.232421875 699 c 128,-1,45
 442.232421875 699 442.232421875 699 336.232421875 626.5 c 128,-1,46
 230.232421875 554 230.232421875 554 204.732421875 406.5 c 0,47,48
 198.900390625 372.766601562 198.900390625 372.766601562 198.900390625 342.564453125 c 0,34,35
427.966796875 891.265625 m 128,-1,50
 485.232421875 834 485.232421875 834 600.232421875 834 c 128,-1,51
 715.232421875 834 715.232421875 834 803.232421875 900 c 128,-1,52
 891.232421875 966 891.232421875 966 914.232421875 1099 c 256,53,54
 920.313476562 1134.16113281 920.313476562 1134.16113281 920.313476562 1164.63964844 c 0,55,56
 920.313476562 1249.44824219 920.313476562 1249.44824219 864.772460938 1306.72460938 c 128,-1,57
 809.232421875 1364 809.232421875 1364 693.232421875 1364 c 0,58,59
 507.232421875 1364 507.232421875 1364 421.232421875 1212 c 0,60,61
 370.701171875 1123.1875 370.701171875 1123.1875 370.701171875 1035.859375 c 128,-1,49
 370.701171875 948.53125 370.701171875 948.53125 427.966796875 891.265625 c 128,-1,50
EndSplineSet
EndChar

StartChar: nine
Encoding: 57 57 26
Width: 1120
GlyphClass: 2
Flags: W
HStem: -27 139<210.573 510.183> 535 139<426.397 696.686> 1364 139<559.26 833.951>
VStem: 197.558 156.037<746.495 1115.18> 911.159 150.185<905.916 1282.42>
LayerCount: 2
Fore
SplineSet
58.65625 63 m 1,0,-1
 155.65625 190 l 1,1,2
 266.65625 112 266.65625 112 363.65625 112 c 128,-1,3
 460.65625 112 460.65625 112 570.65625 198 c 128,-1,4
 680.65625 284 680.65625 284 760.15625 436.5 c 128,-1,5
 839.65625 589 839.65625 589 859.65625 692 c 1,6,-1
 843.65625 676 l 1,7,8
 798.65625 629 798.65625 629 711.15625 582 c 128,-1,9
 623.65625 535 623.65625 535 520.65625 535 c 0,10,11
 351.65625 535 351.65625 535 262.15625 660 c 0,12,13
 197.557617188 750.221679688 197.557617188 750.221679688 197.557617188 876.650390625 c 0,14,15
 197.557617188 925.384765625 197.557617188 925.384765625 207.15625 979.5 c 0,16,17
 241.65625 1174 241.65625 1174 338.65625 1296 c 0,18,19
 502.65625 1502 502.65625 1502 729.65625 1503 c 0,20,21
 892.65625 1503 892.65625 1503 977 1393.515625 c 128,-1,22
 1061.34375 1284.03125 1061.34375 1284.03125 1061.34375 1085.76171875 c 0,23,24
 1061.34375 981.90625 1061.34375 981.90625 1038.65625 853 c 0,25,26
 990.65625 581 990.65625 581 882.65625 383 c 0,27,28
 740.65625 125 740.65625 125 533.65625 24 c 0,29,30
 428.65625 -27 428.65625 -27 312.65625 -27 c 128,-1,31
 196.65625 -27 196.65625 -27 58.65625 63 c 1,0,-1
353.594726562 903.7265625 m 0,32,33
 353.594726562 791.9296875 353.594726562 791.9296875 409.125 732.96484375 c 128,-1,34
 464.65625 674 464.65625 674 557.15625 674 c 128,-1,35
 649.65625 674 649.65625 674 747.65625 755 c 0,36,37
 911.159179688 889.955078125 911.159179688 889.955078125 911.159179688 1117.65820312 c 0,38,39
 911.159179688 1207.90332031 911.159179688 1207.90332031 875.15625 1270 c 0,40,41
 820.65625 1364 820.65625 1364 708.65625 1364 c 128,-1,42
 596.65625 1364 596.65625 1364 495.65625 1274 c 128,-1,43
 394.65625 1184 394.65625 1184 362.65625 1000 c 0,44,45
 353.594726562 947.893554688 353.594726562 947.893554688 353.594726562 903.7265625 c 0,32,33
EndSplineSet
EndChar

StartChar: colon
Encoding: 58 58 27
Width: 1120
GlyphClass: 2
Flags: W
HStem: -29 330<408.397 590.693> 660 330<529.788 712.37>
VStem: 331.69 335.592<44.9052 226.563> 452.69 335.619<733.929 915.674>
LayerCount: 2
Fore
SplineSet
470.486328125 -29 m 256,0,1
 401.486328125 -29 401.486328125 -29 366.587890625 13.408203125 c 128,-1,2
 331.690429688 55.8154296875 331.690429688 55.8154296875 331.690429688 87.869140625 c 0,3,4
 331.690429688 192.540039062 331.690429688 192.540039062 396.087890625 246.770507812 c 128,-1,5
 460.486328125 301 460.486328125 301 528.986328125 301 c 128,-1,6
 597.486328125 301 597.486328125 301 632.384765625 258.150390625 c 128,-1,7
 667.282226562 215.30078125 667.282226562 215.30078125 667.282226562 166.336914062 c 0,8,9
 667.282226562 79.5703125 667.282226562 79.5703125 603.384765625 25.28515625 c 128,-1,10
 539.486328125 -29 539.486328125 -29 470.486328125 -29 c 256,0,1
591.486328125 660 m 256,11,12
 522.486328125 660 522.486328125 660 487.587890625 702.408203125 c 128,-1,13
 452.690429688 744.815429688 452.690429688 744.815429688 452.690429688 776.869140625 c 0,14,15
 452.690429688 881.6484375 452.690429688 881.6484375 517.587890625 935.82421875 c 128,-1,16
 582.486328125 990 582.486328125 990 650.986328125 990 c 128,-1,17
 719.486328125 990 719.486328125 990 753.8984375 947.206054688 c 128,-1,18
 788.309570312 904.412109375 788.309570312 904.412109375 788.309570312 855.627929688 c 0,19,20
 788.309570312 768.59375 788.309570312 768.59375 724.3984375 714.296875 c 128,-1,21
 660.486328125 660 660.486328125 660 591.486328125 660 c 256,11,12
EndSplineSet
EndChar

StartChar: semicolon
Encoding: 59 59 28
Width: 1120
GlyphClass: 2
Flags: W
HStem: -256 140<329.088 399.619> 660 330<556.39 738.972>
VStem: 359.116 333.568<22.3976 235.2> 479.292 335.62<733.929 915.674>
LayerCount: 2
Fore
SplineSet
305.087890625 -256 m 1,0,-1
 329.087890625 -116 l 1,1,2
 417.087890625 -71 417.087890625 -71 472.087890625 -2 c 1,3,4
 359.116210938 15.837890625 359.116210938 15.837890625 359.116210938 112.034179688 c 0,5,6
 359.116210938 207.805664062 359.116210938 207.805664062 425.602539062 254.403320312 c 128,-1,7
 492.087890625 301 492.087890625 301 557.087890625 301 c 128,-1,8
 622.087890625 301 622.087890625 301 657.38671875 254.37109375 c 128,-1,9
 692.684570312 207.743164062 692.684570312 207.743164062 692.684570312 171.518554688 c 0,10,11
 692.684570312 30.3427734375 692.684570312 30.3427734375 577.88671875 -93.328125 c 128,-1,12
 463.087890625 -217 463.087890625 -217 305.087890625 -256 c 1,0,-1
618.087890625 660 m 256,13,14
 549.087890625 660 549.087890625 660 514.190429688 702.408203125 c 128,-1,15
 479.291992188 744.815429688 479.291992188 744.815429688 479.291992188 776.869140625 c 0,16,17
 479.291992188 881.6484375 479.291992188 881.6484375 544.190429688 935.82421875 c 128,-1,18
 609.087890625 990 609.087890625 990 677.587890625 990 c 128,-1,19
 746.087890625 990 746.087890625 990 780.5 947.206054688 c 128,-1,20
 814.912109375 904.412109375 814.912109375 904.412109375 814.912109375 855.627929688 c 0,21,22
 814.912109375 768.59375 814.912109375 768.59375 751 714.296875 c 128,-1,23
 687.087890625 660 687.087890625 660 618.087890625 660 c 256,13,14
EndSplineSet
EndChar

StartChar: less
Encoding: 60 60 29
Width: 1120
GlyphClass: 2
Flags: W
DStem2: 197 621 62 580 0.895497 -0.445067<0 797.861> 77 662 197 621 0.921317 0.388813<94.6167 1003.2>
LayerCount: 2
Fore
SplineSet
62 580 m 1,0,-1
 77 662 l 1,1,-1
 1058 1076 l 1,2,-1
 1038 965 l 1,3,-1
 197 621 l 1,4,-1
 917 277 l 1,5,-1
 897 165 l 1,6,-1
 62 580 l 1,0,-1
EndSplineSet
EndChar

StartChar: equal
Encoding: 61 61 30
Width: 1120
GlyphClass: 2
Flags: W
HStem: 429 143<49 1025> 693 143<95 1071>
LayerCount: 2
Fore
SplineSet
24 429 m 5,0,-1
 49 572 l 5,1,-1
 1050 572 l 5,2,-1
 1025 429 l 5,3,-1
 24 429 l 5,0,-1
70 693 m 5,4,-1
 95 836 l 5,5,-1
 1096 836 l 5,6,-1
 1071 693 l 5,7,-1
 70 693 l 5,4,-1
EndSplineSet
EndChar

StartChar: greater
Encoding: 62 62 31
Width: 1120
GlyphClass: 2
Flags: W
DStem2: 82 277 62 165 0.92098 0.389609<0 907.649> 223 1076 203 965 0.895924 -0.444207<31.3885 828.365>
LayerCount: 2
Fore
SplineSet
62 165 m 1,0,-1
 82 277 l 1,1,-1
 922 621 l 1,2,-1
 203 965 l 1,3,-1
 223 1076 l 1,4,-1
 1058 662 l 1,5,-1
 1043 580 l 1,6,-1
 62 165 l 1,0,-1
EndSplineSet
EndChar

StartChar: question
Encoding: 63 63 32
Width: 1120
GlyphClass: 2
Flags: W
HStem: -29 330<299.738 482.034> 1363 139<451.772 724.153>
VStem: 223.031 335.593<44.9052 225.153> 361.827 145<440 585> 778.842 154.331<1037.9 1306.96>
DStem2: 361.827 440 506.827 440 0.173555 0.984824<25.1655 306.311>
LayerCount: 2
Fore
SplineSet
186.827148438 1143 m 1,0,1
 191.827148438 1162 191.827148438 1162 193.827148438 1172 c 0,2,3
 218.827148438 1269 218.827148438 1269 279.827148438 1343 c 0,4,5
 412.827148438 1502 412.827148438 1502 621.827148438 1502 c 0,6,7
 783.827148438 1502 783.827148438 1502 869.327148438 1405.5 c 0,8,9
 933.172851562 1333.44140625 933.172851562 1333.44140625 933.172851562 1224.58105469 c 0,10,11
 933.172851562 1187.65722656 933.172851562 1187.65722656 925.827148438 1146.5 c 0,12,13
 896.827148438 984 896.827148438 984 783.827148438 885 c 0,14,15
 755.827148438 862 755.827148438 862 669.327148438 803.5 c 128,-1,16
 582.827148438 745 582.827148438 745 566.327148438 716 c 128,-1,17
 549.827148438 687 549.827148438 687 536.827148438 612 c 2,18,-1
 506.827148438 440 l 1,19,-1
 361.827148438 440 l 1,20,-1
 404.827148438 684 l 2,21,22
 417.827148438 759 417.827148438 759 457.827148438 804.5 c 128,-1,23
 497.827148438 850 497.827148438 850 590.327148438 911 c 128,-1,24
 682.827148438 972 682.827148438 972 706.827148438 999 c 0,25,26
 757.827148438 1057 757.827148438 1057 774.827148438 1153.5 c 0,27,28
 778.841796875 1176.28515625 778.841796875 1176.28515625 778.841796875 1196.83984375 c 0,29,30
 778.841796875 1263.33984375 778.841796875 1263.33984375 730.333984375 1313.16992188 c 128,-1,31
 681.827148438 1363 681.827148438 1363 600.827148438 1363 c 128,-1,32
 519.827148438 1363 519.827148438 1363 460.827148438 1325.5 c 128,-1,33
 401.827148438 1288 401.827148438 1288 374.827148438 1224 c 0,34,35
 362.827148438 1198 362.827148438 1198 349.827148438 1143 c 1,36,-1
 186.827148438 1143 l 1,0,1
361.827148438 -29 m 256,37,38
 292.827148438 -29 292.827148438 -29 257.9296875 13.408203125 c 128,-1,39
 223.03125 55.8154296875 223.03125 55.8154296875 223.03125 87.869140625 c 128,-1,40
 223.03125 119.921875 223.03125 119.921875 225.827148438 136 c 256,41,42
 237.827148438 205 237.827148438 205 294.827148438 253 c 128,-1,43
 351.827148438 301 351.827148438 301 420.327148438 301 c 128,-1,44
 488.827148438 301 488.827148438 301 523.725585938 258.150390625 c 128,-1,45
 558.624023438 215.30078125 558.624023438 215.30078125 558.624023438 166.336914062 c 0,46,47
 558.624023438 79.5703125 558.624023438 79.5703125 494.725585938 25.28515625 c 128,-1,48
 430.827148438 -29 430.827148438 -29 361.827148438 -29 c 256,37,38
EndSplineSet
EndChar

StartChar: at
Encoding: 64 64 33
Width: 1120
GlyphClass: 2
Flags: W
HStem: -27 150<291.49 606.642> 358 139<365.871 517.482 663.871 804.949> 1363 139<564.43 831.341>
VStem: 29.8057 151.595<234.292 727.945> 279.013 158.578<497.183 701.991> 945.72 144.475<768.2 1232.62>
DStem2: 621.371 771 734.371 685 0.278649 0.960393<-164.73 140.675>
LayerCount: 2
Fore
SplineSet
29.8056640625 417.201171875 m 0,0,1
 29.8056640625 508.264648438 29.8056640625 508.264648438 48.87109375 616.5 c 0,2,3
 112.37109375 977 112.37109375 977 308.37109375 1247 c 0,4,5
 387.37109375 1356 387.37109375 1356 500.87109375 1429 c 128,-1,6
 614.37109375 1502 614.37109375 1502 722.87109375 1502 c 128,-1,7
 831.37109375 1502 831.37109375 1502 913.37109375 1447.5 c 128,-1,8
 995.37109375 1393 995.37109375 1393 1042.78222656 1293.23535156 c 128,-1,9
 1090.19433594 1193.47070312 1090.19433594 1193.47070312 1090.19433594 1088.39746094 c 128,-1,10
 1090.19433594 983.323242188 1090.19433594 983.323242188 1075.37109375 899.5 c 0,11,12
 1033.37109375 662 1033.37109375 662 933.37109375 514.5 c 128,-1,13
 833.37109375 367 833.37109375 367 712.37109375 367 c 0,14,15
 615.37109375 367 615.37109375 367 581.37109375 459 c 1,16,17
 522.37109375 402 522.37109375 402 484.37109375 380 c 128,-1,18
 446.37109375 358 446.37109375 358 405.37109375 358 c 0,19,20
 326.37109375 358 326.37109375 358 295.37109375 429 c 0,21,22
 279.012695312 464.603515625 279.012695312 464.603515625 279.012695312 511.833007812 c 0,23,24
 279.012695312 611.848632812 279.012695312 611.848632812 341.69140625 741.924804688 c 128,-1,25
 404.37109375 872 404.37109375 872 461.37109375 934 c 0,26,27
 564.37109375 1043 564.37109375 1043 753.37109375 1043 c 0,28,29
 775.37109375 1043 775.37109375 1043 837.37109375 1040 c 1,30,-1
 734.37109375 685 l 2,31,32
 709.3359375 599.275390625 709.3359375 599.275390625 709.3359375 573.12109375 c 0,33,34
 709.3359375 506 709.3359375 506 751.37109375 506 c 0,35,36
 780.37109375 506 780.37109375 506 813.37109375 550 c 0,37,38
 893.37109375 657 893.37109375 657 927.37109375 850.5 c 0,39,40
 945.719726562 954.928710938 945.719726562 954.928710938 945.719726562 1028.7421875 c 0,41,42
 945.719726562 1227.12109375 945.719726562 1227.12109375 828.37109375 1321 c 0,43,44
 776.37109375 1363 776.37109375 1363 709.37109375 1363 c 0,45,46
 595.37109375 1363 595.37109375 1363 484.37109375 1255.5 c 0,47,48
 277.692382812 1055.33789062 277.692382812 1055.33789062 196.37109375 590 c 0,49,50
 181.400390625 503.47265625 181.400390625 503.47265625 181.400390625 432.90234375 c 0,51,52
 181.400390625 267.766601562 181.400390625 267.766601562 257.385742188 195.3828125 c 128,-1,53
 333.37109375 123 333.37109375 123 429.37109375 123 c 128,-1,54
 525.37109375 123 525.37109375 123 606.37109375 157 c 128,-1,55
 687.37109375 191 687.37109375 191 809.37109375 279 c 1,56,-1
 840.37109375 143 l 1,57,58
 594.37109375 -27 594.37109375 -27 388.37109375 -27 c 0,59,60
 231.37109375 -27 231.37109375 -27 130.587890625 88.9794921875 c 128,-1,61
 29.8056640625 204.959960938 29.8056640625 204.959960938 29.8056640625 417.201171875 c 0,0,1
499.87109375 761.5 m 128,-1,63
 456.37109375 676 456.37109375 676 446.98046875 623.186523438 c 128,-1,64
 437.590820312 570.373046875 437.590820312 570.373046875 437.590820312 533.686523438 c 128,-1,65
 437.590820312 497 437.590820312 497 463.37109375 497 c 0,66,67
 478.37109375 497 478.37109375 497 507.87109375 522 c 128,-1,68
 537.37109375 547 537.37109375 547 556.37109375 587 c 128,-1,69
 575.37109375 627 575.37109375 627 621.37109375 771 c 2,70,-1
 664.37109375 905 l 1,71,72
 598.37109375 888 598.37109375 888 570.87109375 867.5 c 128,-1,62
 543.37109375 847 543.37109375 847 499.87109375 761.5 c 128,-1,63
EndSplineSet
EndChar

StartChar: A
Encoding: 65 65 34
Width: 1120
GlyphClass: 2
Flags: W
HStem: 0 21G<39 209.63 917.407 1081> 432 131<468 850>
VStem: 920 161<0 161>
DStem2: 39 0 200 0 0.450359 0.892847<72.5079 551.893> 840 1588 765 1165 0.150045 -0.988679<406.958 1014.9 1146.51 1248.87>
LayerCount: 2
Fore
SplineSet
39 0 m 1,0,-1
 840 1588 l 1,1,-1
 1081 0 l 1,2,-1
 920 0 l 1,3,-1
 864 432 l 1,4,-1
 408 432 l 1,5,-1
 200 0 l 1,6,-1
 39 0 l 1,0,-1
468 563 m 1,7,-1
 850 563 l 1,8,-1
 765 1165 l 1,9,-1
 468 563 l 1,7,-1
EndSplineSet
EndChar

StartChar: B
Encoding: 66 66 35
Width: 1120
GlyphClass: 2
Flags: W
HStem: 0 131<250.652 675.941> 699 131<373.652 716.096> 1344 131<464.652 834.7>
VStem: 830.729 155.554<287.939 600.666> 894.028 153.319<991.637 1287.66>
DStem2: 84.6523 56 250.652 131 0.173739 0.984792<102.7 679.436 812.439 1334.43>
LayerCount: 2
Fore
SplineSet
793.65234375 782 m 1,0,1
 986.283203125 690.666015625 986.283203125 690.666015625 986.283203125 481.758789062 c 0,2,3
 986.283203125 445.526367188 986.283203125 445.526367188 979.65234375 407 c 0,4,5
 939.65234375 178 939.65234375 178 742.65234375 62 c 0,6,7
 633.65234375 0 633.65234375 0 463.65234375 0 c 2,8,-1
 72.65234375 0 l 1,9,10
 74.65234375 11 74.65234375 11 84.65234375 56 c 1,11,-1
 157.65234375 428 l 1,12,-1
 266.65234375 1044 l 1,13,-1
 324.65234375 1419 l 2,14,15
 330.65234375 1464 330.65234375 1464 332.65234375 1475 c 1,16,-1
 606.65234375 1475 l 2,17,18
 741.65234375 1475 741.65234375 1475 808.65234375 1464 c 0,19,20
 951.65234375 1440 951.65234375 1440 1007.65234375 1335 c 0,21,22
 1047.34765625 1260.56933594 1047.34765625 1260.56933594 1047.34765625 1200.27246094 c 0,23,24
 1047.34765625 997.48046875 1047.34765625 997.48046875 915.65234375 871 c 0,25,26
 855.65234375 813 855.65234375 813 823.65234375 797 c 2,27,-1
 793.65234375 782 l 1,0,1
250.65234375 131 m 1,28,-1
 484.65234375 131 l 2,29,30
 572.65234375 131 572.65234375 131 638.15234375 156.5 c 128,-1,31
 703.65234375 182 703.65234375 182 756.65234375 245.5 c 0,32,33
 830.729492188 334.252929688 830.729492188 334.252929688 830.729492188 453.025390625 c 128,-1,34
 830.729492188 571.798828125 830.729492188 571.798828125 751.65234375 636 c 0,35,36
 705.65234375 675 705.65234375 675 662.15234375 687 c 128,-1,37
 618.65234375 699 618.65234375 699 530.65234375 699 c 2,38,-1
 350.65234375 699 l 1,39,-1
 250.65234375 131 l 1,28,-1
373.65234375 830 m 1,40,-1
 516.65234375 830 l 2,41,42
 628.65234375 830 628.65234375 830 716.65234375 875 c 0,43,44
 894.028320312 965.5234375 894.028320312 965.5234375 894.028320312 1161.84765625 c 0,45,46
 894.028320312 1263.52734375 894.028320312 1263.52734375 821.65234375 1311 c 0,47,48
 770.65234375 1344 770.65234375 1344 620.65234375 1344 c 2,49,-1
 464.65234375 1344 l 1,50,-1
 373.65234375 830 l 1,40,-1
EndSplineSet
EndChar

StartChar: C
Encoding: 67 67 36
Width: 1120
GlyphClass: 2
Flags: W
HStem: -27 139<331.243 632.355> 1363 140<543.779 841.264>
VStem: 77.1562 154.241<223.015 793.364> 892.397 150.446<1151 1312.01>
LayerCount: 2
Fore
SplineSet
231.397460938 446.872070312 m 0,0,1
 231.397460938 112 231.397460938 112 471.514648438 112 c 0,2,3
 548.514648438 112 548.514648438 112 615.014648438 146.5 c 128,-1,4
 681.514648438 181 681.514648438 181 713.014648438 229 c 128,-1,5
 744.514648438 277 744.514648438 277 770.514648438 363 c 1,6,-1
 916.514648438 363 l 1,7,8
 875.514648438 230 875.514648438 230 826.014648438 158 c 128,-1,9
 776.514648438 86 776.514648438 86 679.514648438 29.5 c 128,-1,10
 582.514648438 -27 582.514648438 -27 442.514648438 -27 c 0,11,12
 217.514648438 -27 217.514648438 -27 128.014648438 153.5 c 0,13,14
 77.15625 256.0703125 77.15625 256.0703125 77.15625 404.708007812 c 128,-1,15
 77.15625 553.345703125 77.15625 553.345703125 106.514648438 720 c 0,16,17
 191.514648438 1202 191.514648438 1202 403.514648438 1382 c 0,18,19
 545.514648438 1503 545.514648438 1503 719.014648438 1503 c 128,-1,20
 892.514648438 1503 892.514648438 1503 976.514648438 1397 c 0,21,22
 1042.84375 1314.7890625 1042.84375 1314.7890625 1042.84375 1209.01464844 c 0,23,24
 1042.84375 1200.93457031 1042.84375 1200.93457031 1039.51464844 1151 c 1,25,-1
 889.514648438 1151 l 1,26,27
 892.397460938 1176.1171875 892.397460938 1176.1171875 892.397460938 1200.85253906 c 128,-1,28
 892.397460938 1225.58789062 892.397460938 1225.58789062 886.514648438 1245 c 0,29,30
 851.514648438 1363 851.514648438 1363 701.514648438 1363 c 128,-1,31
 551.514648438 1363 551.514648438 1363 437.014648438 1223.5 c 128,-1,32
 322.514648438 1084 322.514648438 1084 260.014648438 728.5 c 0,33,34
 231.397460938 565.725585938 231.397460938 565.725585938 231.397460938 446.872070312 c 0,0,1
EndSplineSet
EndChar

StartChar: D
Encoding: 68 68 37
Width: 1120
GlyphClass: 2
Flags: W
HStem: 0 131<232.995 615.776> 1344 131<446.995 814.318>
VStem: 915.071 149.934<677.193 1247.59>
DStem2: 66.9951 56 232.995 131 0.173739 0.984792<102.7 1334.43>
LayerCount: 2
Fore
SplineSet
54.9951171875 0 m 1,0,1
 56.9951171875 11 56.9951171875 11 66.9951171875 56 c 1,2,-1
 140.995117188 429 l 1,3,-1
 248.995117188 1046 l 1,4,-1
 306.995117188 1419 l 2,5,6
 312.995117188 1464 312.995117188 1464 314.995117188 1475 c 1,7,-1
 649.995117188 1475 l 2,8,9
 788.995117188 1475 788.995117188 1475 864.995117188 1442 c 0,10,11
 1000.99511719 1382 1000.99511719 1382 1038.99511719 1244 c 0,12,13
 1065.00488281 1148.62988281 1065.00488281 1148.62988281 1065.00488281 1031.54296875 c 128,-1,14
 1065.00488281 914.455078125 1065.00488281 914.455078125 1040.99511719 777.5 c 0,15,16
 991.995117188 498 991.995117188 498 922.995117188 346.5 c 128,-1,17
 853.995117188 195 853.995117188 195 762.995117188 121.5 c 128,-1,18
 671.995117188 48 671.995117188 48 593.495117188 24 c 128,-1,19
 514.995117188 0 514.995117188 0 389.995117188 0 c 2,20,-1
 54.9951171875 0 l 1,0,1
232.995117188 131 m 1,21,-1
 402.995117188 131 l 2,22,23
 587.995117188 131 587.995117188 131 684.995117188 223 c 0,24,25
 752.995117188 287 752.995117188 287 798.995117188 406.5 c 128,-1,26
 844.995117188 526 844.995117188 526 880.033203125 725.923828125 c 128,-1,27
 915.071289062 925.84765625 915.071289062 925.84765625 915.071289062 1015.46582031 c 128,-1,28
 915.071289062 1105.08398438 915.071289062 1105.08398438 906.995117188 1156 c 0,29,30
 877.995117188 1344 877.995117188 1344 616.995117188 1344 c 2,31,-1
 446.995117188 1344 l 1,32,-1
 232.995117188 131 l 1,21,-1
EndSplineSet
EndChar

StartChar: E
Encoding: 69 69 38
Width: 1120
GlyphClass: 2
Flags: W
HStem: 0 131<225 827> 688 131<346 766> 1344 131<439 1050>
DStem2: 59 56 225 131 0.173739 0.984792<102.7 668.255 801.259 1334.43>
LayerCount: 2
Fore
SplineSet
47 0 m 1,0,1
 49 11 49 11 59 56 c 1,2,-1
 132 428 l 1,3,-1
 241 1044 l 1,4,-1
 299 1419 l 2,5,6
 305 1464 305 1464 307 1475 c 1,7,-1
 1073 1475 l 1,8,-1
 1050 1344 l 1,9,-1
 439 1344 l 1,10,-1
 346 819 l 1,11,-1
 789 819 l 1,12,-1
 766 688 l 1,13,-1
 323 688 l 1,14,-1
 225 131 l 1,15,-1
 850 131 l 1,16,-1
 827 0 l 1,17,-1
 47 0 l 1,0,1
EndSplineSet
EndChar

StartChar: F
Encoding: 70 70 39
Width: 1120
GlyphClass: 2
Flags: W
HStem: 0 21G<34 217> 701 131<336 794> 1344 131<426 1062>
DStem2: 120 429 266 429 0.164399 0.986394<-409.682 300.193 433.027 952.857>
LayerCount: 2
Fore
SplineSet
34 0 m 1,0,1
 36 11 36 11 46 55 c 1,2,-1
 120 429 l 1,3,-1
 228 1044 l 1,4,-1
 294 1475 l 1,5,-1
 1086 1475 l 1,6,-1
 1062 1344 l 1,7,-1
 426 1344 l 1,8,-1
 336 832 l 1,9,-1
 816 832 l 1,10,-1
 794 701 l 1,11,-1
 314 701 l 1,12,-1
 266 429 l 2,13,14
 232 235 232 235 202 0 c 1,15,-1
 34 0 l 1,0,1
EndSplineSet
EndChar

StartChar: G
Encoding: 71 71 40
Width: 1120
GlyphClass: 2
Flags: W
HStem: -27 139<330.829 629.158> 0 21G<754.408 903.946> 604 131<535.408 861.408> 1094 21G<872.408 1033.51> 1364 139<547.95 830.633>
VStem: 82.9834 157.805<213.156 766.83> 884.408 152.608<1094 1309.72>
DStem2: 754.408 0 900.408 0 0.174167 0.984716<25.4284 123.967 280.526 613.404>
LayerCount: 2
Fore
SplineSet
240.788085938 430.665039062 m 0,0,1
 240.788085938 112 240.788085938 112 471.408203125 112 c 0,2,3
 643.408203125 112 643.408203125 112 754.408203125 277 c 0,4,5
 792.408203125 333 792.408203125 333 814.408203125 402 c 128,-1,6
 836.408203125 471 836.408203125 471 861.408203125 604 c 1,7,-1
 512.408203125 604 l 1,8,-1
 535.408203125 735 l 1,9,-1
 1030.40820312 735 l 1,10,-1
 900.408203125 0 l 1,11,-1
 754.408203125 0 l 1,12,-1
 776.408203125 122 l 1,13,-1
 762.408203125 109 l 1,14,15
 700.408203125 46 700.408203125 46 610.908203125 9.5 c 128,-1,16
 521.408203125 -27 521.408203125 -27 432.408203125 -27 c 0,17,18
 286.408203125 -27 286.408203125 -27 196.408203125 58.5 c 0,19,20
 82.9833984375 166.252929688 82.9833984375 166.252929688 82.9833984375 380.7109375 c 0,21,22
 82.9833984375 516.662109375 82.9833984375 516.662109375 127.1953125 766.331054688 c 128,-1,23
 171.408203125 1016 171.408203125 1016 254.408203125 1177 c 0,24,25
 421.408203125 1503 421.408203125 1503 726.408203125 1503 c 0,26,27
 892.408203125 1503 892.408203125 1503 964.711914062 1402.24023438 c 128,-1,28
 1037.01660156 1301.48046875 1037.01660156 1301.48046875 1037.01660156 1177.96777344 c 1,29,-1
 1032.40820312 1094 l 1,30,-1
 872.408203125 1094 l 1,31,32
 884.408203125 1164 884.408203125 1164 884.408203125 1190 c 0,33,34
 884.408203125 1272 884.408203125 1272 833.408203125 1318 c 128,-1,35
 782.408203125 1364 782.408203125 1364 690.408203125 1364 c 128,-1,36
 598.408203125 1364 598.408203125 1364 510.908203125 1293.5 c 128,-1,37
 423.408203125 1223 423.408203125 1223 366.908203125 1085.5 c 128,-1,38
 310.408203125 948 310.408203125 948 275.59765625 748.84375 c 128,-1,39
 240.788085938 549.686523438 240.788085938 549.686523438 240.788085938 430.665039062 c 0,0,1
EndSplineSet
EndChar

StartChar: H
Encoding: 72 72 41
Width: 1120
GlyphClass: 2
Flags: W
HStem: 0 21G<20 203 672 842> 696 131<322 806> 1455 20G<276.952 448 918 1100>
DStem2: 106 429 252 429 0.183035 0.983106<20.5589 297.632 430.812 649.135> 672 0 840 0 0.173595 0.984817<29.1639 708.694 841.872 1497.74>
LayerCount: 2
Fore
SplineSet
20 0 m 1,0,1
 22 11 22 11 32 55 c 1,2,-1
 106 429 l 1,3,-1
 214 1042 l 1,4,-1
 280 1475 l 1,5,-1
 448 1475 l 1,6,7
 392 1227 392 1227 360 1042 c 2,8,-1
 322 827 l 1,9,-1
 830 827 l 1,10,-1
 868 1042 l 2,11,12
 904 1241 904 1241 932 1475 c 1,13,-1
 1100 1475 l 1,14,15
 1098 1457 1098 1457 1088 1420 c 1,16,-1
 1014 1042 l 1,17,-1
 906 429 l 1,18,-1
 848 55 l 1,19,20
 844 18 844 18 840 0 c 1,21,-1
 672 0 l 1,22,23
 728 243 728 243 760 429 c 2,24,-1
 806 696 l 1,25,-1
 298 696 l 1,26,-1
 252 429 l 2,27,28
 218 235 218 235 188 0 c 1,29,-1
 20 0 l 1,0,1
EndSplineSet
EndChar

StartChar: I
Encoding: 73 73 42
Width: 1120
GlyphClass: 2
Flags: W
HStem: 0 131<176 376 536 706> 1344 131<414 590 750 944>
DStem2: 376 131 536 131 0.180779 0.983524<28.9246 929.312 955.705 1231.7>
LayerCount: 2
Fore
SplineSet
154 0 m 1,0,-1
 176 131 l 1,1,-1
 376 131 l 1,2,-1
 436 430 l 1,3,-1
 544 1045 l 1,4,-1
 590 1344 l 1,5,-1
 390 1344 l 1,6,-1
 414 1475 l 1,7,-1
 966 1475 l 1,8,-1
 944 1344 l 1,9,-1
 750 1344 l 1,10,-1
 690 1045 l 1,11,-1
 582 430 l 1,12,-1
 536 131 l 1,13,-1
 730 131 l 1,14,-1
 706 0 l 1,15,-1
 154 0 l 1,0,-1
EndSplineSet
EndChar

StartChar: J
Encoding: 74 74 43
Width: 1120
GlyphClass: 2
Flags: W
HStem: -27 139<264.231 558.916> 1344 131<628.933 874.933>
VStem: 59.0674 147.386<168.759 409.782>
DStem2: 67.9326 361 212.933 357 0.130267 0.991479<-63.1888 276.355> 727.933 479 829.933 286 0.190715 0.981645<-280.144 578.279>
LayerCount: 2
Fore
SplineSet
59.0673828125 267.532226562 m 0,0,1
 59.0673828125 311.407226562 59.0673828125 311.407226562 67.9326171875 361 c 2,2,-1
 79.9326171875 432 l 1,3,-1
 103.932617188 635 l 1,4,-1
 273.932617188 635 l 1,5,6
 232.932617188 470 232.932617188 470 225.932617188 432 c 2,7,-1
 212.932617188 357 l 2,8,9
 206.453125 320.280273438 206.453125 320.280273438 206.453125 277.740234375 c 128,-1,10
 206.453125 235.200195312 206.453125 235.200195312 226.932617188 200 c 0,11,12
 277.932617188 112 277.932617188 112 401.932617188 112 c 0,13,14
 478.932617188 112 478.932617188 112 549.932617188 151 c 0,15,16
 658.932617188 211 658.932617188 211 691.932617188 318 c 0,17,18
 700.932617188 348 700.932617188 348 727.932617188 479 c 1,19,-1
 734.932617188 504 l 1,20,-1
 829.932617188 1046 l 2,21,22
 842.932617188 1115 842.932617188 1115 874.932617188 1344 c 1,23,-1
 605.932617188 1344 l 1,24,-1
 628.932617188 1475 l 1,25,-1
 1060.93261719 1475 l 1,26,-1
 974.932617188 1046 l 1,27,-1
 879.932617188 504 l 1,28,-1
 871.932617188 471 l 1,29,30
 838.932617188 318 838.932617188 318 829.932617188 286 c 128,-1,31
 820.932617188 254 820.932617188 254 798.932617188 215 c 0,32,33
 740.932617188 109 740.932617188 109 635.932617188 44 c 0,34,35
 516.932617188 -27 516.932617188 -27 359.932617188 -27 c 128,-1,36
 202.932617188 -27 202.932617188 -27 119.432617188 77.5 c 0,37,38
 59.0673828125 153.047851562 59.0673828125 153.047851562 59.0673828125 267.532226562 c 0,0,1
EndSplineSet
EndChar

StartChar: K
Encoding: 75 75 44
Width: 1120
GlyphClass: 2
Flags: W
HStem: 0 21G<27 195.857 745.312 960> 1455 20G<285 453 920.5 993.065>
VStem: 758 202<0 202>
DStem2: 27 0 193 0 0.174181 0.984714<28.9141 729.67 865.802 1497.74> 465 743 319 692 0.554442 -0.832223<0 780.793>
LayerCount: 2
Fore
SplineSet
27 0 m 1,0,1
 31 21 31 21 38 56 c 2,2,-1
 113 430 l 1,3,-1
 221 1045 l 1,4,-1
 278 1419 l 2,5,6
 283 1453 283 1453 287 1475 c 1,7,-1
 453 1475 l 1,8,-1
 366 1045 l 1,9,-1
 328 826 l 1,10,-1
 347 829 l 2,11,12
 419 840 419 840 538 948 c 128,-1,13
 657 1056 657 1056 770 1205.5 c 128,-1,14
 883 1355 883 1355 958 1491 c 1,15,-1
 1093 1414 l 1,16,17
 1052 1355 1052 1355 901.5 1167 c 128,-1,18
 751 979 751 979 667 898 c 128,-1,19
 583 817 583 817 465 743 c 1,20,-1
 960 0 l 1,21,-1
 758 0 l 1,22,-1
 319 692 l 1,23,-1
 304 692 l 1,24,-1
 258 430 l 1,25,-1
 201 56 l 1,26,-1
 193 0 l 1,27,-1
 27 0 l 1,0,1
EndSplineSet
EndChar

StartChar: L
Encoding: 76 76 45
Width: 1120
GlyphClass: 2
Flags: W
HStem: 0 131<340 945> 1455 20G<411 577>
DStem2: 346 1045 491 1045 0.17366 0.984806<-901.154 434.928>
LayerCount: 2
Fore
SplineSet
152 0 m 1,0,1
 154 11 154 11 164 56 c 1,2,-1
 237 428 l 1,3,-1
 346 1045 l 1,4,-1
 404 1420 l 2,5,6
 410 1464 410 1464 412 1475 c 1,7,-1
 577 1475 l 1,8,9
 574 1456 574 1456 565 1420 c 1,10,-1
 491 1045 l 1,11,-1
 382 428 l 1,12,-1
 340 131 l 1,13,-1
 968 131 l 1,14,-1
 945 0 l 1,15,-1
 152 0 l 1,0,1
EndSplineSet
EndChar

StartChar: M
Encoding: 77 77 46
Width: 1120
GlyphClass: 2
Flags: W
HStem: 0 21G<-24 156 726 897.07> 1455 20G<242.478 400.595 980.486 1144>
DStem2: 62 430 206 430 0.164257 0.986418<-411.019 733.527> 396 1475 330 1129 0.223898 -0.974613<322.439 759.276> 566 735 506 404 0.498911 0.866653<0 527.056> 814 430 960 430 0.167108 0.985939<-410.585 709.892>
LayerCount: 2
Fore
SplineSet
-24 0 m 1,0,1
 -22 11 -22 11 -12 55 c 1,2,-1
 62 430 l 1,3,-1
 246 1475 l 1,4,-1
 396 1475 l 1,5,-1
 566 735 l 1,6,-1
 992 1475 l 1,7,-1
 1144 1475 l 1,8,-1
 960 430 l 1,9,-1
 894 0 l 1,10,-1
 726 0 l 1,11,12
 784 259 784 259 814 430 c 2,13,-1
 938 1129 l 1,14,-1
 506 404 l 1,15,-1
 330 1129 l 1,16,-1
 206 430 l 1,17,18
 170 235 170 235 142 0 c 1,19,-1
 -24 0 l 1,0,1
EndSplineSet
EndChar

StartChar: N
Encoding: 78 78 47
Width: 1120
GlyphClass: 2
Flags: W
HStem: 0 21G<36 218 667.435 813.519> 1455 20G<302.478 484.531 914.5 1084>
DStem2: 122 430 267 430 0.163587 0.986529<-410.957 787.183> 480 1475 399 1182 0.222537 -0.974924<267.627 1136.07> 731 367 810 -14 0.164688 0.986346<0 1123.34>
LayerCount: 2
Fore
SplineSet
36 0 m 1,0,1
 38 11 38 11 48 55 c 1,2,-1
 122 430 l 1,3,-1
 306 1475 l 1,4,-1
 480 1475 l 1,5,-1
 731 367 l 1,6,-1
 850 1043 l 1,7,-1
 908 1420 l 2,8,9
 913 1457 913 1457 916 1475 c 1,10,-1
 1084 1475 l 1,11,-1
 996 1043 l 1,12,-1
 810 -14 l 1,13,-1
 672 -14 l 1,14,-1
 399 1182 l 1,15,-1
 267 430 l 2,16,17
 233 235 233 235 203 0 c 1,18,-1
 36 0 l 1,0,1
EndSplineSet
EndChar

StartChar: O
Encoding: 79 79 48
Width: 1120
GlyphClass: 2
Flags: W
HStem: -27 139<317.594 598.171> 1364 139<520.017 802.722>
VStem: 69.7158 154.547<212.25 772.132> 894.162 156.122<702.039 1261.34>
LayerCount: 2
Fore
SplineSet
115.489257812 780.6015625 m 128,-1,1
 161.262695312 1039 161.262695312 1039 235.262695312 1187 c 128,-1,2
 309.262695312 1335 309.262695312 1335 428.762695312 1419 c 128,-1,3
 548.262695312 1503 548.262695312 1503 700.262695312 1503 c 0,4,5
 802.262695312 1503 802.262695312 1503 883.262695312 1455 c 0,6,7
 1050.28417969 1355.390625 1050.28417969 1355.390625 1050.28417969 1091.15527344 c 0,8,9
 1050.28417969 955.42578125 1050.28417969 955.42578125 1004.7734375 696.212890625 c 128,-1,10
 959.262695312 437 959.262695312 437 884.762695312 288.5 c 128,-1,11
 810.262695312 140 810.262695312 140 690.762695312 56.5 c 128,-1,12
 571.262695312 -27 571.262695312 -27 424.262695312 -27 c 0,13,14
 205.262695312 -27 205.262695312 -27 114.262695312 154 c 0,15,16
 69.7158203125 245.166015625 69.7158203125 245.166015625 69.7158203125 383.684570312 c 128,-1,0
 69.7158203125 522.203125 69.7158203125 522.203125 115.489257812 780.6015625 c 128,-1,1
224.262695312 421.5 m 128,-1,18
 224.262695312 304 224.262695312 304 257.262695312 234 c 0,19,20
 316.262695312 112 316.262695312 112 454.262695312 112 c 128,-1,21
 592.262695312 112 592.262695312 112 697.262695312 250 c 0,22,23
 751.262695312 321 751.262695312 321 789.262695312 435.5 c 128,-1,24
 827.262695312 550 827.262695312 550 860.712890625 740.572265625 c 128,-1,25
 894.162109375 931.14453125 894.162109375 931.14453125 894.162109375 1052.84375 c 128,-1,26
 894.162109375 1174.54199219 894.162109375 1174.54199219 864.762695312 1236.5 c 0,27,28
 804.262695312 1364 804.262695312 1364 665.762695312 1364 c 128,-1,29
 527.262695312 1364 527.262695312 1364 424.262695312 1228.5 c 128,-1,30
 321.262695312 1093 321.262695312 1093 259.262695312 739 c 0,31,17
 224.262695312 539 224.262695312 539 224.262695312 421.5 c 128,-1,18
EndSplineSet
EndChar

StartChar: P
Encoding: 80 80 49
Width: 1120
GlyphClass: 2
Flags: W
HStem: 0 21G<76.6113 258.111> 578 129<356.611 702.059> 1344 131<468.611 819.603>
VStem: 889.007 154.382<904.875 1270.23>
DStem2: 162.611 431 307.611 431 0.165113 0.986275<-411.71 173.217 304.244 950.993>
LayerCount: 2
Fore
SplineSet
76.611328125 0 m 1,0,1
 78.611328125 11 78.611328125 11 88.611328125 55 c 1,2,-1
 162.611328125 431 l 1,3,-1
 270.611328125 1044 l 1,4,-1
 336.611328125 1475 l 1,5,-1
 649.611328125 1475 l 2,6,7
 819.611328125 1475 819.611328125 1475 910.111328125 1423.5 c 0,8,9
 1043.38867188 1347.65722656 1043.38867188 1347.65722656 1043.38867188 1135.12304688 c 0,10,11
 1043.38867188 1081.88867188 1043.38867188 1081.88867188 1033.61132812 1025 c 0,12,13
 980.611328125 726 980.611328125 726 724.611328125 622 c 0,14,15
 659.611328125 596 659.611328125 596 599.111328125 587 c 128,-1,16
 538.611328125 578 538.611328125 578 423.611328125 578 c 2,17,-1
 333.611328125 578 l 1,18,-1
 307.611328125 431 l 2,19,20
 272.611328125 235 272.611328125 235 243.611328125 0 c 1,21,-1
 76.611328125 0 l 1,0,1
356.611328125 707 m 1,22,-1
 475.611328125 707 l 2,23,24
 618.611328125 707 618.611328125 707 692.611328125 745 c 0,25,26
 845.611328125 824 845.611328125 824 880.611328125 1022 c 0,27,28
 889.006835938 1069.72070312 889.006835938 1069.72070312 889.006835938 1117.53515625 c 128,-1,29
 889.006835938 1165.34863281 889.006835938 1165.34863281 875.611328125 1210 c 0,30,31
 841.611328125 1324 841.611328125 1324 722.611328125 1340 c 0,32,33
 688.611328125 1344 688.611328125 1344 593.611328125 1344 c 2,34,-1
 468.611328125 1344 l 1,35,-1
 356.611328125 707 l 1,22,-1
EndSplineSet
EndChar

StartChar: Q
Encoding: 81 81 50
Width: 1120
GlyphClass: 2
Flags: W
HStem: -27 139<318.417 598.878> 1364 139<520.577 803.616>
VStem: 69.917 154.083<215.997 782.353> 896.507 153.576<695.307 1262.24>
LayerCount: 2
Fore
SplineSet
114.958007812 782.479492188 m 128,-1,1
 160 1040 160 1040 235 1188 c 128,-1,2
 310 1336 310 1336 429 1419.5 c 128,-1,3
 548 1503 548 1503 674 1503 c 0,4,5
 916 1503 916 1503 1006 1321 c 0,6,7
 1050.08300781 1227.58496094 1050.08300781 1227.58496094 1050.08300781 1088.35546875 c 128,-1,8
 1050.08300781 949.125 1050.08300781 949.125 1005.04199219 693.5625 c 128,-1,9
 960 438 960 438 896 312 c 128,-1,10
 832 186 832 186 758 112 c 1,11,-1
 898 -121 l 1,12,-1
 714 -121 l 1,13,-1
 634 24 l 1,14,15
 534 -27 534 -27 426 -27 c 0,16,17
 204 -27 204 -27 114 154 c 0,18,19
 69.9169921875 246.365234375 69.9169921875 246.365234375 69.9169921875 385.662109375 c 128,-1,0
 69.9169921875 524.958007812 69.9169921875 524.958007812 114.958007812 782.479492188 c 128,-1,1
224 421.5 m 128,-1,21
 224 304 224 304 258 234 c 0,22,23
 318 112 318 112 455 112 c 128,-1,24
 592 112 592 112 695 247 c 128,-1,25
 798 382 798 382 862 741 c 0,26,27
 896.506835938 934.239257812 896.506835938 934.239257812 896.506835938 1052.06542969 c 128,-1,28
 896.506835938 1169.890625 896.506835938 1169.890625 864 1241 c 0,29,30
 805 1364 805 1364 666.5 1364 c 128,-1,31
 528 1364 528 1364 425 1228 c 128,-1,32
 322 1092 322 1092 260 739 c 0,33,20
 224 539 224 539 224 421.5 c 128,-1,21
EndSplineSet
EndChar

StartChar: R
Encoding: 82 82 51
Width: 1120
GlyphClass: 2
Flags: W
HStem: 0 21G<69.0332 238.024 797.994 987.033> 608 131<354.033 558.406> 1344 131<461.033 829.885>
VStem: 899.844 151.123<943.289 1275.82>
DStem2: 80.0332 56 235.033 0 0.174181 0.984714<-28.1459 587.281 720.285 1334.67> 708.033 643 560.033 612 0.398048 -0.917365<-2.45356 628.874>
LayerCount: 2
Fore
SplineSet
69.033203125 0 m 1,0,1
 73.033203125 21 73.033203125 21 80.033203125 56 c 2,2,-1
 154.033203125 428 l 1,3,-1
 263.033203125 1041 l 1,4,-1
 320.033203125 1419 l 2,5,6
 325.033203125 1453 325.033203125 1453 329.033203125 1475 c 1,7,-1
 679.033203125 1475 l 2,8,9
 982.405273438 1475 982.405273438 1475 1035.53320312 1267.5 c 0,10,11
 1050.96679688 1207.21972656 1050.96679688 1207.21972656 1050.96679688 1153.86816406 c 0,12,13
 1050.96679688 934.6875 1050.96679688 934.6875 913.033203125 779 c 0,14,15
 855.033203125 714 855.033203125 714 708.033203125 643 c 1,16,-1
 987.033203125 0 l 1,17,-1
 806.033203125 0 l 1,18,-1
 560.033203125 612 l 1,19,20
 508.033203125 608 508.033203125 608 447.033203125 608 c 2,21,-1
 331.033203125 608 l 1,22,-1
 299.033203125 428 l 1,23,-1
 235.033203125 0 l 1,24,-1
 69.033203125 0 l 1,0,1
354.033203125 739 m 1,25,-1
 528.033203125 739 l 2,26,27
 643.033203125 739 643.033203125 739 714.033203125 782 c 0,28,29
 858.033203125 870 858.033203125 870 892.033203125 1061 c 0,30,31
 899.84375 1104.87792969 899.84375 1104.87792969 899.84375 1141.84277344 c 0,32,33
 899.84375 1265.78417969 899.84375 1265.78417969 812.033203125 1312 c 0,34,35
 751.033203125 1344 751.033203125 1344 585.033203125 1344 c 2,36,-1
 461.033203125 1344 l 1,37,-1
 354.033203125 739 l 1,25,-1
EndSplineSet
EndChar

StartChar: S
Encoding: 83 83 52
Width: 1120
GlyphClass: 2
Flags: W
HStem: -27 139<303.849 628.949> 1364 139<533.731 843.059>
VStem: 252.732 154.018<984.155 1243.37> 796.918 156.774<273.771 557.355>
DStem2: 554 893 442 780 0.835289 -0.549811<-187.497 409.96> 1018 1386 902 1279 0.738485 -0.674269<-179.083 89.132>
LayerCount: 2
Fore
SplineSet
34 221 m 1,0,-1
 166 313 l 1,1,2
 202 246 202 246 232 214 c 0,3,4
 329 112 329 112 456.5 112 c 128,-1,5
 584 112 584 112 678 189 c 0,6,7
 796.918032787 286.411580049 796.918032787 286.411580049 796.918032787 438.328675087 c 0,8,9
 796.918032787 501.819672131 796.918032787 501.819672131 761.459016393 547.409836066 c 128,-1,10
 726 593 726 593 600 676 c 2,11,-1
 442 780 l 2,12,13
 252.731707317 905.081654295 252.731707317 905.081654295 252.731707317 1079.03747769 c 0,14,15
 252.731707317 1268.95734176 252.731707317 1268.95734176 408.5 1399.5 c 0,16,17
 532 1503 532 1503 699 1503 c 128,-1,18
 866 1503 866 1503 1018 1386 c 0,19,20
 1038 1370 1038 1370 1086 1318 c 1,21,-1
 978 1210 l 1,22,23
 928 1258 928 1258 902 1279 c 0,24,25
 799 1364 799 1364 693.5 1364 c 128,-1,26
 588 1364 588 1364 508 1302 c 0,27,28
 406.75 1223.53125 406.75 1223.53125 406.75 1099.71875 c 0,29,30
 406.75 989.474137931 406.75 989.474137931 554 893 c 2,31,-1
 700 798 l 2,32,33
 842 705 842 705 896 637.5 c 0,34,35
 953.692307692 565.384615385 953.692307692 565.384615385 953.692307692 479.106508876 c 0,36,37
 953.692307692 261.373626374 953.692307692 261.373626374 809.346153846 117.186813187 c 128,-1,38
 665 -27 665 -27 445.5 -27 c 128,-1,39
 226 -27 226 -27 98 129 c 0,40,41
 74 157 74 157 34 221 c 1,0,-1
EndSplineSet
EndChar

StartChar: T
Encoding: 84 84 53
Width: 1120
GlyphClass: 2
Flags: W
HStem: 0 21G<230 399.857> 1344 131<79 478 623 1041>
DStem2: 230 0 405 56 0.18146 0.983398<30.3039 463.977>
LayerCount: 2
Fore
SplineSet
56 1344 m 1,0,-1
 79 1475 l 1,1,-1
 1064 1475 l 1,2,-1
 1041 1344 l 1,3,-1
 623 1344 l 1,4,-1
 462 429 l 1,5,-1
 405 56 l 1,6,-1
 397 0 l 1,7,-1
 230 0 l 1,8,-1
 317 429 l 1,9,-1
 478 1344 l 1,10,-1
 56 1344 l 1,0,-1
EndSplineSet
EndChar

StartChar: U
Encoding: 85 85 54
Width: 1120
GlyphClass: 2
Flags: W
HStem: -27 139<280.817 557.675> 1455 20G<241.038 409.038 876.538 1059.04>
VStem: 60.9619 142.576<187.474 629.734> 892.038 167<1402.81 1475>
DStem2: 81.0381 502 216.038 434 0.184837 0.982769<-145.505 985.993> 733.038 502 878.038 502 0.182885 0.983134<-283.828 977.858>
LayerCount: 2
Fore
SplineSet
60.9619140625 313.859375 m 0,0,1
 60.9619140625 387.8203125 60.9619140625 387.8203125 81.0380859375 502 c 2,2,-1
 177.038085938 1047 l 1,3,-1
 234.038085938 1420 l 2,4,5
 240.038085938 1464 240.038085938 1464 242.038085938 1475 c 1,6,-1
 409.038085938 1475 l 1,7,8
 353.038085938 1224 353.038085938 1224 322.038085938 1047 c 2,9,-1
 226.038085938 502 l 1,10,-1
 216.038085938 434 l 2,11,12
 203.538085938 350.666992188 203.538085938 350.666992188 203.538085938 330.25 c 0,13,14
 203.538085938 220.823242188 203.538085938 220.823242188 268.288085938 166.412109375 c 128,-1,15
 333.038085938 112 333.038085938 112 424.038085938 112 c 128,-1,16
 515.038085938 112 515.038085938 112 599.538085938 189.5 c 128,-1,17
 684.038085938 267 684.038085938 267 709.038085938 388 c 2,18,-1
 733.038085938 502 l 1,19,-1
 829.038085938 1047 l 2,20,21
 861.038085938 1226 861.038085938 1226 892.038085938 1475 c 1,22,-1
 1059.03808594 1475 l 1,23,-1
 974.038085938 1047 l 1,24,-1
 878.038085938 502 l 2,25,26
 841.038085938 293 841.038085938 293 768.038085938 187.5 c 128,-1,27
 695.038085938 82 695.038085938 82 585.538085938 27.5 c 128,-1,28
 476.038085938 -27 476.038085938 -27 386.038085938 -27 c 0,29,30
 254.038085938 -27 254.038085938 -27 157.5 64.306640625 c 128,-1,31
 60.9619140625 155.61328125 60.9619140625 155.61328125 60.9619140625 313.859375 c 0,0,1
EndSplineSet
EndChar

StartChar: V
Encoding: 86 86 55
Width: 1120
GlyphClass: 2
Flags: W
HStem: -14 21G<193.276 591.016> 1455 20G<124 289.777 822.197 996>
VStem: 155.5 133.5<1106.07 1465.53> 180 158<214 582.933>
DStem2: 338 214 402 -14 0.36348 0.931602<0 1353.58>
LayerCount: 2
Fore
SplineSet
124 1475 m 1,0,-1
 289 1475 l 1,1,-1
 338 214 l 1,2,-1
 830 1475 l 1,3,-1
 996 1475 l 1,4,5
 780.031327288 973.759274526 780.031327288 973.759274526 402 -14 c 1,6,-1
 194 -14 l 1,7,-1
 180 373 l 2,8,9
 164 838 164 838 155.5 1004.5 c 128,-1,10
 147 1171 147 1171 124 1475 c 1,0,-1
EndSplineSet
EndChar

StartChar: W
Encoding: 87 87 56
Width: 1120
GlyphClass: 2
Flags: W
HStem: -14 21G<9 189.399 559.627 805.179> 1455 20G<146 322 917.5 1111>
VStem: 155 167<1165.39 1475>
DStem2: 49 289.5 192 312 0.110155 0.993914<38.1153 963.634> 192 312 180 -14 0.442864 0.896589<0 419.357> 665 312 485 635 0.141235 -0.989976<-345.185 0> 665 312 733 -14 0.24869 0.968583<0 446.53 802.203 1196.1>
LayerCount: 2
Fore
SplineSet
9 -14 m 1,0,1
 42 231 42 231 49 289.5 c 128,-1,2
 56 348 56 348 96.5 775.5 c 128,-1,3
 137 1203 137 1203 155 1475 c 1,4,-1
 322 1475 l 1,5,6
 264 1107 264 1107 231 744 c 2,7,-1
 192 312 l 1,8,-1
 559 1055 l 1,9,-1
 665 312 l 1,10,-1
 778 744 l 2,11,12
 839 976 839 976 864.5 1089 c 128,-1,13
 890 1202 890 1202 945 1475 c 1,14,-1
 1111 1475 l 1,15,16
 877.357425536 652.450114559 877.357425536 652.450114559 733 -14 c 1,17,-1
 562 -14 l 1,18,-1
 485 635 l 1,19,-1
 180 -14 l 1,20,-1
 9 -14 l 1,0,1
EndSplineSet
EndChar

StartChar: X
Encoding: 88 88 57
Width: 1120
GlyphClass: 2
Flags: W
HStem: 0 21G<-2 254.5 664 873> 1455 20G<268 470 862 1122>
VStem: -2 173<0 173> 949 173<1302 1475>
DStem2: -2 0 171 0 0.54188 0.840456<93.7453 793.77 1076.31 1755> 593 897 493 743 0.280475 -0.959861<-10.7008 0 275.013 890.726>
LayerCount: 2
Fore
SplineSet
-2 0 m 1,0,-1
 493 743 l 1,1,2
 402 1051 402 1051 268 1475 c 1,3,-1
 441 1475 l 1,4,5
 499 1227 499 1227 593 897 c 1,6,7
 775 1182 775 1182 949 1475 c 1,8,-1
 1122 1475 l 1,9,-1
 643 748 l 1,10,11
 749 382 749 382 873 0 c 1,12,-1
 699 0 l 1,13,14
 629 295 629 295 540 595 c 1,15,16
 338 281 338 281 171 0 c 1,17,-1
 -2 0 l 1,0,-1
EndSplineSet
EndChar

StartChar: Y
Encoding: 89 89 58
Width: 1120
GlyphClass: 2
Flags: W
HStem: 0 21G<216 386.857> 1455 20G<106 315 738.5 1014>
VStem: 848 166<1309 1475>
DStem2: 271 1475 116 1437 0.261966 -0.965077<0 694.031> 266 246 392 56 0.190364 0.981714<-219.039 187.679 215.472 467.653> 441 802 483 624 0.526184 0.850371<0 786.456>
LayerCount: 2
Fore
SplineSet
106 1475 m 1,0,-1
 271 1475 l 1,1,2
 359 1100 359 1100 441 802 c 1,3,4
 629 1100 629 1100 848 1475 c 1,5,-1
 1014 1475 l 1,6,7
 728 1025 728 1025 483 624 c 1,8,-1
 449 430 l 1,9,-1
 392 56 l 1,10,-1
 384 0 l 1,11,-1
 216 0 l 1,12,13
 225 43 225 43 266 246 c 2,14,-1
 303 430 l 1,15,-1
 337 624 l 1,16,17
 256 940 256 940 116 1437 c 1,18,-1
 106 1475 l 1,0,-1
EndSplineSet
EndChar

StartChar: Z
Encoding: 90 90 59
Width: 1120
GlyphClass: 2
Flags: W
HStem: 0 131<240 874> 1344 131<318 890>
DStem2: 54 111 240 131 0.552982 0.833193<119.519 464.856>
LayerCount: 2
Fore
SplineSet
34 0 m 1,0,-1
 54 111 l 1,1,2
 322 478 322 478 890 1344 c 1,3,-1
 294 1344 l 1,4,-1
 318 1475 l 1,5,-1
 1086 1475 l 1,6,-1
 1066 1365 l 1,7,8
 706 841 706 841 240 131 c 1,9,-1
 898 131 l 1,10,-1
 874 0 l 1,11,-1
 34 0 l 1,0,-1
EndSplineSet
EndChar

StartChar: bracketleft
Encoding: 91 91 60
Width: 1120
GlyphClass: 2
Flags: W
HStem: -49 131<290 720> 1393 131<522 975>
DStem2: 122 -49 290 82 0.174035 0.984739<158.239 1489.61>
LayerCount: 2
Fore
SplineSet
122 -49 m 1,0,-1
 400 1524 l 1,1,-1
 998 1524 l 1,2,-1
 975 1393 l 1,3,-1
 522 1393 l 1,4,-1
 290 82 l 1,5,-1
 743 82 l 1,6,-1
 720 -49 l 1,7,-1
 122 -49 l 1,0,-1
EndSplineSet
EndChar

StartChar: backslash
Encoding: 92 92 61
Width: 1120
GlyphClass: 2
Flags: W
VStem: 314 150<1378 1528> 657 149<-53 96>
DStem2: 464 1528 314 1528 0.212019 -0.977266<0 1585.98>
LayerCount: 2
Fore
SplineSet
314 1528 m 1,0,-1
 464 1528 l 1,1,-1
 806 -53 l 1,2,-1
 657 -53 l 1,3,-1
 314 1528 l 1,0,-1
EndSplineSet
EndChar

StartChar: bracketright
Encoding: 93 93 62
Width: 1120
GlyphClass: 2
Flags: W
HStem: -49 131<145 598> 1393 131<400 830>
DStem2: 598 82 720 -49 0.174035 0.984739<0 1331.37>
LayerCount: 2
Fore
SplineSet
122 -49 m 1,0,-1
 145 82 l 1,1,-1
 598 82 l 1,2,-1
 830 1393 l 1,3,-1
 377 1393 l 1,4,-1
 400 1524 l 1,5,-1
 998 1524 l 1,6,-1
 720 -49 l 1,7,-1
 122 -49 l 1,0,-1
EndSplineSet
EndChar

StartChar: asciicircum
Encoding: 94 94 63
Width: 1120
GlyphClass: 2
Flags: W
HStem: 1455 20G<594.72 789.186>
VStem: 756.5 207<711 918>
DStem2: 156.5 711 364.5 711 0.507513 0.861644<105.563 673.625> 784.5 1475 648.5 1203 0.228116 -0.973634<233.805 737.469>
LayerCount: 2
Fore
SplineSet
156.5 711 m 1,0,-1
 606.5 1475 l 1,1,-1
 784.5 1475 l 1,2,-1
 963.5 711 l 1,3,-1
 756.5 711 l 1,4,-1
 648.5 1203 l 1,5,-1
 364.5 711 l 1,6,-1
 156.5 711 l 1,0,-1
EndSplineSet
EndChar

StartChar: underscore
Encoding: 95 95 64
Width: 1120
GlyphClass: 2
Flags: W
HStem: -283 143<46 1074>
LayerCount: 2
Fore
SplineSet
20 -283 m 1,0,-1
 46 -140 l 1,1,-1
 1100 -140 l 1,2,-1
 1074 -283 l 1,3,-1
 20 -283 l 1,0,-1
EndSplineSet
EndChar

StartChar: grave
Encoding: 96 96 65
Width: 1120
GlyphClass: 2
Flags: W
HStem: 1189 388
VStem: 338 444
LayerCount: 2
Fore
SplineSet
338 1451 m 1,0,-1
 472 1577 l 1,1,-1
 782 1289 l 1,2,-1
 688 1189 l 1,3,-1
 338 1451 l 1,0,-1
EndSplineSet
EndChar

StartChar: a
Encoding: 97 97 66
Width: 1120
GlyphClass: 2
Flags: W
HStem: -27 139<330.518 604.586> 950 139<476.242 776.704>
VStem: 78.5098 155.513<221.283 652.625> 723.49 146.958<-12.2868 102>
LayerCount: 2
Fore
SplineSet
78.509765625 382.884765625 m 0,0,1
 78.509765625 451.34375 78.509765625 451.34375 91.990234375 530 c 0,2,3
 140.490234375 813 140.490234375 813 337.490234375 975 c 0,4,5
 476.490234375 1089 476.490234375 1089 634.490234375 1089 c 0,6,7
 748.490234375 1089 748.490234375 1089 855.490234375 1023 c 1,8,-1
 894.490234375 1094 l 5,9,-1
 1041.49023438 1094 l 5,10,-1
 974.490234375 864 l 1,11,-1
 926.490234375 591 l 2,12,13
 870.448242188 275.020507812 870.448242188 275.020507812 870.448242188 183.21875 c 128,-1,14
 870.448242188 91.4169921875 870.448242188 91.4169921875 882.490234375 -12 c 1,15,-1
 734.490234375 -29 l 1,16,17
 725.490234375 45 725.490234375 45 723.490234375 102 c 1,18,19
 594.490234375 -27 594.490234375 -27 433.490234375 -27 c 128,-1,20
 272.490234375 -27 272.490234375 -27 175.5 89.015625 c 128,-1,21
 78.509765625 205.03125 78.509765625 205.03125 78.509765625 382.884765625 c 0,0,1
234.022460938 408.3046875 m 0,22,23
 234.022460938 281.278320312 234.022460938 281.278320312 293.256835938 196.639648438 c 128,-1,24
 352.490234375 112 352.490234375 112 463.490234375 112 c 0,25,26
 538.490234375 112 538.490234375 112 598.990234375 152.5 c 128,-1,27
 659.490234375 193 659.490234375 193 728.490234375 290 c 1,28,-1
 826.490234375 858 l 1,29,30
 749.490234375 950 749.490234375 950 645.490234375 950 c 128,-1,31
 541.490234375 950 541.490234375 950 460.490234375 896 c 0,32,33
 289.490234375 784 289.490234375 784 246.490234375 538 c 0,34,35
 234.022460938 467.9921875 234.022460938 467.9921875 234.022460938 408.3046875 c 0,22,23
EndSplineSet
EndChar

StartChar: b
Encoding: 98 98 67
Width: 1120
GlyphClass: 2
Flags: W
HStem: -27.0303 139.03<405.659 669.16> 982 139<501.053 794.774> 1481 20G<375.653 545.153>
VStem: 905.346 153.501<416.682 865.171>
DStem2: 159.153 245 320.153 290 0.171771 0.985137<6.28161 727.516 848.805 1274.95>
LayerCount: 2
Fore
SplineSet
61.1533203125 -12 m 1,0,1
 71.1533203125 11 71.1533203125 11 102.653320312 80 c 128,-1,2
 134.153320312 149 134.153320312 149 159.153320312 245 c 128,-1,3
 184.153320312 341 184.153320312 341 228.153320312 591 c 2,4,-1
 316.153320312 1089 l 1,5,-1
 342.153320312 1257 l 1,6,7
 373.153320312 1468 373.153320312 1468 378.153320312 1501 c 1,8,-1
 545.153320312 1501 l 1,9,-1
 461.153320312 1089 l 1,10,-1
 455.153320312 1055 l 1,11,12
 579.153320312 1121 579.153320312 1121 700.153320312 1121 c 0,13,14
 859.153320312 1121 859.153320312 1121 959 1005.44140625 c 128,-1,15
 1058.84667969 889.8828125 1058.84667969 889.8828125 1058.84667969 696.779296875 c 0,16,17
 1058.84667969 622.140625 1058.84667969 622.140625 1043.65332031 536 c 0,18,19
 989.153320312 227 989.153320312 227 787.153320312 76 c 0,20,21
 648.153320312 -27 648.153320312 -27 505.153320312 -27 c 0,22,23
 502.880859375 -27.0302734375 502.880859375 -27.0302734375 500.6171875 -27.0302734375 c 0,24,25
 428.18359375 -27.0302734375 428.18359375 -27.0302734375 363.168945312 4.484375 c 128,-1,26
 298.153320312 36 298.153320312 36 259.153320312 102 c 1,27,28
 240.153320312 49 240.153320312 49 202.153320312 -29 c 1,29,-1
 61.1533203125 -12 l 1,0,1
320.153320312 290 m 1,30,31
 356.153320312 192 356.153320312 192 404.153320312 152 c 128,-1,32
 452.153320312 112 452.153320312 112 524.153320312 112 c 0,33,34
 634.153320312 112 634.153320312 112 728.153320312 201 c 0,35,36
 853.153320312 319 853.153320312 319 892.153320312 537 c 0,37,38
 905.345703125 612.115234375 905.345703125 612.115234375 905.345703125 675.125976562 c 0,39,40
 905.345703125 846.154296875 905.345703125 846.154296875 808.153320312 928 c 0,41,42
 744.153320312 982 744.153320312 982 639.653320312 982 c 128,-1,43
 535.153320312 982 535.153320312 982 426.153320312 890 c 1,44,-1
 320.153320312 290 l 1,30,31
EndSplineSet
EndChar

StartChar: c
Encoding: 99 99 68
Width: 1120
GlyphClass: 2
Flags: W
HStem: -27 139<354.699 655.868> 982 139<484.749 791.05>
VStem: 88.6934 154.676<226.972 674.305>
DStem2: 747.307 219 795.307 88 0.769686 0.638422<-208.898 93.1261>
LayerCount: 2
Fore
SplineSet
88.693359375 386.96875 m 0,0,1
 88.693359375 462 88.693359375 462 104.306640625 550 c 0,2,3
 171.306640625 933 171.306640625 933 451.306640625 1069 c 0,4,5
 558.306640625 1121 558.306640625 1121 659.306640625 1121 c 0,6,7
 860.306640625 1121 860.306640625 1121 960.306640625 989 c 0,8,9
 988.306640625 952 988.306640625 952 1031.30664062 875 c 1,10,-1
 886.306640625 789 l 1,11,12
 859.306640625 856 859.306640625 856 844.306640625 879 c 0,13,14
 778.306640625 982 778.306640625 982 648.306640625 982 c 0,15,16
 552.306640625 982 552.306640625 982 462.306640625 924 c 0,17,18
 304.306640625 822 304.306640625 822 256.306640625 548 c 0,19,20
 243.369140625 474.354492188 243.369140625 474.354492188 243.369140625 412.840820312 c 0,21,22
 243.369140625 227.119140625 243.369140625 227.119140625 361.306640625 152 c 0,23,24
 423.306640625 112 423.306640625 112 495.306640625 112 c 0,25,26
 618.306640625 112 618.306640625 112 747.306640625 219 c 0,27,28
 758.306640625 229 758.306640625 229 818.306640625 284 c 1,29,-1
 902.306640625 178 l 1,30,31
 834.306640625 117 834.306640625 117 795.306640625 88 c 0,32,33
 636.306640625 -27 636.306640625 -27 478.306640625 -27 c 0,34,35
 240.306640625 -27 240.306640625 -27 140.306640625 157 c 0,36,37
 88.693359375 250.548828125 88.693359375 250.548828125 88.693359375 386.96875 c 0,0,1
EndSplineSet
EndChar

StartChar: d
Encoding: 100 100 69
Width: 1120
GlyphClass: 2
Flags: W
HStem: -27 139<301.059 575.066> 982 139<454.723 755.185> 1481 20G<898.921 1068.97>
VStem: 51.0293 153.474<222.441 663.846> 693.971 146.958<-12.2868 102>
DStem2: 698.971 290 896.971 591 0.165323 0.986239<-80.1749 643.991 776.792 1006.6>
LayerCount: 2
Fore
SplineSet
51.029296875 382.920898438 m 0,0,1
 51.029296875 458.05859375 51.029296875 458.05859375 66.470703125 546 c 0,2,3
 118.970703125 845 118.970703125 845 315.970703125 1007 c 0,4,5
 454.970703125 1121 454.970703125 1121 612.970703125 1121 c 0,6,7
 726.970703125 1121 726.970703125 1121 833.970703125 1055 c 1,8,-1
 901.970703125 1501 l 1,9,-1
 1068.97070312 1501 l 1,10,11
 1061.97070312 1468 1061.97070312 1468 1018.97070312 1257 c 2,12,-1
 984.970703125 1089 l 1,13,-1
 896.970703125 591 l 2,14,15
 840.928710938 270.250976562 840.928710938 270.250976562 840.928710938 181.1875 c 128,-1,16
 840.928710938 92.125 840.928710938 92.125 852.970703125 -12 c 1,17,-1
 704.970703125 -29 l 1,18,19
 695.970703125 45 695.970703125 45 693.970703125 102 c 1,20,21
 564.970703125 -27 564.970703125 -27 403.970703125 -27 c 128,-1,22
 242.970703125 -27 242.970703125 -27 147 87.7939453125 c 128,-1,23
 51.029296875 202.587890625 51.029296875 202.587890625 51.029296875 382.920898438 c 0,0,1
204.502929688 408.3046875 m 0,24,25
 204.502929688 281.278320312 204.502929688 281.278320312 263.737304688 196.639648438 c 128,-1,26
 322.970703125 112 322.970703125 112 433.970703125 112 c 0,27,28
 508.970703125 112 508.970703125 112 569.470703125 152.5 c 128,-1,29
 629.970703125 193 629.970703125 193 698.970703125 290 c 1,30,-1
 804.970703125 890 l 1,31,32
 727.970703125 982 727.970703125 982 623.970703125 982 c 128,-1,33
 519.970703125 982 519.970703125 982 438.970703125 928 c 0,34,35
 265.970703125 814 265.970703125 814 216.970703125 538 c 0,36,37
 204.502929688 467.9921875 204.502929688 467.9921875 204.502929688 408.3046875 c 0,24,25
EndSplineSet
EndChar

StartChar: e
Encoding: 101 101 70
Width: 1120
GlyphClass: 2
Flags: W
HStem: -27 21G<425.61 545.61> 47 172<775.319 870.11> 504 131<278.11 869.11> 982 139<489.325 777.959>
VStem: 102.666 140.888<219.497 502.731> 870.58 146.754<637.75 885.542>
LayerCount: 2
Fore
SplineSet
255.110351562 504 m 1,0,1
 243.553710938 469.330078125 243.553710938 469.330078125 243.553710938 379.010742188 c 128,-1,2
 243.553710938 288.690429688 243.553710938 288.690429688 280.33203125 228.845703125 c 0,3,4
 419.774414062 1.9462890625 419.774414062 1.9462890625 870.110351562 219 c 1,5,-1
 909.110351562 82 l 1,6,7
 828.110351562 50 828.110351562 50 821.110351562 47 c 0,8,9
 624.110351562 -27 624.110351562 -27 467.110351562 -27 c 0,10,11
 384.110351562 -27 384.110351562 -27 312.610351562 1 c 128,-1,12
 241.110351562 29 241.110351562 29 199.110351562 78 c 0,13,14
 102.666015625 189.474609375 102.666015625 189.474609375 102.666015625 391.870117188 c 0,15,16
 102.666015625 468.055664062 102.666015625 468.055664062 116.110351562 542 c 0,17,18
 158.110351562 781 158.110351562 781 295.110351562 941 c 0,19,20
 364.110351562 1022 364.110351562 1022 464.110351562 1071.5 c 128,-1,21
 564.110351562 1121 564.110351562 1121 674.110351562 1121 c 0,22,23
 898.110351562 1121 898.110351562 1121 978.110351562 927 c 0,24,25
 1017.33398438 832.734375 1017.33398438 832.734375 1017.33398438 733.928710938 c 128,-1,26
 1017.33398438 635.122070312 1017.33398438 635.122070312 991.110351562 504 c 1,27,-1
 255.110351562 504 l 1,0,1
278.110351562 635 m 1,28,-1
 869.110351562 635 l 1,29,30
 870.580078125 666.470703125 870.580078125 666.470703125 870.580078125 712.764648438 c 0,31,32
 870.580078125 832.98046875 870.580078125 832.98046875 809.845703125 907.490234375 c 128,-1,33
 749.110351562 982 749.110351562 982 641.610351562 982 c 128,-1,34
 534.110351562 982 534.110351562 982 437.110351562 899 c 0,35,36
 388.110351562 858 388.110351562 858 353.610351562 806 c 128,-1,37
 319.110351562 754 319.110351562 754 278.110351562 635 c 1,28,-1
EndSplineSet
EndChar

StartChar: f
Encoding: 102 102 71
Width: 1120
GlyphClass: 2
Flags: W
HStem: -417 21G<98 246.536> 963 131<86 342 510 839> 1434 139<620.283 936.853>
VStem: 98 145<-417 -272>
DStem2: 98 -417 243 -417 0.174063 0.984735<25.2391 1401.41 1559.65 1853.68>
LayerCount: 2
Fore
SplineSet
63 963 m 1,0,-1
 86 1094 l 1,1,-1
 365 1094 l 1,2,-1
 384 1201 l 6,3,4
 400 1292 400 1292 421 1342 c 4,5,6
 464 1445 464 1445 570.5 1509 c 132,-1,7
 677 1573 677 1573 793 1573 c 132,-1,8
 909 1573 909 1573 1057 1505 c 5,9,-1
 1030 1349 l 5,10,11
 900 1407 900 1407 857.5 1420.5 c 132,-1,12
 815 1434 815 1434 766 1434 c 4,13,14
 655 1434 655 1434 601.5 1372 c 132,-1,15
 548 1310 548 1310 528 1196 c 6,16,-1
 510 1094 l 1,17,-1
 862 1094 l 1,18,-1
 839 963 l 1,19,-1
 487 963 l 1,20,-1
 243 -417 l 1,21,-1
 98 -417 l 1,22,-1
 342 963 l 1,23,-1
 63 963 l 1,0,-1
EndSplineSet
EndChar

StartChar: g
Encoding: 103 103 72
Width: 1120
GlyphClass: 2
Flags: W
HStem: -424 139<247.398 545.312> 19 139<337.667 619.03> 982 139<465.64 764.182> 1074 20G<921 1077>
VStem: 100.65 156.537<245.891 655.555>
DStem2: 704 40 847 25 0.174199 0.98471<-213.348 77.1026 204.158 862.953>
LayerCount: 2
Fore
SplineSet
43 -254 m 1,0,-1
 167 -160 l 1,1,2
 254 -285 254 -285 401 -285 c 0,3,4
 510 -285 510 -285 593.5 -200.5 c 128,-1,5
 677 -116 677 -116 704 40 c 2,6,-1
 717 116 l 1,7,8
 572 19 572 19 408 19 c 0,9,10
 295 19 295 19 219 90 c 0,11,12
 100.650246305 197.660098522 100.650246305 197.660098522 100.650246305 382.276687131 c 0,13,14
 100.650246305 439.448275862 100.650246305 439.448275862 112 504 c 0,15,16
 149 712 149 712 204 824 c 0,17,18
 351 1120 351 1120 641 1121 c 0,19,20
 712 1121 712 1121 769 1099.5 c 128,-1,21
 826 1078 826 1078 898 1021 c 1,22,23
 910 1048 910 1048 932 1094 c 1,24,-1
 1077 1094 l 1,25,26
 1003 909 1003 909 984 802 c 2,27,-1
 847 25 l 2,28,29
 796 -265 796 -265 555 -379 c 0,30,31
 460 -424 460 -424 372 -424 c 0,32,33
 184 -424 184 -424 76 -292 c 0,34,35
 71 -286 71 -286 43 -254 c 1,0,-1
265 512 m 0,36,37
 257.1875 467 257.1875 467 257.1875 400.3125 c 128,-1,38
 257.1875 333.625 257.1875 333.625 295 258 c 0,39,40
 346 158 346 158 460 158 c 0,41,42
 614 158 614 158 749 295 c 1,43,-1
 848 854 l 1,44,45
 759 982 759 982 614 982 c 0,46,47
 509 982 509 982 429 909 c 0,48,49
 316.958333333 808.1625 316.958333333 808.1625 265 512 c 0,36,37
EndSplineSet
EndChar

StartChar: h
Encoding: 104 104 73
Width: 1120
GlyphClass: 2
Flags: W
HStem: 0 21G<112.029 294.029 710.029 880.029> 982 139<627.026 831.354> 1481 20G<376.029 544.029>
VStem: 857.029 150.941<539.234 941.449>
DStem2: 198.029 430 343.029 430 0.182542 0.983198<20.2739 378.751 537.263 694.588> 710.029 0 878.029 0 0.160034 0.987112<26.8857 493.843 596.565 840.779>
LayerCount: 2
Fore
SplineSet
112.029296875 0 m 1,0,1
 114.029296875 11 114.029296875 11 124.029296875 55 c 1,2,-1
 198.029296875 430 l 1,3,-1
 314.029296875 1088 l 1,4,-1
 369.029296875 1445 l 2,5,6
 375.029296875 1490 375.029296875 1490 377.029296875 1501 c 1,7,-1
 544.029296875 1501 l 1,8,-1
 459.029296875 1088 l 1,9,-1
 432.029296875 933 l 1,10,-1
 457.029296875 957 l 1,11,12
 518.029296875 1017 518.029296875 1017 577.029296875 1053 c 0,13,14
 691.029296875 1121 691.029296875 1121 785.029296875 1121 c 128,-1,15
 879.029296875 1121 879.029296875 1121 945.029296875 1048 c 0,16,17
 1007.97070312 981.282226562 1007.97070312 981.282226562 1007.97070312 863.587890625 c 0,18,19
 1007.97070312 795.1171875 1007.97070312 795.1171875 991.029296875 697 c 2,20,-1
 944.029296875 430 l 1,21,-1
 886.029296875 55 l 1,22,23
 882.029296875 19 882.029296875 19 878.029296875 0 c 1,24,-1
 710.029296875 0 l 1,25,26
 765.029296875 243 765.029296875 243 798.029296875 430 c 2,27,-1
 837.029296875 650 l 2,28,29
 857.029296875 764 857.029296875 764 857.029296875 830 c 128,-1,30
 857.029296875 896 857.029296875 896 841.029296875 924 c 0,31,32
 808.029296875 982 808.029296875 982 752.529296875 982 c 128,-1,33
 697.029296875 982 697.029296875 982 623.529296875 935.5 c 128,-1,34
 550.029296875 889 550.029296875 889 489.029296875 816 c 128,-1,35
 428.029296875 743 428.029296875 743 412.529296875 706.5 c 128,-1,36
 397.029296875 670 397.029296875 670 362.029296875 539 c 1,37,-1
 343.029296875 430 l 2,38,39
 309.029296875 235 309.029296875 235 279.029296875 0 c 1,40,-1
 112.029296875 0 l 1,0,1
EndSplineSet
EndChar

StartChar: i
Encoding: 105 105 74
Width: 1120
GlyphClass: 2
Flags: W
HStem: -27 139<538.556 727.744> 963 131<213 493> 1245 262<563.912 724.933>
VStem: 376.027 150.082<121.48 507.109> 510.59 266.435<1294.31 1456.83>
DStem2: 407 430 553 430 0.189286 0.981922<-174.778 539.643>
LayerCount: 2
Fore
SplineSet
526.109243697 226.816608997 m 0,0,1
 526.109243697 112 526.109243697 112 612 112 c 4,2,3
 648 112 648 112 709.5 138.5 c 132,-1,4
 771 165 771 165 828 251 c 5,5,-1
 930 224 l 5,6,7
 918 208 918 208 900 182 c 4,8,9
 745 -27 745 -27 578 -27 c 4,10,11
 459 -27 459 -27 402 75 c 4,12,13
 376.027027027 121.081081081 376.027027027 121.081081081 376.027027027 192.082176771 c 0,14,15
 376.027027027 276.425675676 376.027027027 276.425675676 407 430 c 5,16,-1
 448 665 l 5,17,-1
 493 963 l 5,18,-1
 190 963 l 5,19,-1
 213 1094 l 5,20,-1
 681 1094 l 5,21,22
 613 774 613 774 594 665 c 6,23,-1
 553 430 l 5,24,25
 526.109243697 297.56302521 526.109243697 297.56302521 526.109243697 226.816608997 c 0,0,1
621 1245 m 256,26,27
 566 1245 566 1245 538.295180723 1278.86144578 c 128,-1,28
 510.590361446 1312.72289157 510.590361446 1312.72289157 510.590361446 1338.04518072 c 0,29,30
 510.590361446 1420.63590626 510.590361446 1420.63590626 562.295180723 1463.81795313 c 128,-1,31
 614 1507 614 1507 668 1507 c 128,-1,32
 722 1507 722 1507 749.5125 1472.83125 c 128,-1,33
 777.025 1438.6625 777.025 1438.6625 777.025 1413.40625 c 0,34,35
 777.025 1332.40365169 777.025 1332.40365169 726.5125 1288.70182584 c 128,-1,36
 676 1245 676 1245 621 1245 c 256,26,27
EndSplineSet
EndChar

StartChar: j
Encoding: 106 106 75
Width: 1120
GlyphClass: 2
Flags: W
HStem: -333 139<263.336 500.488> 963 131<484.822 765.822> 1245 262<835.734 996.24>
VStem: 71.1523 149.486<-151.399 106.19> 782.413 266.435<1294.26 1456.83>
DStem2: 596.322 -4.5 747.822 13 0.186319 0.982489<-132.5 982.139>
LayerCount: 2
Fore
SplineSet
242.822265625 109 m 1,0,1
 220.638671875 10.7568359375 220.638671875 10.7568359375 220.638671875 -41.1181640625 c 128,-1,2
 220.638671875 -92.9921875 220.638671875 -92.9921875 258.73046875 -143.49609375 c 128,-1,3
 296.822265625 -194 296.822265625 -194 358.822265625 -194 c 128,-1,4
 420.822265625 -194 420.822265625 -194 468.322265625 -169.5 c 128,-1,5
 515.822265625 -145 515.822265625 -145 548.822265625 -103 c 128,-1,6
 581.822265625 -61 581.822265625 -61 596.322265625 -4.5 c 128,-1,7
 610.822265625 52 610.822265625 52 663.822265625 345 c 1,8,-1
 719.822265625 664 l 1,9,-1
 765.822265625 963 l 1,10,-1
 461.822265625 963 l 1,11,-1
 484.822265625 1094 l 1,12,-1
 952.822265625 1094 l 1,13,14
 887.822265625 788 887.822265625 788 865.822265625 664 c 2,15,-1
 809.822265625 345 l 1,16,17
 756.822265625 49 756.822265625 49 747.822265625 13 c 0,18,19
 712.822265625 -144 712.822265625 -144 599.822265625 -238.5 c 128,-1,20
 486.822265625 -333 486.822265625 -333 350.822265625 -333 c 0,21,22
 278.822265625 -332 278.822265625 -332 217.822265625 -302 c 0,23,24
 71.15234375 -229.033203125 71.15234375 -229.033203125 71.15234375 -40.3603515625 c 0,25,26
 71.15234375 26.955078125 71.15234375 26.955078125 89.822265625 109 c 1,27,-1
 242.822265625 109 l 1,0,1
892.322265625 1245 m 128,-1,29
 837.822265625 1245 837.822265625 1245 810.118164062 1278.86132812 c 128,-1,30
 782.413085938 1312.72265625 782.413085938 1312.72265625 782.413085938 1338.04492188 c 0,31,32
 782.413085938 1420.63574219 782.413085938 1420.63574219 834.118164062 1463.81835938 c 128,-1,33
 885.822265625 1507 885.822265625 1507 939.822265625 1507 c 128,-1,34
 993.822265625 1507 993.822265625 1507 1021.33496094 1472.83105469 c 128,-1,35
 1048.84765625 1438.66210938 1048.84765625 1438.66210938 1048.84765625 1413.40625 c 0,36,37
 1048.84765625 1332.28808594 1048.84765625 1332.28808594 997.834960938 1288.64355469 c 128,-1,28
 946.822265625 1245 946.822265625 1245 892.322265625 1245 c 128,-1,29
EndSplineSet
EndChar

StartChar: k
Encoding: 107 107 76
Width: 1120
GlyphClass: 2
Flags: W
HStem: 0 21G<79 247.857 721.772 934> 1074 20G<769.5 1041> 1481 20G<342 510>
VStem: 735 199<0 199>
DStem2: 79 0 245 0 0.174329 0.984687<28.9386 467.799 650.447 1524.21>
LayerCount: 2
Fore
SplineSet
79 0 m 1,0,1
 83 21 83 21 90 56 c 2,2,-1
 165 430 l 1,3,-1
 278 1071 l 1,4,-1
 335 1446 l 2,5,6
 340 1479 340 1479 344 1501 c 1,7,-1
 510 1501 l 1,8,-1
 498 1445 l 1,9,10
 426 1089 426 1089 423 1071 c 2,11,-1
 342 614 l 1,12,13
 690 903 690 903 849 1094 c 1,14,-1
 1041 1094 l 1,15,16
 848 897 848 897 761 814.5 c 128,-1,17
 674 732 674 732 511 594 c 1,18,-1
 934 0 l 1,19,-1
 735 0 l 1,20,-1
 401 505 l 1,21,-1
 311 434 l 1,22,23
 310 429 310 429 253 56 c 1,24,-1
 245 0 l 1,25,-1
 79 0 l 1,0,1
EndSplineSet
EndChar

StartChar: l
Encoding: 108 108 77
Width: 1120
GlyphClass: 2
Flags: W
HStem: -27 136<505.088 697.525> 1370 131<250 528>
VStem: 339.671 150.409<149.131 509.25>
DStem2: 370 429 516 429 0.181629 0.983367<-166.769 678.182>
LayerCount: 2
Fore
SplineSet
226 1370 m 1,0,-1
 250 1501 l 1,1,-1
 714 1501 l 1,2,-1
 628 1071 l 1,3,-1
 516 429 l 2,4,5
 490.08 281.4 490.08 281.4 490.08 235.78 c 128,-1,6
 490.08 190.16 490.08 190.16 494 177 c 0,7,8
 516 109 516 109 576 109 c 4,9,10
 700 109 700 109 792 251 c 1,11,-1
 894 224 l 1,12,13
 882 208 882 208 864 182 c 0,14,15
 720 -27 720 -27 542 -27 c 0,16,17
 424 -27 424 -27 366 75 c 0,18,19
 339.671232877 121.712328767 339.671232877 121.712328767 339.671232877 194.392756615 c 0,20,21
 339.671232877 281.147260274 339.671232877 281.147260274 370 429 c 1,22,-1
 484 1071 l 1,23,24
 516 1291 516 1291 528 1370 c 1,25,-1
 226 1370 l 1,0,-1
EndSplineSet
EndChar

StartChar: m
Encoding: 109 109 78
Width: 1120
GlyphClass: 2
Flags: W
HStem: 0 21G<38.1875 203.688 404.188 570.188 770.188 936.688> 982 140<432.022 621.688 787.879 924.804> 1074 20G<196.188 350.188>
VStem: 199.566 154.621<1018 1094> 404.188 164<0 215.402> 936.188 145.625<648.414 967.981>
DStem2: 124.188 430 215.688 94 0.18914 0.98195<-407.486 -122.366 27.047 458.188 462.642 520.748> 454.188 246 604.188 246 0.189065 0.981965<-218.808 675.569> 856.188 430 970.188 246 0.185452 0.982653<-408.076 486.207>
LayerCount: 2
Fore
SplineSet
533.1875 670 m 2,0,1
 564.547851562 847.7109375 564.547851562 847.7109375 564.547851562 914.85546875 c 128,-1,2
 564.547851562 982 564.547851562 982 510.1875 982 c 0,3,4
 435.1875 982 435.1875 982 348.1875 858 c 1,5,6
 317.1875 718 317.1875 718 311.1875 679 c 2,7,-1
 267.1875 430 l 2,8,9
 259.1875 383 259.1875 383 242.6875 272 c 128,-1,10
 226.1875 161 226.1875 161 215.6875 94 c 128,-1,11
 205.1875 27 205.1875 27 202.1875 0 c 1,12,-1
 38.1875 0 l 1,13,14
 107.1875 332 107.1875 332 124.1875 430 c 2,15,-1
 158.1875 623 l 2,16,17
 199.56640625 854.724609375 199.56640625 854.724609375 199.56640625 948.775390625 c 128,-1,18
 199.56640625 1042.82714844 199.56640625 1042.82714844 196.1875 1094 c 1,19,-1
 348.1875 1094 l 1,20,21
 352.1875 1073 352.1875 1073 354.1875 1018 c 1,22,23
 403.1875 1067 403.1875 1067 466.1875 1094.5 c 128,-1,24
 529.1875 1122 529.1875 1122 579.1875 1122 c 0,25,26
 664.1875 1122 664.1875 1122 709.1875 1018 c 1,27,28
 778.1875 1076 778.1875 1076 823.6875 1099 c 128,-1,29
 869.1875 1122 869.1875 1122 915.1875 1122 c 256,30,31
 961.1875 1122 961.1875 1122 1005.6875 1094.5 c 0,32,33
 1081.8125 1047.45605469 1081.8125 1047.45605469 1081.8125 947.833007812 c 0,34,35
 1081.8125 897.9375 1081.8125 897.9375 1056.1875 757 c 1,36,-1
 999.1875 430 l 1,37,-1
 970.1875 246 l 2,38,39
 939.1875 44 939.1875 44 934.1875 0 c 1,40,-1
 770.1875 0 l 1,41,42
 839.1875 332 839.1875 332 856.1875 430 c 2,43,-1
 924.1875 816 l 2,44,45
 936.1875 885 936.1875 885 936.1875 910.5 c 128,-1,46
 936.1875 936 936.1875 936 919.1875 959 c 128,-1,47
 902.1875 982 902.1875 982 868.1875 982 c 0,48,49
 811.1875 982 811.1875 982 718.1875 879 c 1,50,51
 696.1875 788 696.1875 788 677.1875 679 c 2,52,-1
 633.1875 430 l 1,53,-1
 604.1875 246 l 2,54,55
 572.1875 37 572.1875 37 568.1875 0 c 1,56,-1
 404.1875 0 l 1,57,58
 414.1875 44 414.1875 44 454.1875 246 c 2,59,-1
 491.1875 430 l 1,60,-1
 533.1875 670 l 2,0,1
EndSplineSet
EndChar

StartChar: n
Encoding: 110 110 79
Width: 1120
GlyphClass: 2
Flags: W
HStem: 0 21G<103.379 274.236 719.379 888.879> 982 139<620.488 838.685> 1074 20G<260.379 399.995>
VStem: 261.1 139.511<908 1094> 864.311 152.311<545.844 957.207>
DStem2: 115.379 56 279.379 56 0.152195 0.98835<-31.6052 465.069 513.748 730.343> 806.379 429 922.379 246 0.158876 0.987299<-410.841 396.128>
LayerCount: 2
Fore
SplineSet
103.37890625 0 m 1,0,-1
 115.37890625 56 l 1,1,2
 181.37890625 387 181.37890625 387 189.37890625 429 c 2,3,-1
 203.37890625 513 l 2,4,5
 244.37890625 753 244.37890625 753 252.739257812 834.83984375 c 128,-1,6
 261.099609375 916.6796875 261.099609375 916.6796875 261.099609375 986.740234375 c 128,-1,7
 261.099609375 1056.79980469 261.099609375 1056.79980469 260.37890625 1094 c 1,8,-1
 399.37890625 1094 l 1,9,10
 400.610351562 1067.23046875 400.610351562 1067.23046875 400.610351562 1021.88476562 c 128,-1,11
 400.610351562 976.538085938 400.610351562 976.538085938 394.37890625 908 c 1,12,-1
 440.37890625 957 l 1,13,14
 481.37890625 1003 481.37890625 1003 579.37890625 1062 c 128,-1,15
 677.37890625 1121 677.37890625 1121 790.87890625 1121 c 128,-1,16
 904.37890625 1121 904.37890625 1121 971.37890625 1027 c 0,17,18
 1016.62109375 963.900390625 1016.62109375 963.900390625 1016.62109375 881.8984375 c 128,-1,19
 1016.62109375 799.896484375 1016.62109375 799.896484375 998.37890625 696 c 2,20,-1
 951.37890625 429 l 1,21,-1
 922.37890625 246 l 1,22,23
 891.37890625 43 891.37890625 43 886.37890625 0 c 1,24,-1
 719.37890625 0 l 1,25,-1
 806.37890625 429 l 1,26,-1
 844.37890625 649 l 2,27,28
 864.310546875 762.724609375 864.310546875 762.724609375 864.310546875 822.79296875 c 128,-1,29
 864.310546875 882.862304688 864.310546875 882.862304688 852.844726562 912.430664062 c 128,-1,30
 841.37890625 942 841.37890625 942 813.37890625 962 c 128,-1,31
 785.37890625 982 785.37890625 982 753.37890625 982 c 0,32,33
 684.37890625 982 684.37890625 982 600.37890625 924.5 c 128,-1,34
 516.37890625 867 516.37890625 867 447.37890625 771 c 128,-1,35
 378.37890625 675 378.37890625 675 354.37890625 539 c 1,36,-1
 279.37890625 56 l 1,37,-1
 271.37890625 0 l 1,38,-1
 103.37890625 0 l 1,0,-1
EndSplineSet
EndChar

StartChar: o
Encoding: 111 111 80
Width: 1120
GlyphClass: 2
Flags: W
HStem: -27 139<342.909 643.087> 982 139<475.706 778.441>
VStem: 108.346 153.397<198.75 663.368> 859 152.654<428.979 896.29>
LayerCount: 2
Fore
SplineSet
108.345703125 372.10546875 m 0,0,1
 108.345703125 451.068359375 108.345703125 451.068359375 124.755859375 545 c 0,2,3
 193.755859375 934 193.755859375 934 449.755859375 1068 c 0,4,5
 551.755859375 1121 551.755859375 1121 681.255859375 1121 c 128,-1,6
 810.755859375 1121 810.755859375 1121 911.205078125 1021.40820312 c 128,-1,7
 1011.65429688 921.815429688 1011.65429688 921.815429688 1011.65429688 722.408203125 c 0,8,9
 1011.65429688 642.374023438 1011.65429688 642.374023438 994.755859375 547 c 0,10,11
 926.755859375 158 926.755859375 158 670.755859375 26 c 0,12,13
 569.755859375 -27 569.755859375 -27 458.755859375 -27 c 0,14,15
 309.755859375 -27 309.755859375 -27 209.05078125 72.48828125 c 128,-1,16
 108.345703125 171.975585938 108.345703125 171.975585938 108.345703125 372.10546875 c 0,0,1
261.743164062 391.2734375 m 0,17,18
 261.743164062 112 261.743164062 112 483.755859375 112 c 256,19,20
 634.755859375 112 634.755859375 112 721.755859375 232.5 c 128,-1,21
 808.755859375 353 808.755859375 353 842.755859375 544 c 0,22,23
 859 636.400390625 859 636.400390625 859 709.307617188 c 0,24,25
 859 982 859 982 631.755859375 982 c 0,26,27
 485.755859375 982 485.755859375 982 398.755859375 861.5 c 128,-1,28
 311.755859375 741 311.755859375 741 276.755859375 547 c 256,29,30
 261.743164062 461.337890625 261.743164062 461.337890625 261.743164062 391.2734375 c 0,17,18
EndSplineSet
EndChar

StartChar: p
Encoding: 112 112 81
Width: 1120
GlyphClass: 2
Flags: W
HStem: -422 21G<49.4043 219.261> -27 139<365.374 666.191> 980 139<545.922 819.824>
VStem: 268.404 147<992.155 1105.66> 917.24 153.355<428.199 869.669>
DStem2: 135.404 3 286.404 40 0.164399 0.986394<-405.901 61.3208 196.991 901.914>
LayerCount: 2
Fore
SplineSet
49.404296875 -422 m 1,0,1
 114.404296875 -118 114.404296875 -118 135.404296875 3 c 2,2,-1
 222.404296875 501 l 2,3,4
 280.017578125 825.072265625 280.017578125 825.072265625 280.017578125 928.545898438 c 0,5,6
 280.017578125 955.903320312 280.017578125 955.903320312 278.404296875 983 c 2,7,-1
 268.404296875 1104 l 1,8,-1
 415.404296875 1121 l 1,9,10
 424.404296875 1059 424.404296875 1059 426.404296875 990 c 1,11,-1
 430.404296875 995 l 1,12,13
 554.404296875 1119 554.404296875 1119 716.404296875 1119 c 128,-1,14
 878.404296875 1119 878.404296875 1119 974.5 1001.99414062 c 128,-1,15
 1070.59570312 884.98828125 1070.59570312 884.98828125 1070.59570312 705.076171875 c 0,16,17
 1070.59570312 630.826171875 1070.59570312 630.826171875 1055.40429688 544.5 c 0,18,19
 1003.40429688 249 1003.40429688 249 805.404296875 87 c 0,20,21
 666.404296875 -27 666.404296875 -27 521.404296875 -27 c 128,-1,22
 376.404296875 -27 376.404296875 -27 286.404296875 40 c 1,23,-1
 223.404296875 -367 l 1,24,-1
 220.404296875 -394 l 1,25,-1
 216.404296875 -422 l 1,26,-1
 49.404296875 -422 l 1,0,1
315.404296875 205 m 1,27,28
 391.404296875 112 391.404296875 112 495.404296875 112 c 128,-1,29
 599.404296875 112 599.404296875 112 683.404296875 166 c 0,30,31
 856.404296875 277 856.404296875 277 905.404296875 555 c 0,32,33
 917.240234375 622.901367188 917.240234375 622.901367188 917.240234375 681.1015625 c 0,34,35
 917.240234375 809.75390625 917.240234375 809.75390625 857.322265625 894.876953125 c 128,-1,36
 797.404296875 980 797.404296875 980 687.404296875 980 c 0,37,38
 612.404296875 980 612.404296875 980 551.404296875 939.5 c 128,-1,39
 490.404296875 899 490.404296875 899 420.404296875 802 c 1,40,-1
 315.404296875 205 l 1,27,28
EndSplineSet
EndChar

StartChar: q
Encoding: 113 113 82
Width: 1120
GlyphClass: 2
Flags: W
HStem: -422 21G<572.977 742.834> -27 139<325.436 619.868> 980 139<450.186 717.154>
VStem: 61.0234 153.761<228.57 673.991>
DStem2: 622.977 -176 746.977 -367 0.181571 0.983378<-220.667 220.036 340.486 714.408>
LayerCount: 2
Fore
SplineSet
61.0234375 396.380859375 m 0,0,1
 61.0234375 469.900390625 61.0234375 469.900390625 75.9765625 554.5 c 0,2,3
 129.9765625 860 129.9765625 860 331.9765625 1014 c 0,4,5
 469.9765625 1119 469.9765625 1119 623.4765625 1119 c 128,-1,6
 776.9765625 1119 776.9765625 1119 856.9765625 995 c 1,7,-1
 860.9765625 990 l 1,8,9
 888.9765625 1062 888.9765625 1062 917.9765625 1121 c 1,10,-1
 1058.9765625 1104 l 1,11,-1
 1044.9765625 1074 l 1,12,13
 986.9765625 947 986.9765625 947 961.9765625 854.5 c 128,-1,14
 936.9765625 762 936.9765625 762 890.9765625 501 c 2,15,-1
 803.9765625 3 l 1,16,-1
 746.9765625 -367 l 1,17,-1
 743.9765625 -394 l 1,18,-1
 739.9765625 -422 l 1,19,-1
 572.9765625 -422 l 1,20,21
 580.9765625 -380 580.9765625 -380 622.9765625 -176 c 2,22,-1
 658.9765625 3 l 1,23,-1
 664.9765625 40 l 1,24,25
 545.9765625 -27 545.9765625 -27 419.9765625 -27 c 0,26,27
 260.9765625 -27 260.9765625 -27 161 88.7080078125 c 128,-1,28
 61.0234375 204.415039062 61.0234375 204.415039062 61.0234375 396.380859375 c 0,0,1
214.784179688 417.413085938 m 0,29,30
 214.784179688 247.115234375 214.784179688 247.115234375 311.9765625 166 c 0,31,32
 376.9765625 112 376.9765625 112 480.9765625 112 c 128,-1,33
 584.9765625 112 584.9765625 112 693.9765625 205 c 1,34,-1
 798.9765625 802 l 1,35,36
 762.9765625 900 762.9765625 900 715.4765625 940 c 128,-1,37
 667.9765625 980 667.9765625 980 595.9765625 980 c 0,38,39
 485.9765625 980 485.9765625 980 391.9765625 891 c 0,40,41
 265.9765625 773 265.9765625 773 227.9765625 555 c 0,42,43
 214.784179688 480.154296875 214.784179688 480.154296875 214.784179688 417.413085938 c 0,29,30
EndSplineSet
EndChar

StartChar: r
Encoding: 114 114 83
Width: 1120
GlyphClass: 2
Flags: W
HStem: 0 21G<117.779 287.636> 982 139<651.591 848.128> 1074 20G<271.779 415.821>
VStem: 273.168 143.694<871.743 1094> 856.029 146.191<754 976.21>
DStem2: 129.779 56 292.779 56 0.194648 0.980873<-24.7585 382.426 458.308 749.969>
LayerCount: 2
Fore
SplineSet
117.779296875 0 m 1,0,-1
 129.779296875 56 l 1,1,2
 201.779296875 412 201.779296875 412 204.779296875 431 c 2,3,-1
 219.779296875 514 l 1,4,5
 273.16796875 816.25 273.16796875 816.25 273.16796875 1028.03515625 c 0,6,7
 273.16796875 1062.19433594 273.16796875 1062.19433594 271.779296875 1094 c 1,8,-1
 414.779296875 1094 l 1,9,10
 416.862304688 1054.83300781 416.862304688 1054.83300781 416.862304688 1000.54199219 c 128,-1,11
 416.862304688 946.25 416.862304688 946.25 412.779296875 871 c 1,12,-1
 432.779296875 899 l 2,13,14
 494.779296875 985 494.779296875 985 597.279296875 1053 c 128,-1,15
 699.779296875 1121 699.779296875 1121 806.779296875 1121 c 128,-1,16
 913.779296875 1121 913.779296875 1121 965.779296875 1042 c 0,17,18
 996.779296875 994 996.779296875 994 999.5 959.232421875 c 128,-1,19
 1002.22070312 924.46484375 1002.22070312 924.46484375 1002.22070312 888.651367188 c 128,-1,20
 1002.22070312 852.836914062 1002.22070312 852.836914062 988.779296875 754 c 1,21,-1
 843.779296875 754 l 1,22,23
 856.029296875 829.833007812 856.029296875 829.833007812 856.029296875 871.208007812 c 128,-1,24
 856.029296875 912.583007812 856.029296875 912.583007812 849.779296875 933 c 0,25,26
 834.779296875 982 834.779296875 982 775.779296875 982 c 0,27,28
 683.779296875 982 683.779296875 982 575.279296875 874 c 128,-1,29
 466.779296875 766 466.779296875 766 403.779296875 618 c 0,30,31
 368.779296875 536 368.779296875 536 357.779296875 478 c 1,32,-1
 292.779296875 56 l 1,33,-1
 284.779296875 0 l 1,34,-1
 117.779296875 0 l 1,0,-1
EndSplineSet
EndChar

StartChar: s
Encoding: 115 115 84
Width: 1120
GlyphClass: 2
Flags: W
HStem: -27 139<367.022 683.072> 982 139<523.887 816.578>
VStem: 288.546 153.813<708.623 905.781> 761.799 153.707<187.315 416.281>
DStem2: 586 647 512 521 0.927242 -0.374463<-154.629 248.522>
LayerCount: 2
Fore
SplineSet
106 164 m 1,0,-1
 211 285 l 1,1,2
 360 112 360 112 543 112 c 0,3,4
 625 112 625 112 685 157.5 c 0,5,6
 761.798941799 215.739197531 761.798941799 215.739197531 761.798941799 317.507164903 c 128,-1,7
 761.798941799 419.275132275 761.798941799 419.275132275 616 479 c 2,8,-1
 512 521 l 2,9,10
 288.546391753 611.257731959 288.546391753 611.257731959 288.546391753 778.303645446 c 0,11,12
 288.546391753 913.214100748 288.546391753 913.214100748 405.773195876 1017.10705037 c 128,-1,13
 523 1121 523 1121 684 1121 c 256,14,15
 844 1121 844 1121 964 1031 c 0,16,17
 1003 1001 1003 1001 1014 992 c 1,18,-1
 925 868 l 1,19,20
 774 982 774 982 659 982 c 0,21,22
 582 982 582 982 518.5 934 c 0,23,24
 442.359223301 876.44476722 442.359223301 876.44476722 442.359223301 802.157507776 c 0,25,26
 442.359223301 706.508321775 442.359223301 706.508321775 586 647 c 1,27,-1
 671 613 l 2,28,29
 747 582 747 582 806.5 542 c 128,-1,30
 866 502 866 502 890.752873563 444.103448276 c 128,-1,31
 915.505747126 386.206896552 915.505747126 386.206896552 915.505747126 346.959770115 c 0,32,33
 915.505747126 177.948197847 915.505747126 177.948197847 778.5 64.5 c 0,34,35
 668 -27 668 -27 523 -27 c 0,36,37
 298 -27 298 -27 106 164 c 1,0,-1
EndSplineSet
EndChar

StartChar: t
Encoding: 116 116 85
Width: 1120
GlyphClass: 2
Flags: W
HStem: -27 139<443.069 678.728> 963 131<182 402 570 938>
VStem: 277.053 150.902<124.382 505.922>
DStem2: 296 366 442 366 0.184066 0.982914<-96.8378 606.311 765.995 818.521>
LayerCount: 2
Fore
SplineSet
160 963 m 1,0,-1
 182 1094 l 1,1,-1
 424 1094 l 1,2,-1
 474 1434 l 1,3,-1
 642 1434 l 1,4,5
 614 1298 614 1298 570 1094 c 1,6,-1
 960 1094 l 1,7,-1
 938 963 l 1,8,-1
 548 963 l 1,9,-1
 442 366 l 6,10,11
 427.95505618 287.91011236 427.95505618 287.91011236 427.95505618 241.303370787 c 128,-1,12
 427.95505618 194.696629213 427.95505618 194.696629213 436.5 169.5 c 4,13,14
 456 112 456 112 528 112 c 132,-1,15
 600 112 600 112 652 139.5 c 4,16,17
 731.801980198 181.702970297 731.801980198 181.702970297 808 296 c 5,18,-1
 944 260 l 5,19,20
 928 238 928 238 904 204 c 4,21,22
 740 -27 740 -27 506 -27 c 4,23,24
 364 -27 364 -27 304 75 c 4,25,26
 277.052631579 123 277.052631579 123 277.052631579 189.792243767 c 0,27,28
 277.052631579 260.210526316 277.052631579 260.210526316 296 366 c 6,29,-1
 402 963 l 1,30,-1
 160 963 l 1,0,-1
EndSplineSet
EndChar

StartChar: u
Encoding: 117 117 86
Width: 1120
GlyphClass: 2
Flags: W
HStem: -27 139<280.473 503.47> 0 21G<717.788 858.621> 1074 20G<233.621 401.621 846.764 1015.62>
VStem: 104.379 151.648<132.016 548.156> 716.954 140.917<0 184.716>
DStem2: 122.621 398 275.621 445 0.160258 0.987075<-109.937 705.113> 765.621 555 929.621 665 0.175877 0.984412<-235.943 545.372>
LayerCount: 2
Fore
SplineSet
256.02734375 262.751953125 m 0,0,1
 256.02734375 112 256.02734375 112 364.62109375 112 c 0,2,3
 437.62109375 112 437.62109375 112 521.62109375 168.5 c 128,-1,4
 605.62109375 225 605.62109375 225 673.62109375 321.5 c 128,-1,5
 741.62109375 418 741.62109375 418 765.62109375 555 c 1,6,-1
 841.62109375 1038 l 1,7,-1
 849.62109375 1094 l 1,8,-1
 1015.62109375 1094 l 1,9,-1
 1010.62109375 1066 l 1,10,-1
 1004.62109375 1038 l 1,11,12
 935.62109375 698 935.62109375 698 929.62109375 665 c 2,13,-1
 914.62109375 581 l 1,14,15
 873.62109375 340 873.62109375 340 865.74609375 255.125 c 128,-1,16
 857.87109375 170.25 857.87109375 170.25 857.87109375 103.375 c 128,-1,17
 857.87109375 36.5 857.87109375 36.5 858.62109375 0 c 1,18,-1
 718.62109375 0 l 1,19,20
 716.954101562 25.6669921875 716.954101562 25.6669921875 716.954101562 69.6669921875 c 128,-1,21
 716.954101562 113.666992188 716.954101562 113.666992188 723.62109375 187 c 1,22,-1
 677.62109375 137 l 2,23,24
 612.62109375 67 612.62109375 67 515.62109375 20 c 128,-1,25
 418.62109375 -27 418.62109375 -27 338.62109375 -27 c 0,26,27
 216.62109375 -27 216.62109375 -27 149.62109375 67 c 0,28,29
 104.37890625 130.099609375 104.37890625 130.099609375 104.37890625 212.1015625 c 128,-1,30
 104.37890625 294.103515625 104.37890625 294.103515625 122.62109375 398 c 2,31,-1
 169.62109375 665 l 1,32,-1
 226.62109375 1038 l 2,33,34
 231.62109375 1072 231.62109375 1072 235.62109375 1094 c 1,35,-1
 401.62109375 1094 l 1,36,-1
 314.62109375 665 l 1,37,-1
 275.62109375 445 l 2,38,39
 256.02734375 333.203125 256.02734375 333.203125 256.02734375 262.751953125 c 0,0,1
EndSplineSet
EndChar

StartChar: v
Encoding: 118 118 87
Width: 1120
GlyphClass: 2
Flags: W
HStem: -27 21G<269.5 489> 1100 20G<133 299.446 813.532 987>
VStem: 133 164<956 1120>
DStem2: 297 1120 133 1120 0.121406 -0.992603<0 883.934> 405 237 442 -27 0.427866 0.903842<0 976.941>
LayerCount: 2
Fore
SplineSet
133 1120 m 1,0,-1
 297 1120 l 1,1,-1
 405 237 l 1,2,-1
 823 1120 l 1,3,-1
 987 1120 l 1,4,-1
 707 552 l 2,5,6
 536 205 536 205 442 -27 c 1,7,-1
 274 -27 l 1,8,9
 265 186 265 186 213 552 c 2,10,-1
 133 1120 l 1,0,-1
EndSplineSet
EndChar

StartChar: w
Encoding: 119 119 88
Width: 1120
GlyphClass: 2
Flags: W
HStem: -27 21G<42 207 532.266 732> 1100 20G<64 240 897 1078>
VStem: 42 160<-27 72.3281 262 462.957> 67.92 139.08<372.317 1117.92> 896 182<1003.81 1120>
LayerCount: 2
Fore
SplineSet
42 -27 m 1,0,1
 67.92 630.36 67.92 630.36 67.92 842.42 c 128,-1,2
 67.92 1054.48 67.92 1054.48 64 1120 c 1,3,-1
 240 1120 l 1,4,-1
 238 1096 l 1,5,6
 214 841 214 841 207 681 c 128,-1,7
 200 521 200 521 198 262 c 1,8,9
 354 605 354 605 450 842 c 1,10,-1
 596 842 l 1,11,12
 610 560 610 560 640 262 c 1,13,14
 786 674 786 674 896 1096 c 1,15,-1
 902 1120 l 1,16,-1
 1078 1120 l 1,17,18
 1041 1033 1041 1033 905.5 627 c 128,-1,19
 770 221 770 221 694 -27 c 1,20,-1
 534 -27 l 1,21,-1
 480 596 l 1,22,23
 212 -2 212 -2 202 -27 c 1,24,-1
 42 -27 l 1,0,1
EndSplineSet
EndChar

StartChar: x
Encoding: 120 120 89
Width: 1120
GlyphClass: 2
Flags: W
HStem: 0 21G<-6 202.179 824.811 1026> 1074 20G<270 452.769 939.393 1126>
VStem: -6 191<0 191> 956 170<924 1094>
DStem2: 443 1094 270 1094 0.45887 -0.888503<0 432.813 618.814 1151.9>
LayerCount: 2
Fore
SplineSet
-6 0 m 1,0,-1
 528 585 l 1,1,-1
 270 1094 l 1,2,-1
 443 1094 l 1,3,-1
 633 705 l 1,4,-1
 956 1094 l 1,5,-1
 1126 1094 l 1,6,-1
 696 589 l 1,7,-1
 1026 0 l 1,8,-1
 835 0 l 1,9,-1
 593 475 l 1,10,-1
 185 0 l 1,11,-1
 -6 0 l 1,0,-1
EndSplineSet
EndChar

StartChar: y
Encoding: 121 121 90
Width: 1120
GlyphClass: 2
Flags: W
HStem: -338 139<111.975 285.421> 1074 20G<302 469.665 1010.9 1188>
VStem: 302 164<930 1094>
DStem2: 466 1094 302 1094 0.193737 -0.981053<0 765.469> 490 142 582 42 0.499152 0.866515<-397.315 0 229.34 1090.47>
LayerCount: 2
Fore
SplineSet
-68 -98 m 1,0,-1
 68 -34 l 1,1,2
 72 -51 72 -51 74 -60 c 0,3,4
 106 -199 106 -199 192 -199 c 0,5,6
 231 -199 231 -199 263.5 -174.5 c 128,-1,7
 296 -150 296 -150 363 -60.5 c 128,-1,8
 430 29 430 29 490 142 c 1,9,-1
 302 1094 l 1,10,-1
 466 1094 l 1,11,-1
 604 341 l 1,12,-1
 1022 1094 l 1,13,-1
 1188 1094 l 1,14,-1
 582 42 l 2,15,16
 466 -158 466 -158 371 -248 c 128,-1,17
 276 -338 276 -338 166 -338 c 0,18,19
 24 -338 24 -338 -38 -207 c 0,20,21
 -54 -174 -54 -174 -68 -98 c 1,0,-1
EndSplineSet
EndChar

StartChar: z
Encoding: 122 122 91
Width: 1120
GlyphClass: 2
Flags: W
HStem: 0 131<267 902> 963 131<331 856>
LayerCount: 2
Fore
SplineSet
50 0 m 1,0,-1
 70 113 l 1,1,-1
 77 121 l 1,2,3
 611 692 611 692 856 963 c 1,4,-1
 308 963 l 1,5,-1
 331 1094 l 1,6,-1
 1070 1094 l 1,7,-1
 1050 981 l 1,8,-1
 1044 974 l 1,9,10
 527 420 527 420 267 131 c 1,11,-1
 925 131 l 1,12,-1
 902 0 l 1,13,-1
 50 0 l 1,0,-1
EndSplineSet
EndChar

StartChar: braceleft
Encoding: 123 123 92
Width: 1120
GlyphClass: 2
Flags: W
HStem: -49 131<353.265 697> 1393 131<563.57 952>
VStem: 182.041 146.485<113.737 463.312> 237.818 146.939<425.278 608.367>
DStem2: 192 264 342 293 0.172973 0.984927<-40.884 295.758 597.581 1142.1>
LayerCount: 2
Fore
SplineSet
253 732 m 5,0,1
 385 650 385 650 385 573 c 0,2,3
 385 537 385 537 377 492 c 2,4,-1
 342 293 l 2,5,6
 329 216 329 216 329 196.5 c 128,-1,7
 329 177 329 177 330.5 157.5 c 128,-1,8
 332 138 332 138 352 120 c 0,9,10
 392 82 392 82 492 82 c 2,11,-1
 720 82 l 1,12,-1
 697 -49 l 1,13,-1
 465 -49 l 2,14,15
 292 -48 292 -48 226 22 c 0,16,17
 182 70 182 70 182 164 c 0,18,19
 182 207 182 207 192 264 c 2,20,-1
 231 487 l 2,21,22
 238 526 238 526 238 557.5 c 128,-1,23
 238 589 238 589 228 609 c 0,24,25
 218 630 218 630 95 664 c 5,26,-1
 119 802 l 5,27,28
 190 818 190 818 246 855.5 c 128,-1,29
 302 893 302 893 317 978 c 2,30,-1
 362 1232 l 2,31,32
 390 1391 390 1391 475.5 1457.5 c 128,-1,33
 561 1524 561 1524 736 1524 c 2,34,-1
 975 1524 l 1,35,-1
 952 1393 l 1,36,-1
 724 1393 l 2,37,38
 566 1393 566 1393 527 1300 c 0,39,40
 515 1272 515 1272 500 1189 c 2,41,-1
 461 970 l 2,42,43
 444 874 444 874 383.5 820.5 c 128,-1,44
 323 767 323 767 253 732 c 5,0,1
EndSplineSet
EndChar

StartChar: bar
Encoding: 124 124 93
Width: 1120
GlyphClass: 2
Flags: W
HStem: -422 21G<313 449.525>
VStem: 313 133<-422 -289> 674 133<1493 1626>
DStem2: 313 -422 446 -422 0.173593 0.984817<23.0879 2079.57>
LayerCount: 2
Fore
SplineSet
313 -422 m 1,0,-1
 674 1626 l 1,1,-1
 807 1626 l 1,2,-1
 446 -422 l 1,3,-1
 313 -422 l 1,0,-1
EndSplineSet
EndChar

StartChar: braceright
Encoding: 125 125 94
Width: 1120
GlyphClass: 2
Flags: W
HStem: -49 131<169 540.28> 1393 131<424 774.062>
VStem: 732.873 148.309<839.11 1168.48> 793.5 148.105<1164.07 1365.45>
DStem2: 623 293 763 264 0.172973 0.984927<-183.932 348.838 651.03 1012.3>
LayerCount: 2
Fore
SplineSet
794 1292 m 0,0,1
 794 1391 794 1391 629 1393 c 1,2,-1
 401 1393 l 1,3,-1
 424 1524 l 1,4,-1
 663 1524 l 2,5,6
 758 1524 758 1524 812 1510 c 0,7,8
 942 1475 942 1475 942 1320 c 0,9,10
 942 1283 942 1283 933 1232 c 2,11,-1
 888 978 l 2,12,13
 881 940 881 940 881 908 c 128,-1,14
 881 876 881 876 891 856 c 0,15,16
 902 832 902 832 1024 802 c 5,17,-1
 1000 664 l 5,18,19
 929 646 929 646 873 609 c 128,-1,20
 817 572 817 572 802 487 c 2,21,-1
 763 264 l 2,22,23
 733 92 733 92 642 21.5 c 128,-1,24
 551 -49 551 -49 379 -49 c 2,25,-1
 146 -49 l 1,26,-1
 169 82 l 1,27,-1
 397 82 l 2,28,29
 503 82 503 82 541.5 112.5 c 128,-1,30
 580 143 580 143 594 175 c 128,-1,31
 608 207 608 207 623 293 c 2,32,-1
 658 492 l 2,33,34
 674 585 674 585 736 640.5 c 128,-1,35
 798 696 798 696 866 732 c 5,36,37
 733 814 733 814 733 882 c 0,38,39
 733 920 733 920 742 970 c 2,40,-1
 781 1189 l 2,41,42
 794 1259 794 1259 794 1292 c 0,0,1
EndSplineSet
EndChar

StartChar: asciitilde
Encoding: 126 126 95
Width: 1120
GlyphClass: 2
Flags: W
HStem: 478 180<668 863> 703 170<238 423>
LayerCount: 2
Fore
SplineSet
14.599609375 510 m 1,0,1
 25.400390625 554 25.400390625 554 29 565 c 0,2,3
 65 695 65 695 154.099609375 784 c 128,-1,4
 243.200195312 873 243.200195312 873 348.5 873 c 128,-1,5
 453.799804688 873 453.799804688 873 606.799804688 749 c 0,6,7
 675.200195312 694 675.200195312 694 707.599609375 676 c 128,-1,8
 740 658 740 658 770.599609375 658 c 0,9,10
 837.200195312 658 837.200195312 658 898.400390625 744 c 0,11,12
 923.599609375 779 923.599609375 779 956 856 c 1,13,-1
 1105.40039062 837 l 1,14,15
 1030.36035156 621.973632812 1030.36035156 621.973632812 896.150390625 532 c 0,16,17
 815.599609375 478 815.599609375 478 754.400390625 478 c 128,-1,18
 693.200195312 478 693.200195312 478 644.599609375 501 c 128,-1,19
 596 524 596 524 510.5 592.5 c 128,-1,20
 425 661 425 661 386.299804688 682 c 128,-1,21
 347.599609375 703 347.599609375 703 317 703 c 0,22,23
 254 703 254 703 200 603 c 0,24,25
 178.400390625 565 178.400390625 565 147.799804688 472 c 1,26,-1
 14.599609375 510 l 1,0,1
EndSplineSet
EndChar

StartChar: exclamdown
Encoding: 161 161 96
Width: 1120
GlyphClass: 2
Flags: W
HStem: 774 330<555.199 736.809>
VStem: 477.383 336.016<847.836 1029.39>
LayerCount: 2
Fore
SplineSet
306.6015625 -400 m 1,0,-1
 515.6015625 626 l 1,1,-1
 650.6015625 626 l 1,2,-1
 506.6015625 -400 l 1,3,-1
 306.6015625 -400 l 1,0,-1
615.6015625 774 m 256,4,5
 546.6015625 774 546.6015625 774 511.9921875 816.057617188 c 128,-1,6
 477.3828125 858.114257812 477.3828125 858.114257812 477.3828125 890.014648438 c 0,7,8
 477.3828125 995.18359375 477.3828125 995.18359375 541.9921875 1049.59179688 c 128,-1,9
 606.6015625 1104 606.6015625 1104 675.1015625 1104 c 128,-1,10
 743.6015625 1104 743.6015625 1104 778.5 1061.15039062 c 128,-1,11
 813.3984375 1018.30078125 813.3984375 1018.30078125 813.3984375 969.336914062 c 0,12,13
 813.3984375 882.459960938 813.3984375 882.459960938 749 828.229492188 c 128,-1,14
 684.6015625 774 684.6015625 774 615.6015625 774 c 256,4,5
EndSplineSet
EndChar

StartChar: cent
Encoding: 162 162 97
Width: 1120
GlyphClass: 2
Flags: W
VStem: 86.2559 153.922<456.602 903.621> 341.744 145<-62 83> 623.744 145<1391 1536>
DStem2: 341.744 -62 486.744 -62 0.173785 0.984784<25.1989 282.285 442.631 1290.59 1454.87 1622.69>
LayerCount: 2
Fore
SplineSet
86.255859375 622.045898438 m 0,0,1
 86.255859375 696.704101562 86.255859375 696.704101562 101.744140625 784 c 0,2,3
 164.744140625 1140 164.744140625 1140 418.744140625 1285 c 0,4,5
 498.744140625 1331 498.744140625 1331 570.744140625 1342 c 1,6,-1
 589.744140625 1346 l 1,7,-1
 623.744140625 1536 l 1,8,-1
 768.744140625 1536 l 1,9,-1
 734.744140625 1346 l 1,10,-1
 752.744140625 1346 l 2,11,12
 793.744140625 1346 793.744140625 1346 859.744140625 1307 c 128,-1,13
 925.744140625 1268 925.744140625 1268 954.744140625 1231 c 128,-1,14
 983.744140625 1194 983.744140625 1194 1033.74414062 1110 c 1,15,-1
 881.744140625 1021 l 1,16,17
 835.744140625 1177 835.744140625 1177 722.744140625 1208 c 2,18,-1
 711.744140625 1211 l 1,19,-1
 559.744140625 349 l 1,20,-1
 565.744140625 349 l 1,21,22
 683.744140625 384 683.744140625 384 819.744140625 518 c 1,23,-1
 904.744140625 412 l 1,24,25
 891.744140625 401 891.744140625 401 866.744140625 380 c 0,26,27
 715.744140625 251 715.744140625 251 535.744140625 216 c 1,28,-1
 486.744140625 -62 l 1,29,-1
 341.744140625 -62 l 1,30,-1
 390.744140625 216 l 1,31,32
 219.744140625 244 219.744140625 244 138.744140625 390 c 0,33,34
 86.255859375 484.608398438 86.255859375 484.608398438 86.255859375 622.045898438 c 0,0,1
255.244140625 792.5 m 0,35,36
 240.177734375 706.25 240.177734375 706.25 240.177734375 628.244140625 c 128,-1,37
 240.177734375 550.237304688 240.177734375 550.237304688 265.244140625 492.5 c 0,38,39
 309.744140625 390 309.744140625 390 402.744140625 357 c 1,40,-1
 414.744140625 352 l 1,41,-1
 565.744140625 1209 l 1,42,43
 515.744140625 1198 515.744140625 1198 466.244140625 1165 c 128,-1,44
 416.744140625 1132 416.744140625 1132 384.744140625 1097 c 0,45,46
 289.744140625 990 289.744140625 990 255.244140625 792.5 c 0,35,36
EndSplineSet
EndChar

StartChar: sterling
Encoding: 163 163 98
Width: 1120
GlyphClass: 2
Flags: W
HStem: -27 139<556.678 796.584> 47 139<285.268 530.797> 758 131<78 277 444 817> 1363 139<548.832 847.422>
VStem: 268.818 149.756<891.923 1231.44> 300.529 151.886<380.286 755.357>
LayerCount: 2
Fore
SplineSet
47 72 m 1,0,1
 70 100 70 100 137 191 c 0,2,3
 273 375 273 375 291 475 c 0,4,5
 300.529411765 527.941176471 300.529411765 527.941176471 300.529411765 599.911764706 c 128,-1,6
 300.529411765 671.882352941 300.529411765 671.882352941 293 758 c 1,7,-1
 55 758 l 1,8,-1
 78 889 l 1,9,-1
 277 889 l 1,10,11
 268.818181818 982.818181818 268.818181818 982.818181818 268.818181818 1040.86363636 c 128,-1,12
 268.818181818 1098.90909091 268.818181818 1098.90909091 277.909090909 1149.45454545 c 128,-1,13
 287 1200 287 1200 324.5 1266 c 128,-1,14
 362 1332 362 1332 413.5 1382.5 c 128,-1,15
 465 1433 465 1433 553.5 1467.5 c 128,-1,16
 642 1502 642 1502 736.5 1502 c 128,-1,17
 831 1502 831 1502 913.5 1457 c 128,-1,18
 996 1412 996 1412 1037 1335 c 0,19,20
 1049 1313 1049 1313 1073 1239 c 1,21,-1
 924 1192 l 1,22,23
 919 1206 919 1206 918 1213 c 0,24,25
 895 1284 895 1284 841 1323.5 c 128,-1,26
 787 1363 787 1363 723 1363 c 0,27,28
 595 1363 595 1363 519.5 1297 c 128,-1,29
 444 1231 444 1231 427.5 1137 c 0,30,31
 418.573770492 1086.14754098 418.573770492 1086.14754098 418.573770492 1022.91803279 c 128,-1,32
 418.573770492 959.68852459 418.573770492 959.68852459 425 889 c 1,33,-1
 840 889 l 1,34,-1
 817 758 l 1,35,-1
 444 758 l 1,36,37
 452.415584416 674.779220779 452.415584416 674.779220779 452.415584416 600.623376623 c 128,-1,38
 452.415584416 526.467532468 452.415584416 526.467532468 441.5 465.5 c 0,39,40
 421 351 421 351 322 217 c 2,41,-1
 284 166 l 1,42,43
 354 186 354 186 426 186 c 128,-1,44
 498 186 498 186 573 149 c 128,-1,45
 648 112 648 112 680 112 c 0,46,47
 745 112 745 112 848 194 c 1,48,-1
 919 96 l 1,49,50
 866 51 866 51 838.5 31 c 128,-1,51
 811 11 811 11 759 -8 c 128,-1,52
 707 -27 707 -27 650.5 -27 c 128,-1,53
 594 -27 594 -27 528.5 3.5 c 128,-1,54
 463 34 463 34 440 40.5 c 128,-1,55
 417 47 417 47 372.5 47 c 128,-1,56
 328 47 328 47 300 39.5 c 128,-1,57
 272 32 272 32 198 3.5 c 128,-1,58
 124 -25 124 -25 109 -33 c 1,59,-1
 47 72 l 1,0,1
EndSplineSet
EndChar

StartChar: currency
Encoding: 164 164 99
Width: 1120
GlyphClass: 2
Flags: W
HStem: 400 125<400.356 656.231> 973 125<465.468 721.198>
VStem: 220.436 127.151<577.279 853.461> 773.721 126.392<644.631 919.85>
DStem2: 12 360 95 261 0.756773 0.653678<0 309.919 1028.9 1336.02> 267 1235 149 1135 0.626864 -0.779128<3.94283 257.476 867.352 1123.05>
LayerCount: 2
Fore
SplineSet
900.113207547 815.873620506 m 0,0,1
 900.113207547 679.785591767 900.113207547 679.785591767 810 561 c 1,2,-1
 971 360 l 1,3,-1
 853 261 l 1,4,-1
 697 457 l 1,5,6
 605 400 605 400 498.5 400 c 128,-1,7
 392 400 392 400 322 457 c 1,8,-1
 95 261 l 1,9,-1
 12 360 l 1,10,-1
 244 562 l 1,11,12
 220.436363636 615.672727273 220.436363636 615.672727273 220.436363636 679.199338843 c 0,13,14
 220.436363636 821.246590909 220.436363636 821.246590909 310 936 c 1,15,-1
 149 1135 l 1,16,-1
 267 1235 l 1,17,-1
 423 1040 l 1,18,19
 517 1098 517 1098 623 1098 c 128,-1,20
 729 1098 729 1098 800 1040 c 1,21,-1
 1025 1235 l 1,22,-1
 1108 1135 l 1,23,-1
 877 936 l 1,24,25
 900.113207547 879.20754717 900.113207547 879.20754717 900.113207547 815.873620506 c 0,0,1
347.58778626 701.32352427 m 0,26,27
 347.58778626 636.389312977 347.58778626 636.389312977 389.79389313 580.694656489 c 128,-1,28
 432 525 432 525 521 525 c 128,-1,29
 610 525 610 525 681.5 589 c 0,30,31
 773.720930233 671.547406082 773.720930233 671.547406082 773.720930233 794.641427799 c 0,32,33
 773.720930233 859.627906977 773.720930233 859.627906977 731.860465116 916.313953488 c 128,-1,34
 690 973 690 973 601.5 973 c 128,-1,35
 513 973 513 973 441 909 c 0,36,37
 347.58778626 825.96692112 347.58778626 825.96692112 347.58778626 701.32352427 c 0,26,27
EndSplineSet
EndChar

StartChar: yen
Encoding: 165 165 100
Width: 1120
GlyphClass: 2
Flags: W
HStem: 0 21G<255 425.857> 494 131<91 353 522 783> 754 131<107 307 682 860> 1455 20G<146 353 774 1052>
VStem: 146 164<1311 1475> 887 165<1310 1475>
DStem2: 310 1475 146 1475 0.261195 -0.965286<0 568.735> 305 246 431 56 0.194589 0.980885<-218.336 252.6> 480 802 602 754 0.529101 0.848559<0 23.8195 177.309 786.424>
LayerCount: 2
Fore
SplineSet
68 494 m 1,0,-1
 91 625 l 1,1,-1
 376 625 l 1,2,-1
 342 754 l 1,3,-1
 84 754 l 1,4,-1
 107 885 l 1,5,-1
 307 885 l 1,6,-1
 146 1475 l 1,7,-1
 310 1475 l 1,8,9
 396 1103 396 1103 480 802 c 1,10,11
 661 1089 661 1089 887 1475 c 1,12,-1
 1052 1475 l 1,13,14
 808 1090 808 1090 682 885 c 1,15,-1
 883 885 l 1,16,-1
 860 754 l 1,17,-1
 602 754 l 1,18,-1
 522 625 l 1,19,-1
 806 625 l 1,20,-1
 783 494 l 1,21,-1
 499 494 l 1,22,-1
 431 56 l 1,23,-1
 423 0 l 1,24,-1
 255 0 l 1,25,26
 265 43 265 43 305 246 c 2,27,-1
 342 430 l 1,28,-1
 353 494 l 1,29,-1
 68 494 l 1,0,-1
EndSplineSet
EndChar

StartChar: brokenbar
Encoding: 166 166 101
Width: 1120
GlyphClass: 2
Flags: W
HStem: -422 21G<313 449.501>
VStem: 313 133<-422 -289> 435 133<142 275> 551 133<932 1065> 674 133<1493 1626>
DStem2: 313 -422 446 -422 0.173593 0.984817<23.0879 707.596 1397.85 2079.57>
LayerCount: 2
Fore
SplineSet
313 -422 m 1,0,-1
 435 275 l 1,1,-1
 568 275 l 1,2,-1
 446 -422 l 1,3,-1
 313 -422 l 1,0,-1
551 932 m 1,4,-1
 674 1626 l 1,5,-1
 807 1626 l 1,6,-1
 684 932 l 1,7,-1
 551 932 l 1,4,-1
EndSplineSet
EndChar

StartChar: section
Encoding: 167 167 102
Width: 1120
GlyphClass: 2
Flags: W
HStem: -101 139<307.241 583.116> 1363 139<534.722 811.203>
VStem: 125.843 152.185<68.0158 260.439> 167.701 142.845<726.823 917.161> 318.939 152.534<1099.48 1302.62> 646.571 153.096<97.9288 301.888> 808.793 141.901<482.12 674.464> 839.719 154.438<1142.45 1333.19>
DStem2: 495.5 601 258 600 0.754564 -0.656226<-272.19 273.326> 499.737 1115.26 428 967 0.755653 -0.654972<27.1697 571.299>
LayerCount: 2
Fore
SplineSet
768 350 m 1,0,1
 799.666992188 293 799.666992188 293 799.666992188 247.333007812 c 128,-1,2
 799.666992188 201.666992188 799.666992188 201.666992188 793 164.5 c 0,3,4
 773 53 773 53 671.5 -24 c 128,-1,5
 570 -101 570 -101 424 -101 c 0,6,7
 236 -101 236 -101 163 15 c 0,8,9
 125.842773438 73.2861328125 125.842773438 73.2861328125 125.842773438 127.323242188 c 128,-1,10
 125.842773438 181.361328125 125.842773438 181.361328125 143 262 c 1,11,-1
 290 262 l 1,12,-1
 283 223 l 2,13,14
 278.02734375 195.123046875 278.02734375 195.123046875 278.02734375 171.447265625 c 0,15,16
 278.02734375 38 278.02734375 38 436 38 c 0,17,18
 520 38 520 38 576 76.5 c 0,19,20
 646.571289062 125.017578125 646.571289062 125.017578125 646.571289062 209.05859375 c 0,21,22
 646.571289062 257.857421875 646.571289062 257.857421875 620.286132812 284.928710938 c 128,-1,23
 594 312 594 312 445 437.5 c 128,-1,24
 296 563 296 563 258 600 c 0,25,26
 167.701171875 688.65625 167.701171875 688.65625 167.701171875 787.421875 c 0,27,28
 167.701171875 871.515625 167.701171875 871.515625 219.350585938 939.2578125 c 128,-1,29
 271 1007 271 1007 351 1053 c 1,30,31
 318.939453125 1098.30273438 318.939453125 1098.30273438 318.939453125 1148.22753906 c 128,-1,32
 318.939453125 1198.15136719 318.939453125 1198.15136719 325 1233 c 0,33,34
 345 1348 345 1348 446 1425 c 128,-1,35
 547 1502 547 1502 696 1502 c 0,36,37
 882 1502 882 1502 957 1387 c 0,38,39
 994.157226562 1328.71386719 994.157226562 1328.71386719 994.157226562 1271.57519531 c 128,-1,40
 994.157226562 1214.43554688 994.157226562 1214.43554688 975 1141 c 1,41,-1
 828 1141 l 1,42,-1
 835 1180 l 2,43,44
 839.71875 1206.98632812 839.71875 1206.98632812 839.71875 1229.99316406 c 0,45,46
 839.71875 1363 839.71875 1363 682 1363 c 0,47,48
 598 1363 598 1363 542 1325 c 0,49,50
 471.473632812 1277.14257812 471.473632812 1277.14257812 471.473632812 1193.453125 c 0,51,52
 471.473632812 1144.52636719 471.473632812 1144.52636719 499.737304688 1115.26269531 c 128,-1,53
 528 1086 528 1086 675.5 963 c 128,-1,54
 823 840 823 840 860 803 c 0,55,56
 950.694335938 712.305664062 950.694335938 712.305664062 950.694335938 613.302734375 c 0,57,58
 950.694335938 530.166992188 950.694335938 530.166992188 897.34765625 460.583007812 c 128,-1,59
 844 391 844 391 768 350 c 1,0,1
428 967 m 1,60,61
 310.545898438 913.505859375 310.545898438 913.505859375 310.545898438 803.818359375 c 0,62,63
 310.545898438 781.63671875 310.545898438 781.63671875 343.272460938 739.818359375 c 128,-1,64
 376 698 376 698 495.5 601 c 128,-1,65
 615 504 615 504 691 436 c 1,66,67
 790.803710938 472.663085938 790.803710938 472.663085938 807.5 569.5 c 0,68,69
 808.79296875 577 808.79296875 577 808.79296875 598.87890625 c 128,-1,70
 808.79296875 620.758789062 808.79296875 620.758789062 775.896484375 661.87890625 c 128,-1,71
 743 703 743 703 625 800.5 c 128,-1,72
 507 898 507 898 428 967 c 1,60,61
EndSplineSet
EndChar

StartChar: dieresis
Encoding: 168 168 103
Width: 1120
GlyphClass: 2
Flags: W
HStem: 1217 283<288.809 461.566 657.809 830.034>
VStem: 231.536 287.639<1272.48 1442.85> 600.536 287.928<1274.84 1442.84>
LayerCount: 2
Fore
SplineSet
350.986328125 1217 m 128,-1,1
 292.486328125 1217 292.486328125 1217 262.01171875 1253.65820312 c 128,-1,2
 231.536132812 1290.31640625 231.536132812 1290.31640625 231.536132812 1317.77539062 c 0,3,4
 231.536132812 1407.05273438 231.536132812 1407.05273438 286.51171875 1453.52636719 c 128,-1,5
 341.486328125 1500 341.486328125 1500 400.486328125 1500 c 128,-1,6
 459.486328125 1500 459.486328125 1500 489.331054688 1463.57226562 c 128,-1,7
 519.174804688 1427.14453125 519.174804688 1427.14453125 519.174804688 1399.78320312 c 0,8,9
 519.174804688 1309.7265625 519.174804688 1309.7265625 464.331054688 1263.36328125 c 128,-1,0
 409.486328125 1217 409.486328125 1217 350.986328125 1217 c 128,-1,1
719.986328125 1217 m 128,-1,11
 661.486328125 1217 661.486328125 1217 631.01171875 1253.21679688 c 128,-1,12
 600.536132812 1289.43359375 600.536132812 1289.43359375 600.536132812 1317.02539062 c 0,13,14
 600.536132812 1407.05273438 600.536132812 1407.05273438 655.51171875 1453.52636719 c 128,-1,15
 710.486328125 1500 710.486328125 1500 769.486328125 1500 c 128,-1,16
 828.486328125 1500 828.486328125 1500 858.474609375 1463.39648438 c 128,-1,17
 888.463867188 1426.79199219 888.463867188 1426.79199219 888.463867188 1399.54785156 c 0,18,19
 888.463867188 1311.10449219 888.463867188 1311.10449219 833.474609375 1264.05175781 c 128,-1,10
 778.486328125 1217 778.486328125 1217 719.986328125 1217 c 128,-1,11
EndSplineSet
EndChar

StartChar: copyright
Encoding: 169 169 104
Width: 1120
GlyphClass: 2
Flags: W
HStem: 531 84<355.525 646.725> 703 84<452.388 620.001> 1115 21G<671.736 765.736> 1182 84<509.35 671.265> 1363 84<472.65 762.855>
VStem: 136.197 90.8896<744.407 1106.12> 344.43 92.1025<800.678 1100.03> 635.736 93<801.416 868> 671.736 94<1115 1145.81> 892.852 90.9512<871.911 1233.79>
LayerCount: 2
Fore
SplineSet
160.236328125 760.5 m 0,0,1
 136.197265625 828.127929688 136.197265625 828.127929688 136.197265625 885.845703125 c 0,2,3
 136.197265625 1123.86425781 136.197265625 1123.86425781 303.736328125 1294 c 0,4,5
 456.736328125 1447 456.736328125 1447 651.236328125 1447 c 0,6,7
 747.736328125 1447 747.736328125 1447 834.736328125 1385.5 c 128,-1,8
 921.736328125 1324 921.736328125 1324 959.736328125 1217.5 c 0,9,10
 983.802734375 1150.04980469 983.802734375 1150.04980469 983.802734375 1091.89160156 c 0,11,12
 983.802734375 854.369140625 983.802734375 854.369140625 815.736328125 685 c 0,13,14
 661.736328125 531 661.736328125 531 467.736328125 531 c 0,15,16
 370.736328125 531 370.736328125 531 283.736328125 593 c 0,17,18
 197.736328125 655 197.736328125 655 160.236328125 760.5 c 0,0,1
227.086914062 912.950195312 m 0,19,20
 227.086914062 814.276367188 227.086914062 814.276367188 270.411132812 746.638671875 c 128,-1,21
 313.736328125 679 313.736328125 679 370.736328125 647 c 128,-1,22
 427.736328125 615 427.736328125 615 500.236328125 615 c 128,-1,23
 572.736328125 615 572.736328125 615 657.736328125 662.5 c 128,-1,24
 742.736328125 710 742.736328125 710 805.236328125 797.5 c 0,25,26
 892.8515625 920.162109375 892.8515625 920.162109375 892.8515625 1066.46679688 c 0,27,28
 892.8515625 1165.28417969 892.8515625 1165.28417969 850.293945312 1231.64257812 c 128,-1,29
 807.736328125 1298 807.736328125 1298 748.736328125 1330.5 c 128,-1,30
 689.736328125 1363 689.736328125 1363 618.236328125 1363 c 128,-1,31
 546.736328125 1363 546.736328125 1363 462.236328125 1315.5 c 128,-1,32
 377.736328125 1268 377.736328125 1268 314.736328125 1180 c 0,33,34
 227.086914062 1057.56933594 227.086914062 1057.56933594 227.086914062 912.950195312 c 0,19,20
344.4296875 884.118164062 m 0,35,36
 344.4296875 926.581054688 344.4296875 926.581054688 353.736328125 979 c 0,37,38
 375.736328125 1105 375.736328125 1105 438.736328125 1185.5 c 128,-1,39
 501.736328125 1266 501.736328125 1266 618.736328125 1266 c 0,40,41
 686.736328125 1266 686.736328125 1266 726.337890625 1232.19335938 c 128,-1,42
 765.940429688 1198.38671875 765.940429688 1198.38671875 765.940429688 1149.27539062 c 0,43,44
 765.940429688 1145.68164062 765.940429688 1145.68164062 765.736328125 1142 c 2,45,-1
 765.736328125 1115 l 1,46,-1
 671.736328125 1115 l 1,47,48
 672.736328125 1140 672.736328125 1140 671.736328125 1146 c 0,49,50
 663.736328125 1182 663.736328125 1182 603.736328125 1182 c 0,51,52
 478.736328125 1182 478.736328125 1182 444.236328125 984.5 c 0,53,54
 436.532226562 940.3984375 436.532226562 940.3984375 436.532226562 906.14453125 c 0,55,56
 436.532226562 787 436.532226562 787 528.133789062 787 c 128,-1,57
 619.736328125 787 619.736328125 787 635.736328125 868 c 1,58,-1
 728.736328125 868 l 1,59,60
 703.736328125 788 703.736328125 788 654.236328125 745.5 c 128,-1,61
 604.736328125 703 604.736328125 703 513.736328125 703 c 0,62,63
 344.4296875 703 344.4296875 703 344.4296875 884.118164062 c 0,35,36
EndSplineSet
EndChar

StartChar: ordfeminine
Encoding: 170 170 105
Width: 1120
GlyphClass: 2
Flags: W
HStem: 543 106<426.819 596.248> 924 106<463.73 682.853> 1114 21G<432.604 501.835> 1161 107<442.546 702.522>
VStem: 297.694 115.343<666.351 872.746> 646.335 123<551.306 616> 711.092 111.214<899.908 1153.39>
DStem2: 659.335 756 774.335 780 0.173555 0.984824<-64.7988 150.292 247.76 316.12>
LayerCount: 2
Fore
SplineSet
329.334960938 608.5 m 0,0,1
 297.694335938 654.5546875 297.694335938 654.5546875 297.694335938 702.0703125 c 0,2,3
 297.694335938 866.142578125 297.694335938 866.142578125 398.334960938 959.5 c 0,4,5
 474.334960938 1030 474.334960938 1030 576.334960938 1030 c 0,6,7
 625.334960938 1030 625.334960938 1030 702.334960938 1000 c 1,8,9
 711.091796875 1039.16210938 711.091796875 1039.16210938 711.091796875 1068.79882812 c 0,10,11
 711.091796875 1161 711.091796875 1161 626.334960938 1161 c 0,12,13
 569.334960938 1161 569.334960938 1161 434.334960938 1114 c 1,14,-1
 425.334960938 1218 l 1,15,16
 563.334960938 1268 563.334960938 1268 652.834960938 1268 c 128,-1,17
 742.334960938 1268 742.334960938 1268 789.334960938 1201 c 0,18,19
 822.305664062 1154 822.305664062 1154 822.305664062 1103.31347656 c 128,-1,20
 822.305664062 1052.62695312 822.305664062 1052.62695312 816.334960938 1018 c 2,21,-1
 774.334960938 780 l 2,22,23
 759.251953125 697.041992188 759.251953125 697.041992188 759.251953125 652.979492188 c 128,-1,24
 759.251953125 608.916992188 759.251953125 608.916992188 769.334960938 553 c 1,25,-1
 659.334960938 540 l 1,26,27
 658.334960938 549 658.334960938 549 655.334960938 559 c 128,-1,28
 652.334960938 569 652.334960938 569 646.334960938 616 c 1,29,30
 564.334960938 543 564.334960938 543 469.334960938 543 c 128,-1,31
 374.334960938 543 374.334960938 543 329.334960938 608.5 c 0,0,1
565.834960938 924 m 128,-1,33
 516.334960938 924 516.334960938 924 464.685546875 880.662109375 c 128,-1,34
 413.037109375 837.32421875 413.037109375 837.32421875 413.037109375 732.41015625 c 0,35,36
 413.037109375 704.821289062 413.037109375 704.821289062 430.685546875 676.91015625 c 128,-1,37
 448.334960938 649 448.334960938 649 493.334960938 649 c 0,38,39
 568.334960938 649 568.334960938 649 659.334960938 756 c 1,40,-1
 684.334960938 897 l 1,41,32
 615.334960938 924 615.334960938 924 565.834960938 924 c 128,-1,33
EndSplineSet
EndChar

StartChar: guillemotleft
Encoding: 171 171 106
Width: 1120
GlyphClass: 2
Flags: W
DStem2: 216 741 22 741 0.658205 -0.752839<0 577.413> 22 741 216 741 0.777134 0.629335<150.764 838.551> 564 741 368 741 0.658205 -0.752839<0 577.413> 368 741 564 741 0.777134 0.629335<152.318 838.551>
LayerCount: 2
Fore
SplineSet
22 741 m 1,0,-1
 674 1269 l 1,1,-1
 752 1172 l 1,2,-1
 216 741 l 1,3,-1
 598 308 l 1,4,-1
 488 208 l 1,5,-1
 22 741 l 1,0,-1
368 741 m 1,6,-1
 1020 1269 l 1,7,-1
 1098 1172 l 1,8,-1
 564 741 l 1,9,-1
 946 308 l 1,10,-1
 834 208 l 1,11,-1
 368 741 l 1,6,-1
EndSplineSet
EndChar

StartChar: logicalnot
Encoding: 172 172 107
Width: 1120
GlyphClass: 2
Flags: W
HStem: 0 21G<841 947.525> 494 96<89 928>
VStem: 841 103<0 103>
DStem2: 841 0 944 0 0.173595 0.984817<17.8803 501.602>
LayerCount: 2
Fore
SplineSet
72 494 m 1,0,-1
 89 590 l 1,1,-1
 1048 590 l 1,2,-1
 944 0 l 1,3,-1
 841 0 l 1,4,-1
 928 494 l 1,5,-1
 72 494 l 1,0,-1
EndSplineSet
EndChar

StartChar: uni00AD
Encoding: 173 173 108
Width: 1120
GlyphClass: 2
Flags: W
HStem: 668 131<305 815>
VStem: 282 556
LayerCount: 2
Fore
SplineSet
282 668 m 1,0,-1
 305 799 l 1,1,-1
 838 799 l 1,2,-1
 815 668 l 1,3,-1
 282 668 l 1,0,-1
EndSplineSet
EndChar

StartChar: registered
Encoding: 174 174 109
Width: 1120
GlyphClass: 2
Flags: W
HStem: 531 84<355.623 649.053> 933 78<492.261 550.261> 1188 78<524.261 679.427> 1363 84<476.718 763.112>
VStem: 136.722 90.4971<746.935 1105.43> 682.2 91.3662<1034.55 1179.5> 892.25 91.0283<868.556 1232.36>
DStem2: 344.261 721 446.261 721 0.173476 0.984838<17.6946 232.378 311.278 491.145> 644.261 954 550.261 933 0.486343 -0.873768<0 212.342>
LayerCount: 2
Fore
SplineSet
160.760742188 760.5 m 0,0,1
 136.721679688 828.127929688 136.721679688 828.127929688 136.721679688 885.525390625 c 0,2,3
 136.721679688 1124.17285156 136.721679688 1124.17285156 304.260742188 1293 c 0,4,5
 456.150390625 1447 456.150390625 1447 652.260742188 1447 c 0,6,7
 748.260742188 1447 748.260742188 1447 835.260742188 1385.5 c 128,-1,8
 922.260742188 1324 922.260742188 1324 959.260742188 1216.5 c 0,9,10
 983.278320312 1146.71972656 983.278320312 1146.71972656 983.278320312 1088.58789062 c 0,11,12
 983.278320312 852.017578125 983.278320312 852.017578125 816.260742188 685 c 0,13,14
 664.399414062 531 664.399414062 531 467.260742188 531 c 0,15,16
 370.260742188 531 370.260742188 531 284.260742188 593 c 256,17,18
 198.260742188 655 198.260742188 655 160.760742188 760.5 c 0,0,1
762.260742188 742 m 1,19,20
 892.25 882.493164062 892.25 882.493164062 892.25 1063.24707031 c 0,21,22
 892.25 1161.13476562 892.25 1161.13476562 849.754882812 1229.56738281 c 128,-1,23
 807.260742188 1298 807.260742188 1298 748.760742188 1330.5 c 128,-1,24
 690.260742188 1363 690.260742188 1363 618.260742188 1363 c 128,-1,25
 546.260742188 1363 546.260742188 1363 462.260742188 1315 c 128,-1,26
 378.260742188 1267 378.260742188 1267 315.260742188 1179 c 0,27,28
 227.21875 1056.02148438 227.21875 1056.02148438 227.21875 912.171875 c 0,29,30
 227.21875 813.75 227.21875 813.75 271.239257812 746.375 c 0,31,32
 357.076171875 615 357.076171875 615 489.66796875 615 c 128,-1,33
 622.260742188 615 622.260742188 615 742.260742188 721 c 1,34,-1
 662.260742188 721 l 1,35,-1
 550.260742188 933 l 1,36,-1
 480.260742188 933 l 1,37,-1
 468.260742188 867 l 2,38,39
 458.260742188 812 458.260742188 812 454.260742188 773 c 128,-1,40
 450.260742188 734 450.260742188 734 446.260742188 721 c 1,41,-1
 344.260742188 721 l 1,42,43
 346.260742188 733 346.260742188 733 350.260742188 746 c 1,44,-1
 418.260742188 1117 l 1,45,-1
 436.260742188 1240 l 2,46,47
 438.260742188 1254 438.260742188 1254 440.260742188 1266 c 1,48,-1
 604.260742188 1266 l 2,49,50
 668.260742188 1266 668.260742188 1266 708.260742188 1246 c 0,51,52
 773.56640625 1212.53027344 773.56640625 1212.53027344 773.56640625 1139.74414062 c 0,53,54
 773.56640625 1123.3671875 773.56640625 1123.3671875 770.260742188 1105 c 0,55,56
 750.260742188 1000 750.260742188 1000 644.260742188 954 c 1,57,-1
 762.260742188 742 l 1,19,20
492.260742188 1011 m 1,58,-1
 550.260742188 1011 l 2,59,60
 664.260742188 1011 664.260742188 1011 680.260742188 1106 c 0,61,62
 682.200195312 1117.39355469 682.200195312 1117.39355469 682.200195312 1137.31835938 c 0,63,64
 682.200195312 1188 682.200195312 1188 560.260742188 1188 c 2,65,-1
 524.260742188 1188 l 1,66,-1
 492.260742188 1011 l 1,58,-1
EndSplineSet
EndChar

StartChar: macron
Encoding: 175 175 110
Width: 1120
GlyphClass: 2
Flags: W
HStem: 1733 143<46 1074>
LayerCount: 2
Fore
SplineSet
20 1733 m 1,0,-1
 46 1876 l 1,1,-1
 1100 1876 l 1,2,-1
 1074 1733 l 1,3,-1
 20 1733 l 1,0,-1
EndSplineSet
EndChar

StartChar: degree
Encoding: 176 176 111
Width: 1120
GlyphClass: 2
Flags: W
HStem: 855 139<405.764 662.597> 1369 139<456.175 712.195>
VStem: 206.203 153.147<1043.23 1273.81> 759.648 154.148<1088.02 1320.66>
LayerCount: 2
Fore
SplineSet
206.203125 1124.421875 m 0,0,1
 206.203125 1296.9453125 206.203125 1296.9453125 355.01171875 1414 c 0,2,3
 474.51171875 1508 474.51171875 1508 618.51171875 1508 c 128,-1,4
 762.51171875 1508 762.51171875 1508 847.51171875 1413 c 256,5,6
 913.796875 1338.91699219 913.796875 1338.91699219 913.796875 1239.90234375 c 0,7,8
 913.796875 1069.70019531 913.796875 1069.70019531 766.51171875 950.5 c 0,9,10
 648.51171875 855 648.51171875 855 502.51171875 855 c 256,11,12
 356.51171875 855 356.51171875 855 272.01171875 950.5 c 0,13,14
 206.203125 1024.87597656 206.203125 1024.87597656 206.203125 1124.421875 c 0,0,1
359.350585938 1147.94726562 m 0,15,16
 359.350585938 1091.58105469 359.350585938 1091.58105469 401.931640625 1042.79003906 c 128,-1,17
 444.51171875 994 444.51171875 994 526.51171875 994 c 256,18,19
 608.51171875 994 608.51171875 994 676.01171875 1048.5 c 0,20,21
 759.6484375 1116.02832031 759.6484375 1116.02832031 759.6484375 1216.13769531 c 0,22,23
 759.6484375 1273.09570312 759.6484375 1273.09570312 716.580078125 1321.04785156 c 128,-1,24
 673.51171875 1369 673.51171875 1369 592.01171875 1369 c 128,-1,25
 510.51171875 1369 510.51171875 1369 443.51171875 1314.5 c 0,26,27
 359.350585938 1246.04003906 359.350585938 1246.04003906 359.350585938 1147.94726562 c 0,15,16
EndSplineSet
EndChar

StartChar: plusminus
Encoding: 177 177 112
Width: 1120
GlyphClass: 2
Flags: W
HStem: 0 143<14 990> 664 143<130 534 702 1106>
VStem: 450 143<180 323> 646 143<1151 1294>
DStem2: 450 180 593 180 0.173281 0.984872<24.7792 491.234 661.182 1131.11>
LayerCount: 2
Fore
SplineSet
-12 0 m 1,0,-1
 14 143 l 1,1,-1
 1014 143 l 1,2,-1
 990 0 l 1,3,-1
 -12 0 l 1,0,-1
106 664 m 1,4,-1
 130 807 l 1,5,-1
 560 807 l 1,6,-1
 646 1294 l 1,7,-1
 789 1294 l 1,8,-1
 702 807 l 1,9,-1
 1132 807 l 1,10,-1
 1106 664 l 1,11,-1
 678 664 l 1,12,-1
 593 180 l 1,13,-1
 450 180 l 1,14,-1
 534 664 l 1,15,-1
 106 664 l 1,4,-1
EndSplineSet
EndChar

StartChar: uni00B2
Encoding: 178 178 113
Width: 1120
GlyphClass: 2
Flags: W
HStem: 712 117<430.115 744.115> 1370 118<555.806 715.863>
VStem: 718.115 130.77<1216.23 1367.79>
LayerCount: 2
Fore
SplineSet
271.115234375 712 m 1,0,1
 291.115234375 819 291.115234375 819 307.115234375 864 c 128,-1,2
 323.115234375 909 323.115234375 909 367.615234375 965.5 c 128,-1,3
 412.115234375 1022 412.115234375 1022 523.615234375 1099.5 c 128,-1,4
 635.115234375 1177 635.115234375 1177 672.115234375 1215 c 0,5,6
 718.115234375 1262.24316406 718.115234375 1262.24316406 718.115234375 1311.95898438 c 0,7,8
 718.115234375 1370 718.115234375 1370 654.615234375 1370 c 128,-1,9
 591.115234375 1370 591.115234375 1370 560.115234375 1338 c 128,-1,10
 529.115234375 1306 529.115234375 1306 509.115234375 1225 c 1,11,-1
 373.115234375 1225 l 1,12,13
 408.115234375 1347 408.115234375 1347 458.115234375 1400 c 0,14,15
 540.115234375 1488 540.115234375 1488 651.615234375 1488 c 128,-1,16
 763.115234375 1488 763.115234375 1488 806 1438.86035156 c 128,-1,17
 848.884765625 1389.72167969 848.884765625 1389.72167969 848.884765625 1335.60644531 c 0,18,19
 848.884765625 1254.33691406 848.884765625 1254.33691406 807 1197.66796875 c 128,-1,20
 765.115234375 1141 765.115234375 1141 714.115234375 1101 c 128,-1,21
 663.115234375 1061 663.115234375 1061 561.115234375 986 c 128,-1,22
 459.115234375 911 459.115234375 911 430.115234375 829 c 1,23,-1
 764.115234375 829 l 1,24,-1
 744.115234375 712 l 1,25,-1
 271.115234375 712 l 1,0,1
EndSplineSet
EndChar

StartChar: uni00B3
Encoding: 179 179 114
Width: 1120
GlyphClass: 2
Flags: W
HStem: 700 118<440.361 641.284> 1058 119<526.796 672.19> 1370 118<526.555 699.379>
VStem: 687.44 131.077<856.745 1039.51> 715.351 128.854<1212.35 1353.58>
LayerCount: 2
Fore
SplineSet
275.795898438 872 m 1,0,-1
 408.795898438 939 l 1,1,2
 418.795898438 908 418.795898438 908 423.795898438 892 c 0,3,4
 451.795898438 818 451.795898438 818 534.795898438 818 c 0,5,6
 594.795898438 818 594.795898438 818 634.795898438 849 c 0,7,8
 687.440429688 889.799804688 687.440429688 889.799804688 687.440429688 961.248046875 c 0,9,10
 687.440429688 1058 687.440429688 1058 545.795898438 1058 c 2,11,-1
 505.795898438 1058 l 1,12,-1
 526.795898438 1177 l 1,13,14
 564.795898438 1177 564.795898438 1177 597.795898438 1179 c 128,-1,15
 630.795898438 1181 630.795898438 1181 668.795898438 1210.5 c 0,16,17
 715.350585938 1246.64160156 715.350585938 1246.64160156 715.350585938 1285.20996094 c 128,-1,18
 715.350585938 1323.77734375 715.350585938 1323.77734375 693.573242188 1346.88867188 c 128,-1,19
 671.795898438 1370 671.795898438 1370 628.795898438 1370 c 0,20,21
 541.795898438 1370 541.795898438 1370 472.795898438 1259 c 1,22,-1
 366.795898438 1323 l 1,23,24
 490.795898438 1488 490.795898438 1488 648.795898438 1488 c 0,25,26
 753.795898438 1488 753.795898438 1488 799 1430.38671875 c 128,-1,27
 844.204101562 1372.77246094 844.204101562 1372.77246094 844.204101562 1312.39453125 c 0,28,29
 844.204101562 1246.2578125 844.204101562 1246.2578125 818.5 1209.62890625 c 128,-1,30
 792.795898438 1173 792.795898438 1173 739.795898438 1129 c 1,31,-1
 755.795898438 1117 l 1,32,33
 818.517578125 1067.94824219 818.517578125 1067.94824219 818.517578125 988.505859375 c 0,34,35
 818.517578125 969.154296875 818.517578125 969.154296875 814.795898438 948 c 0,36,37
 795.795898438 840 795.795898438 840 713.295898438 770 c 128,-1,38
 630.795898438 700 630.795898438 700 509.795898438 700 c 0,39,40
 428.795898438 700 428.795898438 700 379.295898438 732.5 c 128,-1,41
 329.795898438 765 329.795898438 765 288.795898438 845 c 0,42,43
 281.795898438 860 281.795898438 860 275.795898438 872 c 1,0,-1
EndSplineSet
EndChar

StartChar: acute
Encoding: 180 180 115
Width: 1120
GlyphClass: 2
Flags: W
HStem: 1189 388
VStem: 309 502
LayerCount: 2
Fore
SplineSet
309 1289 m 1,0,-1
 721 1577 l 1,1,-1
 811 1451 l 1,2,-1
 369 1189 l 1,3,-1
 309 1289 l 1,0,-1
EndSplineSet
EndChar

StartChar: mu
Encoding: 181 181 116
Width: 1120
GlyphClass: 2
Flags: W
HStem: -27 139<401.099 645.343> 0 21G<738 886.519> 1074 20G<302 470 898 1087>
DStem2: 33 -440 199 -440 0.173968 0.984751<28.8788 574.273 822.243 1557.75> 738 0 883 0 0.183312 0.983055<26.5802 109.653 239.588 679.032>
LayerCount: 2
Fore
SplineSet
33 -440 m 1,0,1
 37 -418 37 -418 44 -383 c 2,2,-1
 119 -10 l 1,3,-1
 238 665 l 1,4,-1
 295 1038 l 2,5,6
 300 1071 300 1071 304 1094 c 1,7,-1
 470 1094 l 1,8,-1
 383 665 l 1,9,-1
 353 496 l 2,10,11
 333.87804878 386.048780488 333.87804878 386.048780488 333.87804878 340.37804878 c 0,12,13
 333.87804878 191.797861677 333.87804878 191.797861677 432 134 c 0,14,15
 471 112 471 112 515 112 c 0,16,17
 606 112 606 112 692 191 c 0,18,19
 744 238 744 238 774 307.5 c 128,-1,20
 804 377 804 377 825 496 c 2,21,-1
 855 665 l 2,22,23
 876 785 876 785 920 1094 c 1,24,-1
 1087 1094 l 1,25,-1
 1000 665 l 1,26,-1
 883 0 l 1,27,-1
 738 0 l 1,28,-1
 757 108 l 1,29,30
 630 -27 630 -27 497 -27 c 256,31,32
 364 -27 364 -27 283 99 c 1,33,-1
 207 -383 l 1,34,-1
 199 -440 l 1,35,-1
 33 -440 l 1,0,1
EndSplineSet
EndChar

StartChar: paragraph
Encoding: 182 182 117
Width: 1120
GlyphClass: 2
Flags: W
HStem: 1358 117<646.112 837.112 970.112 1054.11>
VStem: 235.112 133<-223 -90> 559.112 133<-223 -90>
DStem2: 235.112 -223 368.112 -223 0.173181 0.98489<23.0331 890.418> 559.112 -223 692.112 -223 0.173181 0.98489<23.0331 1605.26>
LayerCount: 2
Fore
SplineSet
77.1123046875 826 m 0,0,1
 44.8876953125 894.475585938 44.8876953125 894.475585938 44.8876953125 956.720703125 c 0,2,3
 44.8876953125 1163.625 44.8876953125 1163.625 162.612304688 1297 c 0,4,5
 249.112304688 1395 249.112304688 1395 345.612304688 1435 c 128,-1,6
 442.112304688 1475 442.112304688 1475 571.112304688 1475 c 2,7,-1
 1075.11230469 1475 l 1,8,-1
 1054.11230469 1358 l 1,9,-1
 970.112304688 1358 l 1,10,-1
 692.112304688 -223 l 1,11,-1
 559.112304688 -223 l 1,12,-1
 837.112304688 1358 l 1,13,-1
 646.112304688 1358 l 1,14,-1
 368.112304688 -223 l 1,15,-1
 235.112304688 -223 l 1,16,-1
 389.112304688 654 l 1,17,18
 158.112304688 654 158.112304688 654 77.1123046875 826 c 0,0,1
EndSplineSet
EndChar

StartChar: periodcentered
Encoding: 183 183 118
Width: 1120
GlyphClass: 2
Flags: W
HStem: 415 277<475.044 644.97>
VStem: 419.188 281.625<469.818 638.03>
LayerCount: 2
Fore
SplineSet
535.013671875 415 m 128,-1,1
 477.513671875 415 477.513671875 415 448.350585938 451.232421875 c 128,-1,2
 419.1875 487.46484375 419.1875 487.46484375 419.1875 514.296875 c 0,3,4
 419.1875 601.728515625 419.1875 601.728515625 473.350585938 646.864257812 c 128,-1,5
 527.513671875 692 527.513671875 692 584.513671875 692 c 128,-1,6
 641.513671875 692 641.513671875 692 671.163085938 655.712890625 c 128,-1,7
 700.8125 619.424804688 700.8125 619.424804688 700.8125 592.764648438 c 0,8,9
 700.8125 506.376953125 700.8125 506.376953125 646.663085938 460.688476562 c 128,-1,0
 592.513671875 415 592.513671875 415 535.013671875 415 c 128,-1,1
EndSplineSet
EndChar

StartChar: cedilla
Encoding: 184 184 119
Width: 1120
GlyphClass: 2
Flags: W
HStem: -428 123<409.797 629.627>
VStem: 578.49 128<-89 39>
LayerCount: 2
Fore
SplineSet
332.490234375 -367 m 1,0,-1
 397.490234375 -255 l 1,1,2
 491.490234375 -305 491.490234375 -305 533.490234375 -305 c 128,-1,3
 575.490234375 -305 575.490234375 -305 602.490234375 -288 c 128,-1,4
 629.490234375 -271 629.490234375 -271 633.490234375 -250 c 256,5,6
 637.490234375 -229 637.490234375 -229 616.990234375 -214 c 128,-1,7
 596.490234375 -199 596.490234375 -199 556.990234375 -199 c 128,-1,8
 517.490234375 -199 517.490234375 -199 438.490234375 -222 c 1,9,-1
 578.490234375 39 l 1,10,-1
 706.490234375 39 l 1,11,-1
 634.490234375 -99 l 1,12,13
 714.490234375 -103 714.490234375 -103 751 -141.290039062 c 128,-1,14
 787.509765625 -179.581054688 787.509765625 -179.581054688 787.509765625 -226.884765625 c 0,15,16
 787.509765625 -307.983398438 787.509765625 -307.983398438 717.5 -367.9921875 c 128,-1,17
 647.490234375 -428 647.490234375 -428 555.490234375 -428 c 128,-1,18
 463.490234375 -428 463.490234375 -428 332.490234375 -367 c 1,0,-1
EndSplineSet
EndChar

StartChar: uni00B9
Encoding: 185 185 120
Width: 1120
GlyphClass: 2
Flags: W
HStem: 712 117<367 506 638 753>
VStem: 347 426
DStem2: 506 829 638 829 0.173458 0.984841<22.8965 531.03>
LayerCount: 2
Fore
SplineSet
347 712 m 1,0,-1
 367 829 l 1,1,-1
 506 829 l 1,2,-1
 598 1352 l 1,3,-1
 443 1309 l 1,4,-1
 465 1433 l 1,5,-1
 759 1516 l 1,6,-1
 638 829 l 1,7,-1
 773 829 l 1,8,-1
 753 712 l 1,9,-1
 347 712 l 1,0,-1
EndSplineSet
EndChar

StartChar: ordmasculine
Encoding: 186 186 121
Width: 1120
GlyphClass: 2
Flags: W
HStem: 543 106<404.867 637.24> 1162 106<483.05 714.164>
VStem: 256.722 114.804<682.481 1023.67> 747.728 115.551<784.19 1127.03>
LayerCount: 2
Fore
SplineSet
256.721679688 802.90234375 m 0,0,1
 256.721679688 848.06640625 256.721679688 848.06640625 265.747070312 900 c 0,2,3
 294.247070312 1064 294.247070312 1064 377.247070312 1155 c 0,4,5
 479.247070312 1268 479.247070312 1268 628.247070312 1268 c 0,6,7
 694.247070312 1268 694.247070312 1268 748.247070312 1238 c 0,8,9
 863.278320312 1173.921875 863.278320312 1173.921875 863.278320312 1010.90625 c 0,10,11
 863.278320312 962.766601562 863.278320312 962.766601562 853.247070312 906 c 0,12,13
 808.247070312 654 808.247070312 654 631.247070312 573 c 0,14,15
 565.247070312 543 565.247070312 543 496.247070312 543 c 0,16,17
 360.247070312 543 360.247070312 543 298.747070312 639.5 c 0,18,19
 256.721679688 705.44140625 256.721679688 705.44140625 256.721679688 802.90234375 c 0,0,1
747.727539062 992.9609375 m 0,20,21
 747.727539062 1162 747.727539062 1162 608.247070312 1162 c 0,22,23
 426.247070312 1162 426.247070312 1162 380.747070312 905.5 c 0,24,25
 371.525390625 853.514648438 371.525390625 853.514648438 371.525390625 812.065429688 c 0,26,27
 371.525390625 649 371.525390625 649 514.247070312 649 c 256,28,29
 693.247070312 649 693.247070312 649 739.247070312 905 c 0,30,31
 747.727539062 953.057617188 747.727539062 953.057617188 747.727539062 992.9609375 c 0,20,21
EndSplineSet
EndChar

StartChar: guillemotright
Encoding: 187 187 122
Width: 1120
GlyphClass: 2
Flags: W
DStem2: 20 308 98 208 0.774697 0.632333<0 689.038> 285 1269 173 1172 0.661716 -0.749755<0 575.196> 369 308 446 208 0.77517 0.631752<0 689.04> 633 1269 522 1172 0.662513 -0.749051<0 575.702>
LayerCount: 2
Fore
SplineSet
20 308 m 1,0,-1
 556 741 l 1,1,-1
 173 1172 l 1,2,-1
 285 1269 l 1,3,-1
 751 741 l 1,4,-1
 98 208 l 1,5,-1
 20 308 l 1,0,-1
369 308 m 1,6,-1
 905 741 l 1,7,-1
 522 1172 l 1,8,-1
 633 1269 l 1,9,-1
 1100 741 l 1,10,-1
 446 208 l 1,11,-1
 369 308 l 1,6,-1
EndSplineSet
EndChar

StartChar: onequarter
Encoding: 188 188 123
Width: 1120
GlyphClass: 2
Flags: W
HStem: -6 6G<30 171.186 636 770.407> 182 117<556 668 820 904> 712 117<64 204 336 450> 1481 20G<943.88 1090>
VStem: 30 129<-27 102> 636 131<0 131> 956 134<1367 1501>
DStem2: 30 -27 159 -27 0.520319 0.853972<67.1212 1786.68> 204 829 336 829 0.172067 0.985085<22.7129 531.03> 386 265 556 299 0.592661 0.805452<128.138 425.375> 636 0 767 0 0.173858 0.984771<22.7754 184.792 326.436 548.119>
LayerCount: 2
Fore
SplineSet
30 -27 m 1,0,-1
 956 1501 l 1,1,-1
 1090 1501 l 1,2,-1
 159 -27 l 1,3,-1
 30 -27 l 1,0,-1
44 712 m 1,4,-1
 64 829 l 1,5,-1
 204 829 l 1,6,-1
 296 1352 l 1,7,-1
 140 1309 l 1,8,-1
 162 1433 l 1,9,-1
 456 1516 l 1,10,-1
 336 829 l 1,11,-1
 470 829 l 1,12,-1
 450 712 l 1,13,-1
 44 712 l 1,4,-1
370 182 m 1,14,-1
 386 265 l 1,15,-1
 762 776 l 1,16,-1
 904 776 l 1,17,-1
 820 299 l 1,18,-1
 924 299 l 1,19,-1
 904 182 l 1,20,-1
 798 182 l 1,21,-1
 767 0 l 1,22,-1
 636 0 l 1,23,-1
 668 182 l 1,24,-1
 370 182 l 1,14,-1
556 299 m 1,25,-1
 688 299 l 1,26,-1
 730 540 l 1,27,-1
 556 299 l 1,25,-1
EndSplineSet
EndChar

StartChar: onehalf
Encoding: 189 189 124
Width: 1120
GlyphClass: 2
Flags: W
HStem: -27 21G<30 171.186> 0 117<595 908> 658 118<719.515 880.113> 712 117<84 223 355 470> 1481 20G<944.866 1090>
VStem: 30 129<-27 102> 882 131.104<505.126 656.396> 957 133<1368 1501>
DStem2: 30 -27 159 -27 0.520319 0.853972<67.1212 1787.2> 223 829 355 829 0.173458 0.984841<22.8965 531.03>
LayerCount: 2
Fore
SplineSet
30 -27 m 1,0,-1
 957 1501 l 1,1,-1
 1090 1501 l 1,2,-1
 159 -27 l 1,3,-1
 30 -27 l 1,0,-1
64 712 m 1,4,-1
 84 829 l 1,5,-1
 223 829 l 1,6,-1
 315 1352 l 1,7,-1
 160 1309 l 1,8,-1
 182 1433 l 1,9,-1
 476 1516 l 1,10,-1
 355 829 l 1,11,-1
 490 829 l 1,12,-1
 470 712 l 1,13,-1
 64 712 l 1,4,-1
435 0 m 1,14,15
 455 106 455 106 471.5 151.5 c 128,-1,16
 488 197 488 197 532 253 c 128,-1,17
 576 309 576 309 688 387.5 c 128,-1,18
 800 466 800 466 836.5 503.5 c 0,19,20
 882 550.246575342 882 550.246575342 882 599.959183673 c 0,21,22
 882 658 882 658 818.5 658 c 128,-1,23
 755 658 755 658 723.5 625 c 128,-1,24
 692 592 692 592 673 513 c 1,25,-1
 538 513 l 1,26,27
 564 625 564 625 622 688 c 0,28,29
 704 776 704 776 816 776 c 128,-1,30
 928 776 928 776 970.552083333 726.729166667 c 128,-1,31
 1013.10416667 677.458333333 1013.10416667 677.458333333 1013.10416667 622.948784722 c 0,32,33
 1013.10416667 541.43504902 1013.10416667 541.43504902 971.552083333 485.21752451 c 128,-1,34
 930 429 930 429 879 389 c 128,-1,35
 828 349 828 349 727 274.5 c 128,-1,36
 626 200 626 200 595 117 c 1,37,-1
 929 117 l 1,38,-1
 908 0 l 1,39,-1
 435 0 l 1,14,15
EndSplineSet
EndChar

StartChar: threequarters
Encoding: 190 190 125
Width: 1120
GlyphClass: 2
Flags: W
HStem: -6 6G<35 176.186 628 763.516> 182 117<549 660 813 897> 700 118<189.565 390.488> 1058 119<276 421.394> 1370 118<275.759 448.583>
VStem: 35 129<-27 102> 436.645 131.077<856.745 1039.51> 464.556 128.854<1212.35 1353.58> 628 132<0 132> 962 133<1368 1501>
DStem2: 35 -27 164 -27 0.520319 0.853972<67.1212 1787.2> 379 265 549 299 0.591637 0.806204<127.989 425.229> 628 0 760 0 0.173858 0.984771<22.9492 184.792 326.61 548.293>
LayerCount: 2
Fore
SplineSet
25 872 m 1,0,-1
 158 939 l 1,1,2
 168 908 168 908 173 892 c 0,3,4
 201 818 201 818 284 818 c 0,5,6
 344 818 344 818 384 849 c 0,7,8
 436.644808743 889.799726776 436.644808743 889.799726776 436.644808743 961.24808146 c 0,9,10
 436.644808743 1058 436.644808743 1058 295 1058 c 2,11,-1
 255 1058 l 1,12,-1
 276 1177 l 1,13,14
 314 1177 314 1177 347 1179 c 128,-1,15
 380 1181 380 1181 418 1210.5 c 0,16,17
 464.555555556 1246.64181287 464.555555556 1246.64181287 464.555555556 1285.20979532 c 128,-1,18
 464.555555556 1323.77777778 464.555555556 1323.77777778 442.777777778 1346.88888889 c 128,-1,19
 421 1370 421 1370 378 1370 c 0,20,21
 291 1370 291 1370 222 1259 c 1,22,-1
 116 1323 l 1,23,24
 240 1488 240 1488 398 1488 c 0,25,26
 503 1488 503 1488 548.204545455 1430.38636364 c 128,-1,27
 593.409090909 1372.77272727 593.409090909 1372.77272727 593.409090909 1312.3946281 c 0,28,29
 593.409090909 1246.25795455 593.409090909 1246.25795455 567.704545455 1209.62897727 c 128,-1,30
 542 1173 542 1173 489 1129 c 1,31,-1
 505 1117 l 1,32,33
 567.721649485 1067.94845361 567.721649485 1067.94845361 567.721649485 988.506004889 c 0,34,35
 567.721649485 969.154639175 567.721649485 969.154639175 564 948 c 0,36,37
 545 840 545 840 462.5 770 c 128,-1,38
 380 700 380 700 259 700 c 0,39,40
 178 700 178 700 128.5 732.5 c 128,-1,41
 79 765 79 765 38 845 c 0,42,43
 31 860 31 860 25 872 c 1,0,-1
35 -27 m 1,44,-1
 962 1501 l 1,45,-1
 1095 1501 l 1,46,-1
 164 -27 l 1,47,-1
 35 -27 l 1,44,-1
364 182 m 1,48,-1
 379 265 l 1,49,-1
 754 776 l 1,50,-1
 897 776 l 1,51,-1
 813 299 l 1,52,-1
 918 299 l 1,53,-1
 897 182 l 1,54,-1
 792 182 l 1,55,-1
 760 0 l 1,56,-1
 628 0 l 1,57,-1
 660 182 l 1,58,-1
 364 182 l 1,48,-1
549 299 m 1,59,-1
 681 299 l 1,60,-1
 723 540 l 1,61,-1
 549 299 l 1,59,-1
EndSplineSet
EndChar

StartChar: questiondown
Encoding: 191 191 126
Width: 1120
GlyphClass: 2
Flags: W
HStem: -427 139<395.057 666.203> 772 330<634.521 816.817>
VStem: 187.39 151.262<-232.809 37.0156> 557.813 335.593<845.905 1027.56> 611.61 146<488 634>
DStem2: 581.61 463 714.61 391 0.174248 0.984702<-158.453 173.611>
LayerCount: 2
Fore
SplineSet
496.610351562 -427 m 0,0,1
 334.610351562 -427 334.610351562 -427 261 -344.250976562 c 128,-1,2
 187.389648438 -261.502929688 187.389648438 -261.502929688 187.389648438 -148.740234375 c 0,3,4
 187.389648438 62.189453125 187.389648438 62.189453125 333.610351562 189 c 0,5,6
 361.610351562 213 361.610351562 213 485.610351562 296 c 0,7,8
 534.610351562 330 534.610351562 330 551.110351562 358 c 128,-1,9
 567.610351562 386 567.610351562 386 581.610351562 463 c 2,10,-1
 611.610351562 634 l 1,11,-1
 757.610351562 634 l 1,12,-1
 714.610351562 391 l 2,13,14
 701.610351562 316 701.610351562 316 661.110351562 270.5 c 128,-1,15
 620.610351562 225 620.610351562 225 528.110351562 164 c 128,-1,16
 435.610351562 103 435.610351562 103 410.610351562 76 c 0,17,18
 359.610351562 18 359.610351562 18 342.610351562 -78.5 c 0,19,20
 338.651367188 -100.97265625 338.651367188 -100.97265625 338.651367188 -121.276367188 c 0,21,22
 338.651367188 -188.157226562 338.651367188 -188.157226562 388.130859375 -238.079101562 c 128,-1,23
 437.610351562 -288 437.610351562 -288 517.610351562 -288 c 128,-1,24
 597.610351562 -288 597.610351562 -288 657.610351562 -250 c 128,-1,25
 717.610351562 -212 717.610351562 -212 744.610351562 -149 c 0,26,27
 754.610351562 -127 754.610351562 -127 769.610351562 -68 c 1,28,-1
 932.610351562 -68 l 1,29,30
 927.610351562 -87 927.610351562 -87 925.610351562 -97 c 0,31,32
 900.610351562 -194 900.610351562 -194 839.610351562 -268 c 0,33,34
 706.610351562 -427 706.610351562 -427 496.610351562 -427 c 0,0,1
696.610351562 772 m 256,35,36
 627.610351562 772 627.610351562 772 592.711914062 814.408203125 c 128,-1,37
 557.813476562 856.815429688 557.813476562 856.815429688 557.813476562 888.869140625 c 0,38,39
 557.813476562 993.540039062 557.813476562 993.540039062 622.211914062 1047.77050781 c 128,-1,40
 686.610351562 1102 686.610351562 1102 755.110351562 1102 c 128,-1,41
 823.610351562 1102 823.610351562 1102 858.5078125 1059.15039062 c 128,-1,42
 893.40625 1016.30078125 893.40625 1016.30078125 893.40625 967.336914062 c 0,43,44
 893.40625 880.5703125 893.40625 880.5703125 829.5078125 826.28515625 c 128,-1,45
 765.610351562 772 765.610351562 772 696.610351562 772 c 256,35,36
EndSplineSet
EndChar

StartChar: AE
Encoding: 198 198 133
Width: 1120
GlyphClass: 2
Flags: W
HStem: 0 131<630 930> 438 131<353 539> 694 131<752 980> 1344 131<693 699 844 1151>
DStem2: -54 0 102 0 0.41357 0.910472<64.517 543.123 686.382 686.382> 462 0 630 131 0.17366 0.984806<158.184 444.717 577.72 729.822 862.826 1364.74>
LayerCount: 2
Fore
SplineSet
-54 0 m 1,0,-1
 616 1475 l 1,1,-1
 1174 1475 l 1,2,-1
 1151 1344 l 1,3,-1
 844 1344 l 1,4,-1
 752 825 l 1,5,-1
 1003 825 l 1,6,-1
 980 694 l 1,7,-1
 729 694 l 1,8,-1
 630 131 l 1,9,-1
 953 131 l 1,10,-1
 930 0 l 1,11,-1
 462 0 l 1,12,-1
 539 438 l 1,13,-1
 295 438 l 1,14,-1
 102 0 l 1,15,-1
 -54 0 l 1,0,-1
353 569 m 1,16,-1
 562 569 l 1,17,-1
 699 1344 l 1,18,-1
 693 1344 l 1,19,-1
 353 569 l 1,16,-1
EndSplineSet
EndChar

StartChar: Eth
Encoding: 208 208 143
Width: 1120
GlyphClass: 2
Flags: W
HStem: 0 131<234.623 617.361> 696 131<100.623 189.623 357.623 650.623> 1344 131<448.623 817.905>
VStem: 915.638 148.739<676.805 1246.63>
DStem2: 55.623 0 234.623 131 0.173739 0.984792<160.107 708.696 866.892 1391.84>
LayerCount: 2
Fore
SplineSet
55.623046875 0 m 1,0,-1
 141.623046875 428 l 1,1,-1
 189.623046875 696 l 1,2,-1
 77.623046875 696 l 1,3,-1
 100.623046875 827 l 1,4,-1
 212.623046875 827 l 1,5,-1
 250.623046875 1043 l 1,6,-1
 307.623046875 1419 l 1,7,-1
 315.623046875 1475 l 1,8,-1
 650.623046875 1475 l 2,9,10
 786.623046875 1475 786.623046875 1475 857.623046875 1445.5 c 128,-1,11
 928.623046875 1416 928.623046875 1416 975.623046875 1362 c 0,12,13
 1064.37695312 1260.65625 1064.37695312 1260.65625 1064.37695312 1038.06738281 c 0,14,15
 1064.37695312 907.040039062 1064.37695312 907.040039062 1033.62304688 734 c 0,16,17
 950.623046875 270 950.623046875 270 749.623046875 109 c 0,18,19
 676.623046875 50 676.623046875 50 594.123046875 25 c 128,-1,20
 511.623046875 0 511.623046875 0 390.623046875 0 c 2,21,-1
 55.623046875 0 l 1,0,-1
234.623046875 131 m 1,22,-1
 404.623046875 131 l 2,23,24
 590.623046875 131 590.623046875 131 685.623046875 223 c 0,25,26
 754.623046875 289 754.623046875 289 799.623046875 406.5 c 128,-1,27
 844.623046875 524 844.623046875 524 880.129882812 725.484375 c 128,-1,28
 915.637695312 926.969726562 915.637695312 926.969726562 915.637695312 1016.06835938 c 128,-1,29
 915.637695312 1105.16699219 915.637695312 1105.16699219 907.623046875 1155 c 0,30,31
 890.623046875 1252 890.623046875 1252 820.123046875 1298 c 128,-1,32
 749.623046875 1344 749.623046875 1344 618.623046875 1344 c 2,33,-1
 448.623046875 1344 l 1,34,-1
 357.623046875 827 l 1,35,-1
 673.623046875 827 l 1,36,-1
 650.623046875 696 l 1,37,-1
 334.623046875 696 l 1,38,-1
 234.623046875 131 l 1,22,-1
EndSplineSet
EndChar

StartChar: multiply
Encoding: 215 215 150
Width: 1120
GlyphClass: 2
Flags: W
DStem2: -18 288 64 190 0.725775 0.687932<0 654.778 816.428 1471.21> 258 1310 142 1212 0.575493 -0.817806<13.3878 563.62 704.01 1253.42>
LayerCount: 2
Fore
SplineSet
-18 288 m 1,0,-1
 462 748 l 1,1,-1
 142 1212 l 1,2,-1
 258 1310 l 1,3,-1
 578 846 l 1,4,-1
 1056 1306 l 1,5,-1
 1138 1207 l 1,6,-1
 658 748 l 1,7,-1
 978 284 l 1,8,-1
 864 186 l 1,9,-1
 542 649 l 1,10,-1
 64 190 l 1,11,-1
 -18 288 l 1,0,-1
EndSplineSet
EndChar

StartChar: Oslash
Encoding: 216 216 151
Width: 1120
GlyphClass: 2
Flags: W
HStem: -27 139<319.422 602.067> 1364 139<524.89 807.728>
VStem: 72.7097 150.09<373.012 754.403> 904 150.727<716.088 1085>
DStem2: -40 18 60 -47 0.597564 0.801822<7.63795 177.637 440.202 1419.64 1695.6 1840.81>
LayerCount: 2
Fore
SplineSet
-40 18 m 1,0,-1
 98 204 l 1,1,2
 72.7096774194 290.709677419 72.7096774194 290.709677419 72.7096774194 395.775234131 c 0,3,4
 72.7096774194 518.610752688 72.7096774194 518.610752688 119.35483871 779.305376344 c 128,-1,5
 166 1040 166 1040 240 1188 c 128,-1,6
 314 1336 314 1336 433 1419.5 c 128,-1,7
 552 1503 552 1503 713 1503 c 128,-1,8
 874 1503 874 1503 974 1377 c 1,9,-1
 1060 1494 l 1,10,-1
 1160 1429 l 1,11,-1
 1032 1256 l 1,12,13
 1054.72727273 1170.54545455 1054.72727273 1170.54545455 1054.72727273 1114.22727273 c 128,-1,14
 1054.72727273 1057.90909091 1054.72727273 1057.90909091 1054.5 1047.5 c 0,15,16
 1052 933 1052 933 1007 684.5 c 128,-1,17
 962 436 962 436 888 287.5 c 128,-1,18
 814 139 814 139 694 56 c 128,-1,19
 574 -27 574 -27 417 -27 c 128,-1,20
 260 -27 260 -27 162 89 c 1,21,-1
 60 -47 l 1,22,-1
 -40 18 l 1,0,-1
222.8 388.408888889 m 0,23,24
 222.8 379.466666667 222.8 379.466666667 223 371 c 1,25,-1
 872 1240 l 1,26,27
 808 1364 808 1364 670 1364 c 128,-1,28
 532 1364 532 1364 429 1229 c 128,-1,29
 326 1094 326 1094 262 732 c 0,30,31
 222.8 513.6 222.8 513.6 222.8 388.408888889 c 0,23,24
260 223 m 1,32,33
 325 112 325 112 459.5 112 c 128,-1,34
 594 112 594 112 698 248 c 128,-1,35
 802 384 802 384 864 738 c 0,36,37
 904 968 904 968 904 1085 c 1,38,-1
 260 223 l 1,32,33
EndSplineSet
EndChar

StartChar: Thorn
Encoding: 222 222 157
Width: 1120
GlyphClass: 2
Flags: W
HStem: 0 21G<94.0615 272.062> 393 127<341.062 689.023> 1157 131<476.062 798.507> 1455 20G<353.062 520.062>
VStem: 872.266 153.673<723.577 1083.68>
DStem2: 180.062 430 341.062 520 0.182866 0.983138<-403.2 -11.1407 117.924 764.664 897.661 1059.2>
LayerCount: 2
Fore
SplineSet
94.0615234375 0 m 1,0,1
 96.0615234375 11 96.0615234375 11 106.061523438 55 c 1,2,-1
 180.061523438 430 l 1,3,-1
 288.061523438 1043 l 1,4,-1
 346.061523438 1420 l 2,5,6
 352.061523438 1464 352.061523438 1464 354.061523438 1475 c 1,7,-1
 520.061523438 1475 l 1,8,9
 507.061523438 1405 507.061523438 1405 476.061523438 1288 c 1,10,-1
 633.061523438 1288 l 2,11,12
 802.061523438 1288 802.061523438 1288 893.061523438 1236.5 c 0,13,14
 1025.93847656 1161.29980469 1025.93847656 1161.29980469 1025.93847656 948.90625 c 0,15,16
 1025.93847656 894.91796875 1025.93847656 894.91796875 1016.06152344 837 c 0,17,18
 963.061523438 538 963.061523438 538 708.061523438 434 c 0,19,20
 647.061523438 409 647.061523438 409 587.061523438 401 c 128,-1,21
 527.061523438 393 527.061523438 393 407.061523438 393 c 2,22,-1
 318.061523438 393 l 1,23,24
 284.061523438 155 284.061523438 155 260.061523438 0 c 1,25,-1
 94.0615234375 0 l 1,0,1
341.061523438 520 m 1,26,-1
 459.061523438 520 l 2,27,28
 607.061523438 520 607.061523438 520 676.061523438 557 c 0,29,30
 829.061523438 640 829.061523438 640 864.061523438 837 c 0,31,32
 872.265625 882.340820312 872.265625 882.340820312 872.265625 929.443359375 c 128,-1,33
 872.265625 976.545898438 872.265625 976.545898438 858.061523438 1022 c 0,34,35
 822.061523438 1136 822.061523438 1136 707.061523438 1152 c 0,36,37
 672.061523438 1156 672.061523438 1156 577.061523438 1157 c 1,38,-1
 453.061523438 1157 l 1,39,-1
 341.061523438 520 l 1,26,-1
EndSplineSet
EndChar

StartChar: germandbls
Encoding: 223 223 158
Width: 1120
GlyphClass: 2
Flags: W
HStem: -27 139<394.753 658.146> 0 21G<111.606 281.106> 726 118<496.606 669.284> 1364 139<554.477 796.394>
VStem: 781.748 155.961<267.782 630.679> 850.589 157.805<1021.12 1309.08>
DStem2: 123.606 55 283.606 40 0.182218 0.983258<-25.8353 1322.75>
LayerCount: 2
Fore
SplineSet
111.606445312 0 m 1,0,1
 113.606445312 11 113.606445312 11 123.606445312 55 c 1,2,-1
 197.606445312 432 l 1,3,-1
 313.606445312 1090 l 2,4,5
 335.606445312 1213 335.606445312 1213 366.606445312 1279 c 0,6,7
 408.606445312 1372 408.606445312 1372 512.606445312 1437.5 c 128,-1,8
 616.606445312 1503 616.606445312 1503 720.606445312 1503 c 0,9,10
 861.606445312 1503 861.606445312 1503 944.606445312 1396 c 256,11,12
 1008.39355469 1313.76855469 1008.39355469 1313.76855469 1008.39355469 1209.97949219 c 0,13,14
 1008.39355469 1178.71777344 1008.39355469 1178.71777344 1002.60644531 1145.5 c 0,15,16
 964.067382812 924.288085938 964.067382812 924.288085938 763.606445312 799 c 1,17,-1
 779.606445312 791 l 1,18,19
 937.708984375 713.529296875 937.708984375 713.529296875 937.708984375 509.827148438 c 0,20,21
 937.708984375 455.845703125 937.708984375 455.845703125 926.606445312 393 c 0,22,23
 886.606445312 165 886.606445312 165 737.606445312 49 c 0,24,25
 640.606445312 -27 640.606445312 -27 533.606445312 -27 c 128,-1,26
 426.606445312 -27 426.606445312 -27 357.606445312 26 c 0,27,28
 345.606445312 35 345.606445312 35 331.606445312 45 c 1,29,-1
 418.606445312 156 l 1,30,31
 491.606445312 112 491.606445312 112 558.606445312 112 c 128,-1,32
 625.606445312 112 625.606445312 112 689.106445312 188 c 0,33,34
 781.748046875 298.877929688 781.748046875 298.877929688 781.748046875 477.591796875 c 0,35,36
 781.748046875 712.206054688 781.748046875 712.206054688 520.606445312 724 c 2,37,-1
 475.606445312 726 l 1,38,-1
 496.606445312 844 l 1,39,40
 673.606445312 856 673.606445312 856 768.606445312 963 c 0,41,42
 850.588867188 1055.39257812 850.588867188 1055.39257812 850.588867188 1167.7890625 c 128,-1,43
 850.588867188 1280.18554688 850.588867188 1280.18554688 783.606445312 1331 c 0,44,45
 739.606445312 1364 739.606445312 1364 677.606445312 1364 c 0,46,47
 573.606445312 1364 573.606445312 1364 515.606445312 1276 c 0,48,49
 493.606445312 1242 493.606445312 1242 484.106445312 1211 c 128,-1,50
 474.606445312 1180 474.606445312 1180 458.606445312 1090 c 2,51,-1
 342.606445312 432 l 2,52,53
 332.606445312 378 332.606445312 378 283.606445312 40 c 1,54,-1
 278.606445312 0 l 1,55,-1
 111.606445312 0 l 1,0,1
EndSplineSet
EndChar

StartChar: ae
Encoding: 230 230 165
Width: 1120
GlyphClass: 2
Flags: W
HStem: -27 139<224.665 390.272 573.607 813.178> 508 131<639.461 928.976> 586 139<297.904 477.005> 981 140<350.402 523.512 713.427 886.861>
VStem: 48.8125 153.952<128.855 461.465> 932.127 139.061<640.537 937.811>
DStem2: 432.461 297 571.461 256 0.174167 0.984716<-73.4605 239.822 412.335 611.658>
LayerCount: 2
Fore
SplineSet
565.424804688 198.129882812 m 0,0,1
 565.424804688 112 565.424804688 112 667.4609375 112 c 0,2,3
 738.4609375 112 738.4609375 112 902.4609375 201 c 0,4,5
 925.4609375 213 925.4609375 213 950.4609375 226 c 1,6,-1
 984.4609375 100 l 1,7,8
 838.4609375 23 838.4609375 23 766.9609375 -2 c 128,-1,9
 695.4609375 -27 695.4609375 -27 621.4609375 -27 c 0,10,11
 504.4609375 -27 504.4609375 -27 459.4609375 44 c 1,12,-1
 454.4609375 51 l 1,13,14
 380.4609375 4 380.4609375 4 350.9609375 -11.5 c 128,-1,15
 321.4609375 -27 321.4609375 -27 255.4609375 -27 c 0,16,17
 132.4609375 -27 132.4609375 -27 80.9609375 72.5 c 0,18,19
 48.8125 134.612304688 48.8125 134.612304688 48.8125 207.771484375 c 0,20,21
 48.8125 476.610351562 48.8125 476.610351562 189.4609375 623 c 0,22,23
 287.4609375 725 287.4609375 725 400.4609375 725 c 0,24,25
 432.4609375 725 432.4609375 725 504.4609375 703 c 1,26,-1
 528.4609375 838 l 2,27,28
 534.400390625 871.515625 534.400390625 871.515625 534.400390625 901.045898438 c 128,-1,29
 534.400390625 930.576171875 534.400390625 930.576171875 519.430664062 955.788085938 c 128,-1,30
 504.4609375 981 504.4609375 981 467.4609375 981 c 128,-1,31
 430.4609375 981 430.4609375 981 385.9609375 959.5 c 128,-1,32
 341.4609375 938 341.4609375 938 239.4609375 869 c 1,33,-1
 228.4609375 1006 l 1,34,35
 406.3515625 1121 406.3515625 1121 501.4609375 1121 c 0,36,37
 549.4609375 1121 549.4609375 1121 575.9609375 1106 c 128,-1,38
 602.4609375 1091 602.4609375 1091 636.4609375 1051 c 1,39,40
 723.4609375 1121 723.4609375 1121 821.4609375 1121 c 0,41,42
 1019.4609375 1121 1019.4609375 1121 1062.4609375 898 c 0,43,44
 1071.1875 853.272460938 1071.1875 853.272460938 1071.1875 770.5 c 128,-1,45
 1071.1875 687.727539062 1071.1875 687.727539062 1044.4609375 535 c 1,46,-1
 1040.4609375 508 l 1,47,-1
 616.4609375 508 l 1,48,-1
 571.4609375 256 l 2,49,50
 565.424804688 222.107421875 565.424804688 222.107421875 565.424804688 198.129882812 c 0,0,1
211.4609375 338 m 0,51,52
 202.764648438 288.434570312 202.764648438 288.434570312 202.764648438 244.043945312 c 128,-1,53
 202.764648438 199.65234375 202.764648438 199.65234375 217.4609375 168 c 0,54,55
 243.4609375 112 243.4609375 112 298.9609375 112 c 128,-1,56
 354.4609375 112 354.4609375 112 387.4609375 153 c 0,57,58
 404.4609375 174 404.4609375 174 411.9609375 199 c 128,-1,59
 419.4609375 224 419.4609375 224 432.4609375 297 c 2,60,-1
 478.4609375 557 l 1,61,62
 436.4609375 586 436.4609375 586 393.9609375 586 c 128,-1,63
 351.4609375 586 351.4609375 586 319.4609375 561 c 0,64,65
 239.4609375 500 239.4609375 500 211.4609375 338 c 0,51,52
639.4609375 639 m 1,66,-1
 925.4609375 639 l 1,67,68
 932.126953125 715 932.126953125 715 932.126953125 754.166992188 c 128,-1,69
 932.126953125 793.333007812 932.126953125 793.333007812 928.793945312 833.666992188 c 128,-1,70
 925.4609375 874 925.4609375 874 902.4609375 915 c 0,71,72
 864.4609375 982 864.4609375 982 805.4609375 982 c 128,-1,73
 746.4609375 982 746.4609375 982 716.9609375 948 c 128,-1,74
 687.4609375 914 687.4609375 914 675.4609375 844 c 2,75,-1
 639.4609375 639 l 1,66,-1
EndSplineSet
EndChar

StartChar: eth
Encoding: 240 240 175
Width: 1120
GlyphClass: 2
Flags: W
HStem: -27 139<339.702 643.836> 982 140<475.217 745.295>
VStem: 107.756 153.845<197.073 663.54> 858.57 153.674<427.986 895.604>
DStem2: 336.327 1262 402.327 1152 0.838601 0.544747<0 186.974 410.12 573.785>
LayerCount: 2
Fore
SplineSet
107.755859375 371.571289062 m 0,0,1
 107.755859375 451.571289062 107.755859375 451.571289062 124.327148438 547 c 0,2,3
 191.327148438 930 191.327148438 930 447.327148438 1067 c 0,4,5
 551.327148438 1122 551.327148438 1122 649.327148438 1122 c 0,6,7
 683.327148438 1122 683.327148438 1122 746.327148438 1113 c 1,8,9
 679.327148438 1218 679.327148438 1218 608.327148438 1281 c 1,10,-1
 402.327148438 1152 l 1,11,-1
 336.327148438 1262 l 1,12,-1
 494.327148438 1362 l 1,13,14
 429.327148438 1397 429.327148438 1397 285.327148438 1450 c 1,15,-1
 388.327148438 1561 l 1,16,17
 511.327148438 1536 511.327148438 1536 639.327148438 1457 c 1,18,-1
 824.327148438 1579 l 1,19,-1
 889.327148438 1464 l 1,20,-1
 751.327148438 1376 l 1,21,-1
 775.327148438 1351 l 1,22,23
 851.327148438 1274 851.327148438 1274 913.827148438 1156 c 128,-1,24
 976.327148438 1038 976.327148438 1038 994.286132812 943.170898438 c 128,-1,25
 1012.24414062 848.342773438 1012.24414062 848.342773438 1012.24414062 749.25 c 128,-1,26
 1012.24414062 650.157226562 1012.24414062 650.157226562 990.327148438 525.5 c 0,27,28
 950.327148438 298 950.327148438 298 825.327148438 149 c 0,29,30
 762.327148438 73 762.327148438 73 666.827148438 23 c 128,-1,31
 571.327148438 -27 571.327148438 -27 458.327148438 -27 c 0,32,33
 306.327148438 -27 306.327148438 -27 207.041015625 72.2861328125 c 128,-1,34
 107.755859375 171.571289062 107.755859375 171.571289062 107.755859375 371.571289062 c 0,0,1
276.327148438 547 m 256,35,36
 261.600585938 462.974609375 261.600585938 462.974609375 261.600585938 381.891601562 c 0,37,38
 261.600585938 112 261.600585938 112 483.827148438 112 c 0,39,40
 636.327148438 112 636.327148438 112 722.327148438 232.5 c 128,-1,41
 808.327148438 353 808.327148438 353 842.327148438 544 c 0,42,43
 858.5703125 636.400390625 858.5703125 636.400390625 858.5703125 709.307617188 c 0,44,45
 858.5703125 982 858.5703125 982 631.327148438 982 c 0,46,47
 483.327148438 982 483.327148438 982 397.327148438 861.5 c 128,-1,48
 311.327148438 741 311.327148438 741 276.327148438 547 c 256,35,36
EndSplineSet
EndChar

StartChar: divide
Encoding: 247 247 182
Width: 1120
GlyphClass: 2
Flags: W
HStem: 238 242<419.935 568.608> 664 143<72 1048> 997 242<553.419 702.594>
VStem: 370.896 246.264<280.825 437.326> 504.896 246.235<1039.83 1196.8>
LayerCount: 2
Fore
SplineSet
47 664 m 1,0,-1
 72 807 l 1,1,-1
 1073 807 l 1,2,-1
 1048 664 l 1,3,-1
 47 664 l 1,0,-1
473 238 m 256,4,5
 423 238 423 238 396.948051948 268.909090909 c 128,-1,6
 370.896103896 299.818181818 370.896103896 299.818181818 370.896103896 323.448051948 c 0,7,8
 370.896103896 400.746753247 370.896103896 400.746753247 418.448051948 440.373376623 c 128,-1,9
 466 480 466 480 516.5 480 c 128,-1,10
 567 480 567 480 592.08 448.76 c 128,-1,11
 617.16 417.52 617.16 417.52 617.16 394.26 c 0,12,13
 617.16 318.546506024 617.16 318.546506024 570.08 278.273253012 c 128,-1,14
 523 238 523 238 473 238 c 256,4,5
607 997 m 256,15,16
 557 997 557 997 530.948051948 1028.35064935 c 128,-1,17
 504.896103896 1059.7012987 504.896103896 1059.7012987 504.896103896 1083.19805195 c 0,18,19
 504.896103896 1159.63526835 504.896103896 1159.63526835 551.948051948 1199.31763417 c 128,-1,20
 599 1239 599 1239 649.5 1239 c 128,-1,21
 700 1239 700 1239 725.565789474 1207.70394737 c 128,-1,22
 751.131578947 1176.40789474 751.131578947 1176.40789474 751.131578947 1153.125 c 0,23,24
 751.131578947 1077.52219404 751.131578947 1077.52219404 704.065789474 1037.26109702 c 128,-1,25
 657 997 657 997 607 997 c 256,15,16
EndSplineSet
EndChar

StartChar: oslash
Encoding: 248 248 183
Width: 1120
GlyphClass: 2
Flags: W
HStem: -27 139<338.46 638.274> 982 139<475.386 777.242>
VStem: 102.706 152.847<308.759 660.75> 854.612 155.279<433.665 805.515>
DStem2: 32 44 118 -35 0.656062 0.754707<0 134.335 348.825 1111.19 1311.87 1476.19>
LayerCount: 2
Fore
SplineSet
964 941 m 1,0,1
 1009.89156627 837.743975904 1009.89156627 837.743975904 1009.89156627 747.522590361 c 128,-1,2
 1009.89156627 657.301204819 1009.89156627 657.301204819 991 548 c 0,3,4
 922 158 922 158 666 26 c 0,5,6
 565 -27 565 -27 456 -27 c 0,7,8
 308 -27 308 -27 208 69 c 1,9,-1
 118 -35 l 1,10,-1
 32 44 l 1,11,-1
 141 170 l 1,12,13
 102.705882353 262.834224599 102.705882353 262.834224599 102.705882353 354.270053476 c 128,-1,14
 102.705882353 445.705882353 102.705882353 445.705882353 120 547 c 0,15,16
 187 933 187 933 445 1068 c 0,17,18
 547 1121 547 1121 670.5 1121 c 128,-1,19
 794 1121 794 1121 893 1037 c 1,20,-1
 1003 1161 l 1,21,-1
 1088 1082 l 1,22,-1
 964 941 l 1,0,1
272 546 m 0,23,24
 255.552631579 453.894736842 255.552631579 453.894736842 255.552631579 397.710526316 c 128,-1,25
 255.552631579 341.526315789 255.552631579 341.526315789 260 308 c 1,26,-1
 795 923 l 1,27,28
 734 982 734 982 635 982 c 0,29,30
 349 982 349 982 272 546 c 0,23,24
309 185 m 1,31,32
 368 112 368 112 478 112 c 0,33,34
 630 112 630 112 717 232.5 c 128,-1,35
 804 353 804 353 835 530 c 0,36,37
 854.612244898 641.979591837 854.612244898 641.979591837 854.612244898 706.12244898 c 128,-1,38
 854.612244898 770.265306122 854.612244898 770.265306122 848 807 c 1,39,-1
 309 185 l 1,31,32
EndSplineSet
EndChar

StartChar: thorn
Encoding: 254 254 189
Width: 1120
GlyphClass: 2
Flags: W
HStem: -426 21G<74.9746 245.832> -27 139<390.105 639.894>
VStem: 373.353 149.138<1025.16 1489.07> 892.685 152.341<437.294 873.375>
DStem2: 161.975 6 306.975 6 0.166244 0.986085<-412.523 57.6436 193.567 905.807 1055.73 1332.88>
LayerCount: 2
Fore
SplineSet
74.974609375 -426 m 1,0,-1
 86.974609375 -370 l 1,1,2
 158.974609375 -13 158.974609375 -13 161.974609375 6 c 2,3,-1
 316.974609375 885 l 2,4,5
 364.974609375 1155 364.974609375 1155 369.163085938 1212.35546875 c 128,-1,6
 373.352539062 1269.7109375 373.352539062 1269.7109375 373.352539062 1323.74414062 c 128,-1,7
 373.352539062 1377.77734375 373.352539062 1377.77734375 361.974609375 1488 c 1,8,-1
 507.974609375 1505 l 1,9,10
 522.490234375 1413.54882812 522.490234375 1413.54882812 522.490234375 1320.7421875 c 128,-1,11
 522.490234375 1227.93554688 522.490234375 1227.93554688 505.974609375 1134 c 2,12,-1
 485.974609375 1022 l 1,13,14
 562.974609375 1077 562.974609375 1077 612.974609375 1099 c 0,15,16
 722.442382812 1147.16601562 722.442382812 1147.16601562 842.974609375 1086 c 0,17,18
 1045.02539062 982.244140625 1045.02539062 982.244140625 1045.02539062 711.734375 c 0,19,20
 1045.02539062 635.491210938 1045.02539062 635.491210938 1028.97460938 546 c 0,21,22
 975.974609375 244 975.974609375 244 779.974609375 87 c 0,23,24
 695.974609375 20 695.974609375 20 620.474609375 -3.5 c 128,-1,25
 544.974609375 -27 544.974609375 -27 514.974609375 -27 c 0,26,27
 416.974609375 -27 416.974609375 -27 312.974609375 39 c 1,28,-1
 306.974609375 6 l 2,29,30
 302.974609375 -15 302.974609375 -15 250.974609375 -370 c 1,31,-1
 242.974609375 -426 l 1,32,-1
 74.974609375 -426 l 1,0,-1
341.974609375 204 m 1,33,34
 415.974609375 112 415.974609375 112 508.974609375 112 c 0,35,36
 546.974609375 112 546.974609375 112 604.974609375 138 c 0,37,38
 821.974609375 235 821.974609375 235 879.974609375 559 c 0,39,40
 892.684570312 630.2265625 892.684570312 630.2265625 892.684570312 690.122070312 c 0,41,42
 892.684570312 879.981445312 892.684570312 879.981445312 764.974609375 956 c 0,43,44
 722.974609375 982 722.974609375 982 674.974609375 982 c 128,-1,45
 626.974609375 982 626.974609375 982 566.474609375 934.5 c 128,-1,46
 505.974609375 887 505.974609375 887 447.974609375 805 c 1,47,-1
 341.974609375 204 l 1,33,34
EndSplineSet
EndChar

StartChar: dcaron
Encoding: 271 271 202
Width: 1120
GlyphClass: 2
Flags: W
HStem: -27 139<154.179 376.779> 982 139<306.155 555.733> 1481 20G<700.54 870.589>
VStem: -45.5889 152.78<159.841 658.05> 495.589 146.958<-12.2868 102>
DStem2: 500.589 290 698.589 591 0.165323 0.986239<-80.0142 643.932 776.792 1006.6>
LayerCount: 2
Fore
SplineSet
-45.5888671875 346.395507812 m 0,0,1
 -45.5888671875 435.836914062 -45.5888671875 435.836914062 -26.4111328125 545 c 0,2,3
 25.5888671875 841 25.5888671875 841 183.588867188 1007 c 0,4,5
 292.588867188 1121 292.588867188 1121 414.588867188 1121 c 256,6,7
 536.588867188 1121 536.588867188 1121 622.588867188 1063 c 1,8,-1
 635.588867188 1055 l 1,9,-1
 703.588867188 1501 l 1,10,-1
 870.588867188 1501 l 1,11,12
 863.588867188 1468 863.588867188 1468 820.588867188 1257 c 2,13,-1
 786.588867188 1089 l 1,14,-1
 698.588867188 591 l 2,15,16
 642.546875 270.250976562 642.546875 270.250976562 642.546875 181.1875 c 128,-1,17
 642.546875 92.125 642.546875 92.125 654.588867188 -12 c 1,18,-1
 506.588867188 -29 l 1,19,20
 497.588867188 45 497.588867188 45 495.588867188 102 c 1,21,22
 366.588867188 -27 366.588867188 -27 210.588867188 -27 c 0,23,24
 83.5888671875 -27 83.5888671875 -27 10.5888671875 98 c 0,25,26
 -45.5888671875 193.3125 -45.5888671875 193.3125 -45.5888671875 346.395507812 c 0,0,1
124.588867188 538 m 0,27,28
 107.19140625 439.56640625 107.19140625 439.56640625 107.19140625 353.35546875 c 128,-1,29
 107.19140625 267.14453125 107.19140625 267.14453125 131.588867188 201 c 0,30,31
 163.588867188 112 163.588867188 112 238.088867188 112 c 128,-1,32
 312.588867188 112 312.588867188 112 374.088867188 154.5 c 128,-1,33
 435.588867188 197 435.588867188 197 500.588867188 290 c 1,34,-1
 606.588867188 890 l 1,35,36
 529.588867188 982 529.588867188 982 420.588867188 982 c 0,37,38
 351.588867188 982 351.588867188 982 292.588867188 926 c 0,39,40
 170.588867188 808 170.588867188 808 124.588867188 538 c 0,27,28
838.588867188 1205 m 1,41,-1
 1025.58886719 1533 l 1,42,-1
 1165.58886719 1476 l 1,43,-1
 942.588867188 1148 l 1,44,-1
 838.588867188 1205 l 1,41,-1
EndSplineSet
EndChar

StartChar: dcroat
Encoding: 273 273 203
Width: 1120
GlyphClass: 2
Flags: W
HStem: -27 139<253.144 527.838> 982 139<407.223 706.859> 1223 131<554.471 813.471 991.471 1093.47> 1481 20G<851.394 1021.47>
VStem: 646.471 146.958<-12.2868 102>
DStem2: 651.471 290 849.471 591 0.165323 0.986239<-80.0796 643.991 776.792 946.944>
LayerCount: 2
Fore
SplineSet
92.470703125 96 m 0,0,1
 -33.529296875 248 -33.529296875 248 18.970703125 546.5 c 128,-1,2
 71.470703125 845 71.470703125 845 268.470703125 1007 c 0,3,4
 407.470703125 1121 407.470703125 1121 565.470703125 1121 c 0,5,6
 687.470703125 1121 687.470703125 1121 773.470703125 1063 c 1,7,-1
 786.470703125 1055 l 1,8,-1
 813.470703125 1223 l 1,9,-1
 531.470703125 1223 l 1,10,-1
 554.470703125 1354 l 1,11,-1
 832.470703125 1354 l 1,12,13
 844.470703125 1435 844.470703125 1435 850.470703125 1475 c 2,14,-1
 854.470703125 1501 l 1,15,-1
 1021.47070312 1501 l 1,16,17
 1014.47070312 1467 1014.47070312 1467 1000.47070312 1401 c 1,18,-1
 991.470703125 1354 l 1,19,-1
 1116.47070312 1354 l 1,20,-1
 1093.47070312 1223 l 1,21,-1
 961.470703125 1223 l 1,22,-1
 849.470703125 591 l 2,23,24
 793.428710938 270.250976562 793.428710938 270.250976562 793.428710938 181.1875 c 128,-1,25
 793.428710938 92.125 793.428710938 92.125 805.470703125 -12 c 1,26,-1
 657.470703125 -29 l 1,27,28
 648.470703125 45 648.470703125 45 646.470703125 102 c 1,29,30
 517.470703125 -27 517.470703125 -27 356.470703125 -27 c 128,-1,31
 195.470703125 -27 195.470703125 -27 92.470703125 96 c 0,0,1
157.002929688 408.767578125 m 0,32,33
 157.002929688 281.278320312 157.002929688 281.278320312 216.237304688 196.639648438 c 128,-1,34
 275.470703125 112 275.470703125 112 386.470703125 112 c 0,35,36
 461.470703125 112 461.470703125 112 522.470703125 152.5 c 128,-1,37
 583.470703125 193 583.470703125 193 651.470703125 290 c 1,38,-1
 757.470703125 890 l 1,39,40
 680.470703125 982 680.470703125 982 576.470703125 982 c 128,-1,41
 472.470703125 982 472.470703125 982 391.470703125 928 c 0,42,43
 218.470703125 814 218.470703125 814 169.470703125 539 c 0,44,45
 157.002929688 468.671875 157.002929688 468.671875 157.002929688 408.767578125 c 0,32,33
EndSplineSet
EndChar

StartChar: uni0122
Encoding: 290 290 214
Width: 1120
GlyphClass: 2
Flags: W
HStem: -27 139<330.829 629.158> 0 21G<754.408 903.946> 604 131<535.408 861.408> 1094 21G<872.408 1033.51> 1364 139<547.95 830.633>
VStem: 82.9834 157.805<213.156 766.83> 884.408 152.608<1094 1309.72>
DStem2: 754.408 0 900.408 0 0.174167 0.984716<25.4284 123.967 280.526 613.404>
LayerCount: 2
Fore
SplineSet
240.788085938 430.665039062 m 0,0,1
 240.788085938 112 240.788085938 112 471.408203125 112 c 0,2,3
 643.408203125 112 643.408203125 112 754.408203125 277 c 0,4,5
 792.408203125 333 792.408203125 333 814.408203125 402 c 128,-1,6
 836.408203125 471 836.408203125 471 861.408203125 604 c 1,7,-1
 512.408203125 604 l 1,8,-1
 535.408203125 735 l 1,9,-1
 1030.40820312 735 l 1,10,-1
 900.408203125 0 l 1,11,-1
 754.408203125 0 l 1,12,-1
 776.408203125 122 l 1,13,-1
 762.408203125 109 l 1,14,15
 700.408203125 46 700.408203125 46 610.908203125 9.5 c 128,-1,16
 521.408203125 -27 521.408203125 -27 432.408203125 -27 c 0,17,18
 286.408203125 -27 286.408203125 -27 196.408203125 58.5 c 0,19,20
 82.9833984375 166.252929688 82.9833984375 166.252929688 82.9833984375 380.7109375 c 0,21,22
 82.9833984375 516.662109375 82.9833984375 516.662109375 127.1953125 766.331054688 c 128,-1,23
 171.408203125 1016 171.408203125 1016 254.408203125 1177 c 0,24,25
 421.408203125 1503 421.408203125 1503 726.408203125 1503 c 0,26,27
 892.408203125 1503 892.408203125 1503 964.711914062 1402.24023438 c 128,-1,28
 1037.01660156 1301.48046875 1037.01660156 1301.48046875 1037.01660156 1177.96777344 c 1,29,-1
 1032.40820312 1094 l 1,30,-1
 872.408203125 1094 l 1,31,32
 884.408203125 1164 884.408203125 1164 884.408203125 1190 c 0,33,34
 884.408203125 1272 884.408203125 1272 833.408203125 1318 c 128,-1,35
 782.408203125 1364 782.408203125 1364 690.408203125 1364 c 128,-1,36
 598.408203125 1364 598.408203125 1364 510.908203125 1293.5 c 128,-1,37
 423.408203125 1223 423.408203125 1223 366.908203125 1085.5 c 128,-1,38
 310.408203125 948 310.408203125 948 275.59765625 748.84375 c 128,-1,39
 240.788085938 549.686523438 240.788085938 549.686523438 240.788085938 430.665039062 c 0,0,1
205.408203125 -406 m 1,40,-1
 392.408203125 -78 l 1,41,-1
 556.408203125 -135 l 1,42,-1
 334.408203125 -463 l 1,43,-1
 205.408203125 -406 l 1,40,-1
EndSplineSet
EndChar

StartChar: uni0123
Encoding: 291 291 215
Width: 1120
GlyphClass: 2
Flags: W
HStem: -334 139<257.176 554.59> 93 139<343.108 626.502> 982 139<457.86 756.416> 1074 20G<913 1069>
VStem: 107.374 154.716<323.629 717.027>
DStem2: 711 127 855 112 0.174712 0.98462<-216.275 64.1276 190.987 774.747>
LayerCount: 2
Fore
SplineSet
51 -164 m 1,0,-1
 175 -70 l 1,1,2
 262 -195 262 -195 409 -195 c 0,3,4
 518 -195 518 -195 601 -112 c 128,-1,5
 684 -29 684 -29 711 127 c 1,6,-1
 723 190 l 1,7,8
 577 93 577 93 413 93 c 0,9,10
 300 93 300 93 224 164 c 0,11,12
 107.373786408 270.09223301 107.373786408 270.09223301 107.373786408 459.974172872 c 0,13,14
 107.373786408 646.747572816 107.373786408 646.747572816 196 824 c 0,15,16
 344 1120 344 1120 633 1121 c 0,17,18
 704 1121 704 1121 761.5 1099.5 c 128,-1,19
 819 1078 819 1078 890 1021 c 1,20,21
 902 1048 902 1048 924 1094 c 1,22,-1
 1069 1094 l 1,23,24
 995 909 995 909 976 802 c 2,25,-1
 855 112 l 2,26,27
 804 -175 804 -175 563 -289 c 0,28,29
 468 -334 468 -334 380 -334 c 0,30,31
 200 -334 200 -334 83 -202 c 0,32,33
 78 -196 78 -196 51 -164 c 1,0,-1
372 853 m 0,34,35
 262.089820359 687.401996008 262.089820359 687.401996008 262.089820359 472.718562874 c 0,36,37
 262.089820359 404.359281437 262.089820359 404.359281437 301 332 c 0,38,39
 352 232 352 232 465 232 c 0,40,41
 619 232 619 232 754 369 c 1,42,-1
 840 854 l 1,43,44
 751 982 751 982 606 982 c 0,45,46
 501 982 501 982 421 909 c 0,47,48
 391 882 391 882 372 853 c 0,34,35
543 1267 m 1,49,-1
 766 1595 l 1,50,-1
 894 1538 l 1,51,-1
 707 1210 l 1,52,-1
 543 1267 l 1,49,-1
EndSplineSet
EndChar

StartChar: dotlessi
Encoding: 305 305 223
Width: 1120
GlyphClass: 2
Flags: W
HStem: -27 139<538.556 727.744> 963 131<213 493>
VStem: 376.027 150.082<121.48 507.109>
DStem2: 407 430 553 430 0.189286 0.981922<-174.778 539.643>
LayerCount: 2
Fore
SplineSet
526.109243697 226.816608997 m 0,0,1
 526.109243697 112 526.109243697 112 612 112 c 4,2,3
 648 112 648 112 709.5 138.5 c 132,-1,4
 771 165 771 165 828 251 c 5,5,-1
 930 224 l 5,6,7
 918 208 918 208 900 182 c 4,8,9
 745 -27 745 -27 578 -27 c 4,10,11
 459 -27 459 -27 402 75 c 4,12,13
 376.027027027 121.081081081 376.027027027 121.081081081 376.027027027 192.082176771 c 0,14,15
 376.027027027 276.425675676 376.027027027 276.425675676 407 430 c 5,16,-1
 448 665 l 5,17,-1
 493 963 l 5,18,-1
 190 963 l 5,19,-1
 213 1094 l 5,20,-1
 681 1094 l 5,21,22
 613 774 613 774 594 665 c 6,23,-1
 553 430 l 5,24,25
 526.109243697 297.56302521 526.109243697 297.56302521 526.109243697 226.816608997 c 0,0,1
EndSplineSet
EndChar

StartChar: IJ
Encoding: 306 306 224
Width: 1120
GlyphClass: 2
Flags: W
HStem: -27 139<515.882 713.312> 0 131<-27 92 248 348> 1344 131<210 306 462 585 796 987>
VStem: 340.132 146.368<139.123 536.26>
DStem2: 92 131 248 131 0.173739 0.984792<27.1033 1231.73> 351 363 495 357 0.207606 0.978212<-61.4114 101.069 243.748 269.045> 845 503 991 503 0.181111 0.983463<-326.043 852.81>
LayerCount: 2
Fore
SplineSet
-50 0 m 1,0,-1
 -27 131 l 1,1,-1
 92 131 l 1,2,-1
 151 429 l 1,3,-1
 259 1046 l 1,4,-1
 306 1344 l 1,5,-1
 187 1344 l 1,6,-1
 210 1475 l 1,7,-1
 608 1475 l 1,8,-1
 585 1344 l 1,9,-1
 462 1344 l 1,10,-1
 404 1046 l 1,11,-1
 296 429 l 1,12,-1
 248 131 l 1,13,-1
 356 131 l 1,14,15
 340.132075472 184.075471698 340.132075472 184.075471698 340.132075472 242.971698113 c 128,-1,16
 340.132075472 301.867924528 340.132075472 301.867924528 351 363 c 2,17,-1
 363 433 l 2,18,19
 373 490 373 490 387 635 c 1,20,-1
 554 635 l 1,21,-1
 548 607 l 1,22,23
 513 460 513 460 508 433 c 2,24,-1
 495 357 l 2,25,26
 486.5 309 486.5 309 486.5 270.25 c 128,-1,27
 486.5 231.5 486.5 231.5 495 202 c 0,28,29
 521 112 521 112 608 112 c 128,-1,30
 695 112 695 112 760 214 c 0,31,32
 807 290 807 290 845 503 c 2,33,-1
 940 1046 l 1,34,-1
 987 1344 l 1,35,-1
 773 1344 l 1,36,-1
 796 1475 l 1,37,-1
 1170 1475 l 1,38,-1
 1086 1046 l 1,39,-1
 991 503 l 2,40,41
 965 356 965 356 943 286 c 0,42,43
 890 118 890 118 771 34 c 0,44,45
 682 -27 682 -27 578 -27 c 0,46,47
 426 -27 426 -27 367 107 c 1,48,-1
 348 0 l 1,49,-1
 -50 0 l 1,0,-1
EndSplineSet
EndChar

